STARTFONT 2.1
COMMENT
COMMENT Converted from OpenType font "MultiTypeGamerChess-Regular.otf" by "otf2bdf 3.0".
COMMENT
FONT -FreeType-MultiType Gamer Chess-Medium-R-Normal--28-200-100-100-P-166-ISO10646-1
SIZE 20 100 100
FONTBOUNDINGBOX 72 48 -24 -8
STARTPROPERTIES 19
FOUNDRY "FreeType"
FAMILY_NAME "MultiType Gamer Chess"
WEIGHT_NAME "Medium"
SLANT "R"
SETWIDTH_NAME "Normal"
ADD_STYLE_NAME ""
PIXEL_SIZE 28
POINT_SIZE 200
RESOLUTION_X 100
RESOLUTION_Y 100
SPACING "P"
AVERAGE_WIDTH 166
CHARSET_REGISTRY "ISO10646"
CHARSET_ENCODING "1"
FONT_ASCENT 30
FONT_DESCENT 2
COPYRIGHT "-FreeType-MultiType Gamer Chess-Medium-R-Normal--28-200-100-100-P-166-ISO10646-1"
_OTF_FONTFILE "MultiTypeGamerChess-Regular.otf"
_OTF_PSNAME "MultiTypeGamer-Chess"
ENDPROPERTIES
CHARS 758
STARTCHAR 0020
ENCODING 32
SWIDTH 288 0
DWIDTH 8 0
BBX 0 0 0 0
BITMAP
ENDCHAR
STARTCHAR 0021
ENCODING 33
SWIDTH 288 0
DWIDTH 8 0
BBX 4 21 2 0
BITMAP
90
90
60
90
60
60
90
60
F0
90
60
90
90
60
00
00
00
90
60
60
90
ENDCHAR
STARTCHAR 0022
ENCODING 34
SWIDTH 432 0
DWIDTH 12 0
BBX 11 7 1 17
BITMAP
B160
B160
4080
B160
B160
4080
B160
ENDCHAR
STARTCHAR 0023
ENCODING 35
SWIDTH 900 0
DWIDTH 25 0
BBX 21 27 2 -3
BITMAP
0D0580
0D0580
020200
0D0580
0D0580
020200
0D0580
92DA48
92DA48
6D25B0
92DA48
9FDFC8
0D0580
020200
0D0580
0D0580
92DA48
6D25B0
92DA48
92DA48
0D0580
020200
020200
0D0580
020200
0D0580
0D0580
ENDCHAR
STARTCHAR 0024
ENCODING 36
SWIDTH 684 0
DWIDTH 19 0
BBX 15 27 2 -3
BITMAP
02C0
02C0
0100
12DA
12DA
6D24
92DA
6000
6000
9000
6000
F2D8
92D8
6D24
12DA
12DA
0004
001A
0004
0004
92DA
6D24
6D24
92D8
0100
02C0
02C0
ENDCHAR
STARTCHAR 0025
ENCODING 37
SWIDTH 1296 0
DWIDTH 36 0
BBX 32 21 2 0
BITMAP
12C04800
12C04800
6D203000
92D84800
6021B000
6021B000
90D84000
6021B000
F2FBF348
92DA4348
6D2184B6
12C24B49
12C24B49
00058406
00020B09
00058406
00058406
001A0B49
000404B6
000404B6
001A0348
ENDCHAR
STARTCHAR 0026
ENCODING 38
SWIDTH 792 0
DWIDTH 22 0
BBX 18 21 2 0
BITMAP
12D800
12D800
6D2000
92D800
600000
600000
901A00
6C0400
7EDE40
12DA40
0D2580
12DA40
12DA40
6C0400
901A00
600400
600400
92DA40
6D2580
6D2580
12DA40
ENDCHAR
STARTCHAR 0027
ENCODING 39
SWIDTH 180 0
DWIDTH 5 0
BBX 4 7 1 17
BITMAP
B0
B0
40
B0
B0
40
B0
ENDCHAR
STARTCHAR 0028
ENCODING 40
SWIDTH 288 0
DWIDTH 8 0
BBX 7 32 2 -6
BITMAP
12
6C
90
90
60
90
90
60
90
60
60
90
60
F0
90
60
90
90
60
90
60
60
90
60
60
90
60
90
90
6C
12
12
ENDCHAR
STARTCHAR 0029
ENCODING 41
SWIDTH 288 0
DWIDTH 8 0
BBX 7 32 -1 -6
BITMAP
D0
2C
12
12
0C
12
12
0C
12
0C
0C
12
0C
1E
12
0C
12
12
0C
12
0C
0C
12
0C
0C
12
0C
12
12
2C
D0
D0
ENDCHAR
STARTCHAR 002A
ENCODING 42
SWIDTH 900 0
DWIDTH 25 0
BBX 21 18 2 6
BITMAP
90D848
90D848
602030
90D848
90D848
6C21B0
12DA40
0D2580
0D2580
02DA00
0D2580
1FFFC0
12DA40
6C21B0
90D848
90D848
602030
90D848
ENDCHAR
STARTCHAR 002B
ENCODING 43
SWIDTH 684 0
DWIDTH 19 0
BBX 15 15 2 3
BITMAP
02C0
0100
0100
02C0
0100
93DA
92DA
6D24
92DA
92DA
0100
02C0
0100
0100
02C0
ENDCHAR
STARTCHAR 002C
ENCODING 44
SWIDTH 180 0
DWIDTH 5 0
BBX 4 7 1 -3
BITMAP
B0
40
40
B0
40
80
80
ENDCHAR
STARTCHAR 002D
ENCODING 45
SWIDTH 468 0
DWIDTH 13 0
BBX 12 5 1 8
BITMAP
B690
B690
4960
B690
B690
ENDCHAR
STARTCHAR 002E
ENCODING 46
SWIDTH 180 0
DWIDTH 5 0
BBX 4 4 1 0
BITMAP
B0
40
40
B0
ENDCHAR
STARTCHAR 002F
ENCODING 47
SWIDTH 396 0
DWIDTH 11 0
BBX 9 21 1 0
BITMAP
0680
0680
0100
0680
0900
0900
0600
0900
3F00
3600
0800
3600
3600
4800
3000
4800
4800
B000
4000
4000
B000
ENDCHAR
STARTCHAR 0030
ENCODING 48
SWIDTH 684 0
DWIDTH 19 0
BBX 15 21 2 0
BITMAP
02C0
02C0
0D20
12D8
6C24
6C24
901A
6004
F01E
901A
6004
901A
901A
6004
901A
6C24
6C24
12D8
0D20
0D20
02C0
ENDCHAR
STARTCHAR 0031
ENCODING 49
SWIDTH 396 0
DWIDTH 11 0
BBX 7 21 2 0
BITMAP
92
92
6C
92
0C
0C
12
0C
1E
12
0C
12
12
0C
12
0C
0C
12
0C
0C
12
ENDCHAR
STARTCHAR 0032
ENCODING 50
SWIDTH 684 0
DWIDTH 19 0
BBX 15 21 2 0
BITMAP
12D8
12D8
6D24
92DA
6004
6004
901A
0024
00FC
00D8
0120
02C0
02C0
0D00
1200
6C00
6C00
92DA
6D24
6D24
92DA
ENDCHAR
STARTCHAR 0033
ENCODING 51
SWIDTH 684 0
DWIDTH 19 0
BBX 15 21 2 0
BITMAP
12D8
12D8
6D24
92DA
6004
6004
901A
0024
02FC
02D8
0124
02DA
02DA
0004
901A
6004
6004
92DA
6D24
6D24
12D8
ENDCHAR
STARTCHAR 0034
ENCODING 52
SWIDTH 684 0
DWIDTH 19 0
BBX 15 21 2 0
BITMAP
00D8
00D8
0120
02D8
0D20
0D20
12D8
6C20
FCF8
90D8
6020
92DA
92DA
6D24
92DA
0020
0020
00D8
0020
0020
00D8
ENDCHAR
STARTCHAR 0035
ENCODING 53
SWIDTH 684 0
DWIDTH 19 0
BBX 15 21 2 0
BITMAP
92DA
92DA
6D24
92DA
6000
6000
9000
6000
F2D8
92D8
6D24
92DA
92DA
0004
001A
0004
0004
92DA
6D24
6D24
92D8
ENDCHAR
STARTCHAR 0036
ENCODING 54
SWIDTH 684 0
DWIDTH 19 0
BBX 15 21 2 0
BITMAP
02DA
02DA
0D24
12DA
6C00
6C00
9000
6000
F2D8
92D8
6D24
92DA
92DA
6004
901A
6004
6004
92DA
6D24
6D24
12D8
ENDCHAR
STARTCHAR 0037
ENCODING 55
SWIDTH 684 0
DWIDTH 19 0
BBX 15 21 2 0
BITMAP
92DA
92DA
6D24
92DA
0004
0004
001A
0024
00FC
00D8
0120
02C0
02C0
0D00
1200
0C00
0C00
1200
0C00
0C00
1200
ENDCHAR
STARTCHAR 0038
ENCODING 56
SWIDTH 684 0
DWIDTH 19 0
BBX 15 21 2 0
BITMAP
12D8
12D8
6D24
92DA
6004
6004
901A
6C24
7EFC
12D8
0D20
12D8
12D8
6C24
901A
6004
6004
92DA
6D24
6D24
12D8
ENDCHAR
STARTCHAR 0039
ENCODING 57
SWIDTH 684 0
DWIDTH 19 0
BBX 15 21 2 0
BITMAP
12D8
12D8
6D24
92DA
6004
6004
901A
6004
F2DE
92DA
6D24
12DA
12DA
0004
001A
0024
0024
92D8
6D20
6D20
92C0
ENDCHAR
STARTCHAR 003A
ENCODING 58
SWIDTH 180 0
DWIDTH 5 0
BBX 4 13 1 4
BITMAP
B0
B0
40
B0
B0
00
00
00
00
B0
40
B0
B0
ENDCHAR
STARTCHAR 003B
ENCODING 59
SWIDTH 180 0
DWIDTH 5 0
BBX 4 16 1 -3
BITMAP
B0
B0
40
B0
B0
00
00
00
00
B0
40
40
B0
40
80
80
ENDCHAR
STARTCHAR 003C
ENCODING 60
SWIDTH 648 0
DWIDTH 18 0
BBX 14 21 1 0
BITMAP
006C
006C
0090
0160
0680
0680
0900
3600
7E00
4800
B000
4800
4800
3600
0900
0680
0680
0160
0090
0090
006C
ENDCHAR
STARTCHAR 003D
ENCODING 61
SWIDTH 684 0
DWIDTH 19 0
BBX 15 12 2 3
BITMAP
92DA
6D24
FFFE
92DA
0000
0000
0000
0000
92DA
6D24
6D24
92DA
ENDCHAR
STARTCHAR 003E
ENCODING 62
SWIDTH 648 0
DWIDTH 18 0
BBX 14 21 3 0
BITMAP
D800
D800
2400
1A00
0580
0580
0240
01B0
01F8
0048
0034
0048
0048
01B0
0240
0580
0580
1A00
2400
2400
D800
ENDCHAR
STARTCHAR 003F
ENCODING 63
SWIDTH 684 0
DWIDTH 19 0
BBX 15 21 2 0
BITMAP
12D8
12D8
6D24
92DA
6004
6004
901A
0004
00DE
00DA
0124
02D8
02D8
0100
02C0
0000
0000
02C0
0100
0100
02C0
ENDCHAR
STARTCHAR 0040
ENCODING 64
SWIDTH 1188 0
DWIDTH 33 0
BBX 29 29 2 -3
BITMAP
02DA4B00
0D25B480
12DA4B40
12DA4B40
6C0000B0
90000048
90000048
60000030
901A4848
6025B030
6025B030
90DA4848
60203030
F0F87878
90D84848
60203030
90DA4B48
90DA4B48
6025B4B0
901A4B40
60000000
60000000
90000000
6C000000
6C000000
12DA4B48
0D25B4B0
02DA4B48
02DA4B48
ENDCHAR
STARTCHAR 0041
ENCODING 65
SWIDTH 684 0
DWIDTH 19 0
BBX 15 21 2 0
BITMAP
02C0
02C0
0D20
12D8
6C24
6C24
901A
6004
F01E
901A
6004
92DA
92DA
6D24
92DA
6004
6004
901A
6004
6004
901A
ENDCHAR
STARTCHAR 0042
ENCODING 66
SWIDTH 684 0
DWIDTH 19 0
BBX 15 21 2 0
BITMAP
92D8
92D8
6D24
92DA
6004
6004
901A
6024
F2FC
92D8
6D24
92DA
92DA
6004
901A
6004
6004
92DA
6D24
6D24
92D8
ENDCHAR
STARTCHAR 0043
ENCODING 67
SWIDTH 792 0
DWIDTH 22 0
BBX 18 21 2 0
BITMAP
02D800
02D800
0D2400
12DA00
6C0580
6C0580
900240
600180
F003C0
900240
600000
900000
900000
600000
900240
6C0580
6C0580
12DA00
0D2400
0D2400
02D800
ENDCHAR
STARTCHAR 0044
ENCODING 68
SWIDTH 792 0
DWIDTH 22 0
BBX 18 21 2 0
BITMAP
92D800
92D800
6D2400
92DA00
600580
600580
900240
600180
F003C0
900240
600180
900240
900240
600180
900240
600580
600580
92DA00
6D2400
6D2400
92D800
ENDCHAR
STARTCHAR 0045
ENCODING 69
SWIDTH 684 0
DWIDTH 19 0
BBX 15 21 2 0
BITMAP
02DA
02DA
0D24
12DA
6C00
6C00
9000
6000
F2D8
92D8
6D20
92D8
92D8
6000
9000
6C00
6C00
12DA
0D24
0D24
02DA
ENDCHAR
STARTCHAR 0046
ENCODING 70
SWIDTH 684 0
DWIDTH 19 0
BBX 15 21 2 0
BITMAP
02DA
02DA
0D24
12DA
6C00
6C00
9000
6000
F2D8
92D8
6D20
92D8
92D8
6000
9000
6000
6000
9000
6000
6000
9000
ENDCHAR
STARTCHAR 0047
ENCODING 71
SWIDTH 792 0
DWIDTH 22 0
BBX 18 21 2 0
BITMAP
02DA40
02DA40
0D2580
12DA40
6C0000
6C0000
900000
600000
F0DA40
90DA40
602580
90DA40
90DA40
600180
900240
6C0180
6C0180
12DA40
0D2580
0D2580
02DA40
ENDCHAR
STARTCHAR 0048
ENCODING 72
SWIDTH 792 0
DWIDTH 22 0
BBX 18 21 2 0
BITMAP
900240
900240
600180
900240
600180
600180
900240
600180
F2DBC0
92DA40
6D2580
92DA40
92DA40
600180
900240
600180
600180
900240
600180
600180
900240
ENDCHAR
STARTCHAR 0049
ENCODING 73
SWIDTH 468 0
DWIDTH 13 0
BBX 10 21 2 0
BITMAP
92C0
92C0
6D00
92C0
0C00
0C00
1200
0C00
1E00
1200
0C00
1200
1200
0C00
1200
0C00
0C00
92C0
6D00
6D00
92C0
ENDCHAR
STARTCHAR 004A
ENCODING 74
SWIDTH 576 0
DWIDTH 16 0
BBX 13 21 2 0
BITMAP
92D8
92D8
6D20
92D8
0020
0020
00D8
0020
00F8
00D8
0020
00D8
00D8
0020
00D8
0120
0120
92C0
6D00
6D00
9200
ENDCHAR
STARTCHAR 004B
ENCODING 75
SWIDTH 684 0
DWIDTH 19 0
BBX 15 21 2 0
BITMAP
901A
901A
6004
901A
6024
6024
90D8
6120
F3E0
92C0
6D00
92C0
92C0
6120
90D8
6024
6024
901A
6004
6004
901A
ENDCHAR
STARTCHAR 004C
ENCODING 76
SWIDTH 684 0
DWIDTH 19 0
BBX 15 21 2 0
BITMAP
9000
9000
6000
9000
6000
6000
9000
6000
F000
9000
6000
9000
9000
6000
9000
6000
6000
92DA
6D24
6D24
12DA
ENDCHAR
STARTCHAR 004D
ENCODING 77
SWIDTH 972 0
DWIDTH 27 0
BBX 24 21 2 0
BITMAP
90000B
90000B
6C0034
92004B
6D01B4
6D01B4
92C24B
612584
F1FF8F
90DA0B
602404
90180B
90180B
600004
90000B
600004
600004
90000B
600004
600004
90000B
ENDCHAR
STARTCHAR 004E
ENCODING 78
SWIDTH 792 0
DWIDTH 22 0
BBX 18 21 2 0
BITMAP
900240
900240
6C0180
920240
6D0180
6D0180
92C240
612180
F1FBC0
90DA40
602580
901A40
901A40
600580
900240
600180
600180
900240
600180
600180
900240
ENDCHAR
STARTCHAR 004F
ENCODING 79
SWIDTH 792 0
DWIDTH 22 0
BBX 18 21 2 0
BITMAP
02D800
02D800
0D2400
12DA00
6C0580
6C0580
900240
600180
F003C0
900240
600180
900240
900240
600180
900240
6C0580
6C0580
12DA00
0D2400
0D2400
02D800
ENDCHAR
STARTCHAR 0050
ENCODING 80
SWIDTH 684 0
DWIDTH 19 0
BBX 15 21 2 0
BITMAP
92C0
92C0
6D20
92D8
6024
6024
901A
6004
F01E
901A
6004
901A
901A
6024
92D8
6D20
6D20
92C0
6000
6000
9000
ENDCHAR
STARTCHAR 0051
ENCODING 81
SWIDTH 792 0
DWIDTH 22 0
BBX 18 24 2 -3
BITMAP
02D800
02D800
0D2400
12DA00
6C0580
6C0580
900240
600180
F003C0
900240
600180
900240
900240
600180
900240
6C0580
6C0580
12DA00
0D2400
0D2400
02D800
002400
001A00
001A00
ENDCHAR
STARTCHAR 0052
ENCODING 82
SWIDTH 684 0
DWIDTH 19 0
BBX 15 21 2 0
BITMAP
92C0
92C0
6D20
92D8
6024
6024
901A
6004
F01E
901A
6004
901A
901A
6024
92D8
6D20
6D20
92D8
6024
6024
901A
ENDCHAR
STARTCHAR 0053
ENCODING 83
SWIDTH 684 0
DWIDTH 19 0
BBX 15 21 2 0
BITMAP
12D8
12D8
6D24
92DA
6004
6004
901A
6000
F2D8
92D8
6D24
12DA
12DA
0004
901A
6004
6004
92DA
6D24
6D24
12D8
ENDCHAR
STARTCHAR 0054
ENCODING 84
SWIDTH 684 0
DWIDTH 19 0
BBX 15 21 2 0
BITMAP
92DA
92DA
6D24
92DA
0100
0100
02C0
0100
03C0
02C0
0100
02C0
02C0
0100
02C0
0100
0100
02C0
0100
0100
02C0
ENDCHAR
STARTCHAR 0055
ENCODING 85
SWIDTH 792 0
DWIDTH 22 0
BBX 18 21 2 0
BITMAP
900240
900240
600180
900240
600180
600180
900240
600180
F003C0
900240
600180
900240
900240
600180
900240
6C0580
6C0580
12DA00
0D2400
0D2400
02D800
ENDCHAR
STARTCHAR 0056
ENCODING 86
SWIDTH 684 0
DWIDTH 19 0
BBX 15 21 2 0
BITMAP
901A
901A
6004
901A
6004
6004
901A
6004
F01E
901A
6004
901A
901A
6004
901A
6C24
6C24
12D8
0D20
0D20
02C0
ENDCHAR
STARTCHAR 0057
ENCODING 87
SWIDTH 1080 0
DWIDTH 30 0
BBX 26 21 2 0
BITMAP
901A0340
901A0340
60040080
901A0340
60040080
60040080
901A0340
60040080
F01E03C0
901A0340
60040080
901A0340
901A0340
60040080
901A0340
6C258480
6C258480
12DA4B00
0D21B400
0D21B400
02C04800
ENDCHAR
STARTCHAR 0058
ENCODING 88
SWIDTH 792 0
DWIDTH 22 0
BBX 18 21 2 0
BITMAP
900240
900240
600180
900240
600180
600180
900240
6C0580
7EDF80
12DA00
0D2400
12DA00
12DA00
6C0580
900240
600180
600180
900240
600180
600180
900240
ENDCHAR
STARTCHAR 0059
ENCODING 89
SWIDTH 684 0
DWIDTH 19 0
BBX 15 21 2 0
BITMAP
901A
901A
6004
901A
6004
6004
901A
6004
F01E
901A
6C24
12D8
12D8
0D20
02C0
0100
0100
02C0
0100
0100
02C0
ENDCHAR
STARTCHAR 005A
ENCODING 90
SWIDTH 684 0
DWIDTH 19 0
BBX 15 21 2 0
BITMAP
92DA
92DA
6D24
92DA
0024
0024
00D8
0120
03E0
02C0
0D00
1200
1200
6C00
9000
6000
6000
92DA
6D24
6D24
92DA
ENDCHAR
STARTCHAR 005B
ENCODING 91
SWIDTH 324 0
DWIDTH 9 0
BBX 7 32 2 -6
BITMAP
92
6C
92
92
60
90
90
60
90
60
60
90
60
F0
90
60
90
90
60
90
60
60
90
60
60
90
60
92
92
6C
92
92
ENDCHAR
STARTCHAR 005C
ENCODING 92
SWIDTH 396 0
DWIDTH 11 0
BBX 9 21 1 0
BITMAP
B000
B000
4000
B000
4800
4800
3000
4800
7E00
3600
0800
3600
3600
0900
0600
0900
0900
0680
0100
0100
0680
ENDCHAR
STARTCHAR 005D
ENCODING 93
SWIDTH 324 0
DWIDTH 9 0
BBX 7 32 1 -6
BITMAP
B6
48
B6
B6
08
36
36
08
36
08
08
36
08
3E
36
08
36
36
08
36
08
08
36
08
08
36
08
B6
B6
48
B6
B6
ENDCHAR
STARTCHAR 005F
ENCODING 95
SWIDTH 792 0
DWIDTH 22 0
BBX 21 4 1 -3
BITMAP
B692D8
496D20
B692D8
B692D8
ENDCHAR
STARTCHAR 0060
ENCODING 96
SWIDTH 324 0
DWIDTH 9 0
BBX 10 7 -2 22
BITMAP
9000
6800
6800
1600
0900
06C0
06C0
ENDCHAR
STARTCHAR 0061
ENCODING 97
SWIDTH 684 0
DWIDTH 19 0
BBX 15 21 2 0
BITMAP
12D8
12D8
6D24
92DA
6004
6004
901A
6004
F01E
901A
6004
92DA
92DA
6D24
92DA
6004
6004
901A
6004
6004
901A
ENDCHAR
STARTCHAR 0062
ENCODING 98
SWIDTH 684 0
DWIDTH 19 0
BBX 15 21 2 0
BITMAP
92D8
92D8
6D24
92DA
6004
6004
901A
6024
F2FC
92D8
6D20
92D8
92D8
6024
901A
6004
6004
92DA
6D24
6D24
92D8
ENDCHAR
STARTCHAR 0063
ENCODING 99
SWIDTH 684 0
DWIDTH 19 0
BBX 15 21 2 0
BITMAP
12D8
12D8
6D24
92DA
6004
6004
901A
6004
F01E
901A
6000
9000
9000
6000
901A
6004
6004
92DA
6D24
6D24
12D8
ENDCHAR
STARTCHAR 0064
ENCODING 100
SWIDTH 684 0
DWIDTH 19 0
BBX 15 21 2 0
BITMAP
92D8
92D8
6D24
92DA
6004
6004
901A
6004
F01E
901A
6004
901A
901A
6004
901A
6004
6004
92DA
6D24
6D24
92D8
ENDCHAR
STARTCHAR 0065
ENCODING 101
SWIDTH 684 0
DWIDTH 19 0
BBX 15 21 2 0
BITMAP
12DA
12DA
6D24
92DA
6000
6000
9000
6000
F2D8
92D8
6D20
92D8
92D8
6000
9000
6000
6000
92DA
6D24
6D24
12DA
ENDCHAR
STARTCHAR 0066
ENCODING 102
SWIDTH 684 0
DWIDTH 19 0
BBX 15 21 2 0
BITMAP
12DA
12DA
6D24
92DA
6000
6000
9000
6000
F2D8
92D8
6D20
92D8
92D8
6000
9000
6000
6000
9000
6000
6000
9000
ENDCHAR
STARTCHAR 0067
ENCODING 103
SWIDTH 684 0
DWIDTH 19 0
BBX 15 21 2 0
BITMAP
12DA
12DA
6D24
92DA
6000
6000
9000
6000
F0DA
90DA
6024
90DA
90DA
6004
901A
6004
6004
92DA
6D24
6D24
12D8
ENDCHAR
STARTCHAR 0068
ENCODING 104
SWIDTH 684 0
DWIDTH 19 0
BBX 15 21 2 0
BITMAP
901A
901A
6004
901A
6004
6004
901A
6004
F2DE
92DA
6D24
92DA
92DA
6004
901A
6004
6004
901A
6004
6004
901A
ENDCHAR
STARTCHAR 0069
ENCODING 105
SWIDTH 288 0
DWIDTH 8 0
BBX 4 21 2 0
BITMAP
90
90
60
90
60
60
90
60
F0
90
60
90
90
60
90
60
60
90
60
60
90
ENDCHAR
STARTCHAR 006A
ENCODING 106
SWIDTH 468 0
DWIDTH 13 0
BBX 10 21 2 0
BITMAP
02C0
02C0
0100
02C0
0100
0100
02C0
0100
03C0
02C0
0100
02C0
02C0
0100
02C0
0100
0100
92C0
6D00
6D00
9200
ENDCHAR
STARTCHAR 006B
ENCODING 107
SWIDTH 684 0
DWIDTH 19 0
BBX 15 21 2 0
BITMAP
901A
901A
6004
901A
6004
6004
901A
6024
F2FC
92D8
6D20
92D8
92D8
6024
901A
6004
6004
901A
6004
6004
901A
ENDCHAR
STARTCHAR 006C
ENCODING 108
SWIDTH 576 0
DWIDTH 16 0
BBX 13 21 2 0
BITMAP
9000
9000
6000
9000
6000
6000
9000
6000
F000
9000
6000
9000
9000
6000
9000
6000
6000
92D8
6D20
6D20
12D8
ENDCHAR
STARTCHAR 006D
ENCODING 109
SWIDTH 900 0
DWIDTH 25 0
BBX 21 21 2 0
BITMAP
900048
900048
6C01B0
920248
6D05B0
6D05B0
92DA48
612430
F1FC78
90D848
602030
900048
900048
600030
900048
600030
600030
900048
600030
600030
900048
ENDCHAR
STARTCHAR 006E
ENCODING 110
SWIDTH 684 0
DWIDTH 19 0
BBX 15 21 2 0
BITMAP
901A
901A
6C04
921A
6D04
6D04
92DA
6124
F1FE
90DA
6024
901A
901A
6004
901A
6004
6004
901A
6004
6004
901A
ENDCHAR
STARTCHAR 006F
ENCODING 111
SWIDTH 684 0
DWIDTH 19 0
BBX 15 21 2 0
BITMAP
12D8
12D8
6D24
92DA
6004
6004
901A
6004
F01E
901A
6004
901A
901A
6004
901A
6004
6004
92DA
6D24
6D24
12D8
ENDCHAR
STARTCHAR 0070
ENCODING 112
SWIDTH 684 0
DWIDTH 19 0
BBX 15 21 2 0
BITMAP
92D8
92D8
6D24
92DA
6004
6004
901A
6004
F01E
901A
6004
92DA
92DA
6D24
92D8
6000
6000
9000
6000
6000
9000
ENDCHAR
STARTCHAR 0071
ENCODING 113
SWIDTH 684 0
DWIDTH 19 0
BBX 15 24 2 -3
BITMAP
12D8
12D8
6D24
92DA
6004
6004
901A
6004
F01E
901A
6004
901A
901A
6004
901A
6004
6004
92DA
6D24
6D24
12D8
0024
001A
001A
ENDCHAR
STARTCHAR 0072
ENCODING 114
SWIDTH 684 0
DWIDTH 19 0
BBX 15 21 2 0
BITMAP
92D8
92D8
6D24
92DA
6004
6004
901A
6004
F01E
901A
6004
92DA
92DA
6D24
92D8
6024
6024
901A
6004
6004
901A
ENDCHAR
STARTCHAR 0073
ENCODING 115
SWIDTH 684 0
DWIDTH 19 0
BBX 15 21 2 0
BITMAP
12D8
12D8
6D24
92DA
6004
6004
901A
6000
F2D8
92D8
6D24
12DA
12DA
0004
901A
6004
6004
92DA
6D24
6D24
12D8
ENDCHAR
STARTCHAR 0074
ENCODING 116
SWIDTH 684 0
DWIDTH 19 0
BBX 15 21 2 0
BITMAP
92DA
92DA
6D24
92DA
0100
0100
02C0
0100
03C0
02C0
0100
02C0
02C0
0100
02C0
0100
0100
02C0
0100
0100
02C0
ENDCHAR
STARTCHAR 0075
ENCODING 117
SWIDTH 684 0
DWIDTH 19 0
BBX 15 21 2 0
BITMAP
901A
901A
6004
901A
6004
6004
901A
6004
F01E
901A
6004
901A
901A
6004
901A
6004
6004
92DA
6D24
6D24
12D8
ENDCHAR
STARTCHAR 0076
ENCODING 118
SWIDTH 684 0
DWIDTH 19 0
BBX 15 21 2 0
BITMAP
901A
901A
6004
901A
6004
6004
901A
6004
F01E
901A
6004
901A
901A
6004
901A
6C24
6C24
12D8
0D20
0D20
02C0
ENDCHAR
STARTCHAR 0077
ENCODING 119
SWIDTH 1080 0
DWIDTH 30 0
BBX 26 21 2 0
BITMAP
901A0340
901A0340
60040080
901A0340
60040080
60040080
901A0340
60040080
F01E03C0
901A0340
60040080
901A0340
901A0340
60040080
901A0340
60258080
60258080
92DA4B40
6D21B480
6D21B480
12C04B00
ENDCHAR
STARTCHAR 0078
ENCODING 120
SWIDTH 684 0
DWIDTH 19 0
BBX 15 21 2 0
BITMAP
901A
901A
6004
901A
6004
6004
901A
6C24
7EFC
12D8
0D20
12D8
12D8
6C24
901A
6004
6004
901A
6004
6004
901A
ENDCHAR
STARTCHAR 0079
ENCODING 121
SWIDTH 684 0
DWIDTH 19 0
BBX 15 21 2 0
BITMAP
901A
901A
6004
901A
6004
6004
901A
6004
F01E
901A
6004
92DA
92DA
6D24
12D8
0100
0100
02C0
0100
0100
02C0
ENDCHAR
STARTCHAR 007A
ENCODING 122
SWIDTH 684 0
DWIDTH 19 0
BBX 15 21 2 0
BITMAP
92DA
92DA
6D24
92DA
0004
0004
001A
0004
12DE
12DA
6D24
92D8
92D8
6000
9000
6000
6000
92DA
6D24
6D24
92DA
ENDCHAR
STARTCHAR 007B
ENCODING 123
SWIDTH 396 0
DWIDTH 11 0
BBX 11 32 1 -6
BITMAP
0160
0680
0900
0900
0600
0900
0900
0600
0900
0600
0600
0900
3600
7E00
4800
B000
4800
4800
3600
0900
0600
0600
0900
0600
0600
0900
0600
0900
0900
0680
0160
0160
ENDCHAR
STARTCHAR 007C
ENCODING 124
SWIDTH 288 0
DWIDTH 8 0
BBX 4 27 2 -3
BITMAP
90
90
60
90
90
60
90
60
60
90
60
F0
90
60
90
90
60
90
60
60
90
60
60
90
60
90
90
ENDCHAR
STARTCHAR 007D
ENCODING 125
SWIDTH 396 0
DWIDTH 11 0
BBX 11 32 -1 -6
BITMAP
D000
2C00
1200
1200
0C00
1200
1200
0C00
1200
0C00
0C00
1200
0D80
0FC0
0240
01A0
0240
0240
0D80
1200
0C00
0C00
1200
0C00
0C00
1200
0C00
1200
1200
2C00
D000
D000
ENDCHAR
STARTCHAR 00A1
ENCODING 161
SWIDTH 288 0
DWIDTH 8 0
BBX 4 21 2 0
BITMAP
90
90
60
90
00
00
00
60
F0
90
60
90
90
60
90
60
60
90
60
60
90
ENDCHAR
STARTCHAR 00A2
ENCODING 162
SWIDTH 684 0
DWIDTH 19 0
BBX 15 27 2 -3
BITMAP
02C0
02C0
0100
12D8
12D8
6D24
92DA
6004
6004
901A
6004
F01E
901A
6000
9000
9000
6000
901A
6004
6004
92DA
6D24
6D24
12D8
0100
02C0
02C0
ENDCHAR
STARTCHAR 00A3
ENCODING 163
SWIDTH 684 0
DWIDTH 19 0
BBX 15 24 2 0
BITMAP
02D8
02D8
0D24
12DA
12DA
0C04
121A
0C00
0C00
1200
0C00
9ED8
92D8
6D20
92D8
92D8
0C00
1200
0C00
0C00
92DA
6D24
6D24
92DA
ENDCHAR
STARTCHAR 00A4
ENCODING 164
SWIDTH 792 0
DWIDTH 22 0
BBX 18 18 2 6
BITMAP
120000
120000
0C0000
12DA40
12DA40
0D2580
12DA40
0C0400
0C0400
121A00
0C0400
9EDE00
92DA00
6D2400
92DA00
92DA00
000400
001A00
ENDCHAR
STARTCHAR 00A5
ENCODING 165
SWIDTH 684 0
DWIDTH 19 0
BBX 15 29 2 -3
BITMAP
901A
6004
901A
901A
6004
901A
901A
6C24
12D8
0D20
0D20
02C0
0100
93DA
92DA
6D24
92DA
92DA
0100
02C0
0100
0100
92DA
6D24
6D24
92DA
0100
02C0
02C0
ENDCHAR
STARTCHAR 00A6
ENCODING 166
SWIDTH 288 0
DWIDTH 8 0
BBX 4 27 2 -3
BITMAP
90
90
60
90
90
60
90
60
60
90
00
00
00
00
00
00
00
90
60
60
90
60
60
90
60
90
90
ENDCHAR
STARTCHAR 00A7
ENCODING 167
SWIDTH 684 0
DWIDTH 19 0
BBX 15 32 2 -6
BITMAP
02DA
0D24
12DA
12DA
6C00
9000
9000
6000
92C0
6D20
6D20
92D8
6024
F03E
901A
6004
901A
901A
6C04
12DA
0D24
0D24
02DA
0004
0004
001A
0024
92D8
92D8
6D20
92C0
92C0
ENDCHAR
STARTCHAR 00A8
ENCODING 168
SWIDTH 396 0
DWIDTH 11 0
BBX 9 4 1 22
BITMAP
B680
4100
B680
B680
ENDCHAR
STARTCHAR 00AB
ENCODING 171
SWIDTH 828 0
DWIDTH 23 0
BBX 19 15 1 3
BITMAP
016120
0682C0
0682C0
090D00
361200
7E7E00
486C00
B09000
486C00
486C00
361200
090D00
0682C0
0682C0
016120
ENDCHAR
STARTCHAR 00AD
ENCODING 173
SWIDTH 468 0
DWIDTH 13 0
BBX 12 5 1 8
BITMAP
B690
B690
4960
B690
B690
ENDCHAR
STARTCHAR 00AF
ENCODING 175
SWIDTH 396 0
DWIDTH 11 0
BBX 9 4 1 22
BITMAP
B680
4900
B680
B680
ENDCHAR
STARTCHAR 00B0
ENCODING 176
SWIDTH 468 0
DWIDTH 13 0
BBX 12 13 1 11
BITMAP
3680
3680
4960
B690
B690
4060
B090
4060
4060
B690
4960
7FE0
3680
ENDCHAR
STARTCHAR 00B4
ENCODING 180
SWIDTH 324 0
DWIDTH 9 0
BBX 9 7 1 22
BITMAP
0680
0900
0900
3600
4800
B000
B000
ENDCHAR
STARTCHAR 00B6
ENCODING 182
SWIDTH 684 0
DWIDTH 19 0
BBX 15 21 2 0
BITMAP
12DA
12DA
6D04
92DA
6D04
6D04
92DA
6D04
FFDE
92DA
6D04
12DA
12DA
0104
02DA
0104
0104
02DA
0104
0104
02DA
ENDCHAR
STARTCHAR 00B7
ENCODING 183
SWIDTH 180 0
DWIDTH 5 0
BBX 4 5 1 8
BITMAP
B0
B0
40
B0
B0
ENDCHAR
STARTCHAR 00B8
ENCODING 184
SWIDTH 216 0
DWIDTH 6 0
BBX 7 6 -1 -6
BITMAP
0C
D2
D2
2C
D0
D0
ENDCHAR
STARTCHAR 00BB
ENCODING 187
SWIDTH 828 0
DWIDTH 23 0
BBX 20 15 3 3
BITMAP
D84800
243400
243400
1A0B00
058480
07C7E0
024360
01B090
024360
024360
058480
1A0B00
243400
243400
D84800
ENDCHAR
STARTCHAR 00BF
ENCODING 191
SWIDTH 684 0
DWIDTH 19 0
BBX 15 21 2 0
BITMAP
02C0
02C0
0100
02C0
0000
0000
02C0
0100
13C0
12C0
6D00
9200
9200
6000
901A
6004
6004
92DA
6D24
6D24
12D8
ENDCHAR
STARTCHAR 00C0
ENCODING 192
SWIDTH 684 0
DWIDTH 19 0
BBX 15 29 2 0
BITMAP
9000
6C00
6C00
1200
0D00
02C0
02C0
0000
02C0
02C0
0D20
12D8
6C24
6C24
901A
6004
F01E
901A
6004
92DA
92DA
6D24
92DA
6004
6004
901A
6004
6004
901A
ENDCHAR
STARTCHAR 00C1
ENCODING 193
SWIDTH 684 0
DWIDTH 19 0
BBX 15 29 2 0
BITMAP
0024
00D8
00D8
0120
02C0
0D00
0D00
0000
02C0
02C0
0D20
12D8
6C24
6C24
901A
6004
F01E
901A
6004
92DA
92DA
6D24
92DA
6004
6004
901A
6004
6004
901A
ENDCHAR
STARTCHAR 00C2
ENCODING 194
SWIDTH 684 0
DWIDTH 19 0
BBX 15 29 2 0
BITMAP
02C0
0D20
0D20
12D8
0C20
12D8
12D8
0000
02C0
02C0
0D20
12D8
6C24
6C24
901A
6004
F01E
901A
6004
92DA
92DA
6D24
92DA
6004
6004
901A
6004
6004
901A
ENDCHAR
STARTCHAR 00C3
ENCODING 195
SWIDTH 684 0
DWIDTH 19 0
BBX 15 29 2 0
BITMAP
121A
6D04
6D04
92DA
6124
90D8
90D8
0000
02C0
02C0
0D20
12D8
6C24
6C24
901A
6004
F01E
901A
6004
92DA
92DA
6D24
92DA
6004
6004
901A
6004
6004
901A
ENDCHAR
STARTCHAR 00C4
ENCODING 196
SWIDTH 684 0
DWIDTH 19 0
BBX 15 26 2 0
BITMAP
12D8
0C20
12D8
12D8
0000
02C0
02C0
0D20
12D8
6C24
6C24
901A
6004
F01E
901A
6004
92DA
92DA
6D24
92DA
6004
6004
901A
6004
6004
901A
ENDCHAR
STARTCHAR 00C5
ENCODING 197
SWIDTH 684 0
DWIDTH 19 0
BBX 15 35 2 0
BITMAP
0D20
0D20
12D8
6D24
1018
1018
6C24
1018
1018
6D24
12D8
0D20
0D20
0000
02C0
02C0
0D20
12D8
6C24
6C24
901A
6004
F01E
901A
6004
92DA
92DA
6D24
92DA
6004
6004
901A
6004
6004
901A
ENDCHAR
STARTCHAR 00C6
ENCODING 198
SWIDTH 1080 0
DWIDTH 30 0
BBX 26 21 2 0
BITMAP
02DA4B40
02DA4B40
0D25B480
12DA4B40
6C040000
6C040000
901A0000
60040000
F01E4B00
901A4B00
6005B400
92DA4B00
92DA4B00
6D240000
92DA0000
60040000
60040000
901A4B40
6005B480
6005B480
90024B40
ENDCHAR
STARTCHAR 00C7
ENCODING 199
SWIDTH 792 0
DWIDTH 22 0
BBX 18 27 2 -6
BITMAP
02D800
02D800
0D2400
12DA00
6C0580
6C0580
900240
600180
F003C0
900240
600000
900000
900000
600000
900240
6C0580
6C0580
12DA00
0D2400
0D2400
02D800
002000
02D800
02D800
012000
02C000
02C000
ENDCHAR
STARTCHAR 00C8
ENCODING 200
SWIDTH 684 0
DWIDTH 19 0
BBX 15 29 2 0
BITMAP
9000
6C00
6C00
1200
0D00
02C0
02C0
0000
02DA
02DA
0D24
12DA
6C00
6C00
9000
6000
F2D8
92D8
6D20
92D8
92D8
6000
9000
6C00
6C00
12DA
0D24
0D24
02DA
ENDCHAR
STARTCHAR 00C9
ENCODING 201
SWIDTH 684 0
DWIDTH 19 0
BBX 15 29 2 0
BITMAP
0024
00D8
00D8
0120
02C0
0D00
0D00
0000
02DA
02DA
0D24
12DA
6C00
6C00
9000
6000
F2D8
92D8
6D20
92D8
92D8
6000
9000
6C00
6C00
12DA
0D24
0D24
02DA
ENDCHAR
STARTCHAR 00CA
ENCODING 202
SWIDTH 684 0
DWIDTH 19 0
BBX 15 29 2 0
BITMAP
02C0
0D20
0D20
12D8
0C20
12D8
12D8
0000
02DA
02DA
0D24
12DA
6C00
6C00
9000
6000
F2D8
92D8
6D20
92D8
92D8
6000
9000
6C00
6C00
12DA
0D24
0D24
02DA
ENDCHAR
STARTCHAR 00CB
ENCODING 203
SWIDTH 684 0
DWIDTH 19 0
BBX 15 26 2 0
BITMAP
12D8
0C20
12D8
12D8
0000
02DA
02DA
0D24
12DA
6C00
6C00
9000
6000
F2D8
92D8
6D20
92D8
92D8
6000
9000
6C00
6C00
12DA
0D24
0D24
02DA
ENDCHAR
STARTCHAR 00CC
ENCODING 204
SWIDTH 468 0
DWIDTH 13 0
BBX 13 29 -1 0
BITMAP
D000
2C00
2C00
1200
0D80
0240
0240
0000
1258
1258
0DA0
1258
0180
0180
0240
0180
03C0
0240
0180
0240
0240
0180
0240
0180
0180
1258
0DA0
0DA0
1258
ENDCHAR
STARTCHAR 00CD
ENCODING 205
SWIDTH 468 0
DWIDTH 13 0
BBX 11 29 2 0
BITMAP
0120
02C0
02C0
0D00
1200
6C00
6C00
0000
92C0
92C0
6D00
92C0
0C00
0C00
1200
0C00
1E00
1200
0C00
1200
1200
0C00
1200
0C00
0C00
92C0
6D00
6D00
92C0
ENDCHAR
STARTCHAR 00CE
ENCODING 206
SWIDTH 468 0
DWIDTH 13 0
BBX 10 29 2 0
BITMAP
1200
6D00
6D00
92C0
6100
92C0
92C0
0000
92C0
92C0
6D00
92C0
0C00
0C00
1200
0C00
1E00
1200
0C00
1200
1200
0C00
1200
0C00
0C00
92C0
6D00
6D00
92C0
ENDCHAR
STARTCHAR 00CF
ENCODING 207
SWIDTH 468 0
DWIDTH 13 0
BBX 10 26 2 0
BITMAP
92C0
6100
92C0
92C0
0000
92C0
92C0
6D00
92C0
0C00
0C00
1200
0C00
1E00
1200
0C00
1200
1200
0C00
1200
0C00
0C00
92C0
6D00
6D00
92C0
ENDCHAR
STARTCHAR 00D0
ENCODING 208
SWIDTH 828 0
DWIDTH 23 0
BBX 21 21 1 0
BITMAP
369200
369200
096D00
3692C0
080120
080120
3600D8
080020
BE80F8
B680D8
490020
B680D8
B680D8
080020
3600D8
080120
080120
3692C0
096D00
096D00
369200
ENDCHAR
STARTCHAR 00D1
ENCODING 209
SWIDTH 792 0
DWIDTH 22 0
BBX 18 29 2 0
BITMAP
0D0580
12C200
12C200
6D2580
10DA00
6C2400
6C2400
000000
900240
900240
6C0180
920240
6D0180
6D0180
92C240
612180
F1FBC0
90DA40
602580
901A40
901A40
600580
900240
600180
600180
900240
600180
600180
900240
ENDCHAR
STARTCHAR 00D2
ENCODING 210
SWIDTH 792 0
DWIDTH 22 0
BBX 18 29 2 0
BITMAP
6C0000
120000
120000
0D0000
02C000
012000
012000
000000
02D800
02D800
0D2400
12DA00
6C0580
6C0580
900240
600180
F003C0
900240
600180
900240
900240
600180
900240
6C0580
6C0580
12DA00
0D2400
0D2400
02D800
ENDCHAR
STARTCHAR 00D3
ENCODING 211
SWIDTH 792 0
DWIDTH 22 0
BBX 18 29 2 0
BITMAP
001A00
002400
002400
00D800
012000
02C000
02C000
000000
02D800
02D800
0D2400
12DA00
6C0580
6C0580
900240
600180
F003C0
900240
600180
900240
900240
600180
900240
6C0580
6C0580
12DA00
0D2400
0D2400
02D800
ENDCHAR
STARTCHAR 00D4
ENCODING 212
SWIDTH 792 0
DWIDTH 22 0
BBX 18 29 2 0
BITMAP
012000
02D800
02D800
0D2400
021800
0D2400
0D2400
000000
02D800
02D800
0D2400
12DA00
6C0580
6C0580
900240
600180
F003C0
900240
600180
900240
900240
600180
900240
6C0580
6C0580
12DA00
0D2400
0D2400
02D800
ENDCHAR
STARTCHAR 00D5
ENCODING 213
SWIDTH 792 0
DWIDTH 22 0
BBX 18 29 2 0
BITMAP
0D0580
12C200
12C200
6D2580
10DA00
6C2400
6C2400
000000
02D800
02D800
0D2400
12DA00
6C0580
6C0580
900240
600180
F003C0
900240
600180
900240
900240
600180
900240
6C0580
6C0580
12DA00
0D2400
0D2400
02D800
ENDCHAR
STARTCHAR 00D6
ENCODING 214
SWIDTH 792 0
DWIDTH 22 0
BBX 18 26 2 0
BITMAP
0D2400
021800
0D2400
0D2400
000000
02D800
02D800
0D2400
12DA00
6C0580
6C0580
900240
600180
F003C0
900240
600180
900240
900240
600180
900240
6C0580
6C0580
12DA00
0D2400
0D2400
02D800
ENDCHAR
STARTCHAR 00D7
ENCODING 215
SWIDTH 684 0
DWIDTH 19 0
BBX 15 16 2 3
BITMAP
6004
901A
6C24
6C24
12D8
0D20
0FE0
02C0
0D20
12D8
12D8
6C24
901A
6004
6004
901A
ENDCHAR
STARTCHAR 00D8
ENCODING 216
SWIDTH 900 0
DWIDTH 25 0
BBX 23 21 1 0
BITMAP
009200
009200
016D00
0692C0
090120
090120
3600D8
080020
BE92FA
B692DA
496D24
B692DA
B692DA
080020
3600D8
090120
090120
0692C0
016D00
016D00
009200
ENDCHAR
STARTCHAR 00D9
ENCODING 217
SWIDTH 792 0
DWIDTH 22 0
BBX 18 29 2 0
BITMAP
6C0000
120000
120000
0D0000
02C000
012000
012000
000000
900240
900240
600180
900240
600180
600180
900240
600180
F003C0
900240
600180
900240
900240
600180
900240
6C0580
6C0580
12DA00
0D2400
0D2400
02D800
ENDCHAR
STARTCHAR 00DA
ENCODING 218
SWIDTH 792 0
DWIDTH 22 0
BBX 18 29 2 0
BITMAP
001A00
002400
002400
00D800
012000
02C000
02C000
000000
900240
900240
600180
900240
600180
600180
900240
600180
F003C0
900240
600180
900240
900240
600180
900240
6C0580
6C0580
12DA00
0D2400
0D2400
02D800
ENDCHAR
STARTCHAR 00DB
ENCODING 219
SWIDTH 792 0
DWIDTH 22 0
BBX 18 29 2 0
BITMAP
012000
02D800
02D800
0D2400
021800
0D2400
0D2400
000000
900240
900240
600180
900240
600180
600180
900240
600180
F003C0
900240
600180
900240
900240
600180
900240
6C0580
6C0580
12DA00
0D2400
0D2400
02D800
ENDCHAR
STARTCHAR 00DC
ENCODING 220
SWIDTH 792 0
DWIDTH 22 0
BBX 18 26 2 0
BITMAP
0D2400
021800
0D2400
0D2400
000000
900240
900240
600180
900240
600180
600180
900240
600180
F003C0
900240
600180
900240
900240
600180
900240
6C0580
6C0580
12DA00
0D2400
0D2400
02D800
ENDCHAR
STARTCHAR 00DD
ENCODING 221
SWIDTH 684 0
DWIDTH 19 0
BBX 15 29 2 0
BITMAP
0024
00D8
00D8
0120
02C0
0D00
0D00
0000
901A
901A
6004
901A
6004
6004
901A
6004
F01E
901A
6C24
12D8
12D8
0D20
02C0
0100
0100
02C0
0100
0100
02C0
ENDCHAR
STARTCHAR 00DE
ENCODING 222
SWIDTH 684 0
DWIDTH 19 0
BBX 15 21 2 0
BITMAP
9000
9000
6000
92D8
6D24
6D24
92DA
6004
F01E
901A
6004
901A
901A
6004
92DA
6D24
6D24
92D8
6000
6000
9000
ENDCHAR
STARTCHAR 00DF
ENCODING 223
SWIDTH 684 0
DWIDTH 19 0
BBX 15 21 2 0
BITMAP
12D8
12D8
6D24
92DA
6004
6004
901A
6024
F2FC
92D8
6124
92DA
92DA
6004
901A
6004
6004
92DA
6124
6124
92D8
ENDCHAR
STARTCHAR 00E0
ENCODING 224
SWIDTH 684 0
DWIDTH 19 0
BBX 15 29 2 0
BITMAP
9000
6C00
6C00
1200
0D00
02C0
02C0
0000
12D8
12D8
6D24
92DA
6004
6004
901A
6004
F01E
901A
6004
92DA
92DA
6D24
92DA
6004
6004
901A
6004
6004
901A
ENDCHAR
STARTCHAR 00E1
ENCODING 225
SWIDTH 684 0
DWIDTH 19 0
BBX 15 29 2 0
BITMAP
0024
00D8
00D8
0120
02C0
0D00
0D00
0000
12D8
12D8
6D24
92DA
6004
6004
901A
6004
F01E
901A
6004
92DA
92DA
6D24
92DA
6004
6004
901A
6004
6004
901A
ENDCHAR
STARTCHAR 00E2
ENCODING 226
SWIDTH 684 0
DWIDTH 19 0
BBX 15 29 2 0
BITMAP
02C0
0D20
0D20
12D8
0C20
12D8
12D8
0000
12D8
12D8
6D24
92DA
6004
6004
901A
6004
F01E
901A
6004
92DA
92DA
6D24
92DA
6004
6004
901A
6004
6004
901A
ENDCHAR
STARTCHAR 00E3
ENCODING 227
SWIDTH 684 0
DWIDTH 19 0
BBX 15 29 2 0
BITMAP
121A
6D04
6D04
92DA
6124
90D8
90D8
0000
12D8
12D8
6D24
92DA
6004
6004
901A
6004
F01E
901A
6004
92DA
92DA
6D24
92DA
6004
6004
901A
6004
6004
901A
ENDCHAR
STARTCHAR 00E4
ENCODING 228
SWIDTH 684 0
DWIDTH 19 0
BBX 15 26 2 0
BITMAP
12D8
0C20
12D8
12D8
0000
12D8
12D8
6D24
92DA
6004
6004
901A
6004
F01E
901A
6004
92DA
92DA
6D24
92DA
6004
6004
901A
6004
6004
901A
ENDCHAR
STARTCHAR 00E5
ENCODING 229
SWIDTH 684 0
DWIDTH 19 0
BBX 15 35 2 0
BITMAP
0D20
0D20
12D8
6D24
1018
1018
6C24
1018
1018
6D24
12D8
0D20
0D20
0000
12D8
12D8
6D24
92DA
6004
6004
901A
6004
F01E
901A
6004
92DA
92DA
6D24
92DA
6004
6004
901A
6004
6004
901A
ENDCHAR
STARTCHAR 00E6
ENCODING 230
SWIDTH 1080 0
DWIDTH 30 0
BBX 26 21 2 0
BITMAP
12DA4B40
12DA4B40
6D25B480
92DA4B40
60040000
60040000
901A0000
60040000
F01E4B00
901A4B00
6005B400
92DA4B00
92DA4B00
6D240000
92DA0000
60040000
60040000
901A4B40
6005B480
6005B480
90024B40
ENDCHAR
STARTCHAR 00E7
ENCODING 231
SWIDTH 684 0
DWIDTH 19 0
BBX 15 27 2 -6
BITMAP
12D8
12D8
6D24
92DA
6004
6004
901A
6004
F01E
901A
6000
9000
9000
6000
901A
6004
6004
92DA
6D24
6D24
12D8
0100
12C0
12C0
0D00
1200
1200
ENDCHAR
STARTCHAR 00E8
ENCODING 232
SWIDTH 684 0
DWIDTH 19 0
BBX 15 29 2 0
BITMAP
9000
6C00
6C00
1200
0D00
02C0
02C0
0000
12DA
12DA
6D24
92DA
6000
6000
9000
6000
F2D8
92D8
6D20
92D8
92D8
6000
9000
6000
6000
92DA
6D24
6D24
12DA
ENDCHAR
STARTCHAR 00E9
ENCODING 233
SWIDTH 684 0
DWIDTH 19 0
BBX 15 29 2 0
BITMAP
0024
00D8
00D8
0120
02C0
0D00
0D00
0000
12DA
12DA
6D24
92DA
6000
6000
9000
6000
F2D8
92D8
6D20
92D8
92D8
6000
9000
6000
6000
92DA
6D24
6D24
12DA
ENDCHAR
STARTCHAR 00EA
ENCODING 234
SWIDTH 684 0
DWIDTH 19 0
BBX 15 29 2 0
BITMAP
02C0
0D20
0D20
12D8
0C20
12D8
12D8
0000
12DA
12DA
6D24
92DA
6000
6000
9000
6000
F2D8
92D8
6D20
92D8
92D8
6000
9000
6000
6000
92DA
6D24
6D24
12DA
ENDCHAR
STARTCHAR 00EB
ENCODING 235
SWIDTH 684 0
DWIDTH 19 0
BBX 15 26 2 0
BITMAP
12D8
0C20
12D8
12D8
0000
12DA
12DA
6D24
92DA
6000
6000
9000
6000
F2D8
92D8
6D20
92D8
92D8
6000
9000
6000
6000
92DA
6D24
6D24
12DA
ENDCHAR
STARTCHAR 00EC
ENCODING 236
SWIDTH 288 0
DWIDTH 8 0
BBX 9 29 -3 0
BITMAP
B000
4800
4800
3400
0B00
0480
0480
0000
0480
0480
0300
0480
0300
0300
0480
0300
0780
0480
0300
0480
0480
0300
0480
0300
0300
0480
0300
0300
0480
ENDCHAR
STARTCHAR 00ED
ENCODING 237
SWIDTH 288 0
DWIDTH 8 0
BBX 9 29 1 0
BITMAP
0680
0900
0900
3600
4800
B000
B000
0000
4800
4800
3000
4800
3000
3000
4800
3000
7800
4800
3000
4800
4800
3000
4800
3000
3000
4800
3000
3000
4800
ENDCHAR
STARTCHAR 00EE
ENCODING 238
SWIDTH 288 0
DWIDTH 8 0
BBX 10 29 -1 0
BITMAP
1200
2D80
2D80
D240
2180
D240
D240
0000
1200
1200
0C00
1200
0C00
0C00
1200
0C00
1E00
1200
0C00
1200
1200
0C00
1200
0C00
0C00
1200
0C00
0C00
1200
ENDCHAR
STARTCHAR 00EF
ENCODING 239
SWIDTH 288 0
DWIDTH 8 0
BBX 10 26 -1 0
BITMAP
D240
2180
D240
D240
0000
1200
1200
0C00
1200
0C00
0C00
1200
0C00
1E00
1200
0C00
1200
1200
0C00
1200
0C00
0C00
1200
0C00
0C00
1200
ENDCHAR
STARTCHAR 00F0
ENCODING 240
SWIDTH 720 0
DWIDTH 20 0
BBX 18 21 1 0
BITMAP
369200
369200
096D00
3692C0
080100
080100
3602C0
080100
BE83C0
B682C0
490100
B682C0
B682C0
080100
3602C0
080100
080100
3692C0
096D00
096D00
369200
ENDCHAR
STARTCHAR 00F1
ENCODING 241
SWIDTH 684 0
DWIDTH 19 0
BBX 15 29 2 0
BITMAP
121A
6D04
6D04
92DA
6124
90D8
90D8
0000
901A
901A
6C04
921A
6D04
6D04
92DA
6124
F1FE
90DA
6024
901A
901A
6004
901A
6004
6004
901A
6004
6004
901A
ENDCHAR
STARTCHAR 00F2
ENCODING 242
SWIDTH 684 0
DWIDTH 19 0
BBX 15 29 2 0
BITMAP
9000
6C00
6C00
1200
0D00
02C0
02C0
0000
12D8
12D8
6D24
92DA
6004
6004
901A
6004
F01E
901A
6004
901A
901A
6004
901A
6004
6004
92DA
6D24
6D24
12D8
ENDCHAR
STARTCHAR 00F3
ENCODING 243
SWIDTH 684 0
DWIDTH 19 0
BBX 15 29 2 0
BITMAP
0024
00D8
00D8
0120
02C0
0D00
0D00
0000
12D8
12D8
6D24
92DA
6004
6004
901A
6004
F01E
901A
6004
901A
901A
6004
901A
6004
6004
92DA
6D24
6D24
12D8
ENDCHAR
STARTCHAR 00F4
ENCODING 244
SWIDTH 684 0
DWIDTH 19 0
BBX 15 29 2 0
BITMAP
02C0
0D20
0D20
12D8
0C20
12D8
12D8
0000
12D8
12D8
6D24
92DA
6004
6004
901A
6004
F01E
901A
6004
901A
901A
6004
901A
6004
6004
92DA
6D24
6D24
12D8
ENDCHAR
STARTCHAR 00F5
ENCODING 245
SWIDTH 684 0
DWIDTH 19 0
BBX 15 29 2 0
BITMAP
121A
6D04
6D04
92DA
6124
90D8
90D8
0000
12D8
12D8
6D24
92DA
6004
6004
901A
6004
F01E
901A
6004
901A
901A
6004
901A
6004
6004
92DA
6D24
6D24
12D8
ENDCHAR
STARTCHAR 00F6
ENCODING 246
SWIDTH 684 0
DWIDTH 19 0
BBX 15 26 2 0
BITMAP
12D8
0C20
12D8
12D8
0000
12D8
12D8
6D24
92DA
6004
6004
901A
6004
F01E
901A
6004
901A
901A
6004
901A
6004
6004
92DA
6D24
6D24
12D8
ENDCHAR
STARTCHAR 00F7
ENCODING 247
SWIDTH 684 0
DWIDTH 19 0
BBX 15 15 2 3
BITMAP
02C0
0100
0100
02C0
0000
92DA
92DA
6D24
92DA
92DA
0000
02C0
0100
0100
02C0
ENDCHAR
STARTCHAR 00F8
ENCODING 248
SWIDTH 792 0
DWIDTH 22 0
BBX 21 21 1 0
BITMAP
069200
069200
096D00
3692C0
080100
080100
3602C0
080100
BE93D8
B692D8
496D20
B692D8
B692D8
080100
3602C0
080100
080100
3692C0
096D00
096D00
069200
ENDCHAR
STARTCHAR 00F9
ENCODING 249
SWIDTH 684 0
DWIDTH 19 0
BBX 15 29 2 0
BITMAP
9000
6C00
6C00
1200
0D00
02C0
02C0
0000
901A
901A
6004
901A
6004
6004
901A
6004
F01E
901A
6004
901A
901A
6004
901A
6004
6004
92DA
6D24
6D24
12D8
ENDCHAR
STARTCHAR 00FA
ENCODING 250
SWIDTH 684 0
DWIDTH 19 0
BBX 15 29 2 0
BITMAP
0024
00D8
00D8
0120
02C0
0D00
0D00
0000
901A
901A
6004
901A
6004
6004
901A
6004
F01E
901A
6004
901A
901A
6004
901A
6004
6004
92DA
6D24
6D24
12D8
ENDCHAR
STARTCHAR 00FB
ENCODING 251
SWIDTH 684 0
DWIDTH 19 0
BBX 15 29 2 0
BITMAP
02C0
0D20
0D20
12D8
0C20
12D8
12D8
0000
901A
901A
6004
901A
6004
6004
901A
6004
F01E
901A
6004
901A
901A
6004
901A
6004
6004
92DA
6D24
6D24
12D8
ENDCHAR
STARTCHAR 00FC
ENCODING 252
SWIDTH 684 0
DWIDTH 19 0
BBX 15 26 2 0
BITMAP
12D8
0C20
12D8
12D8
0000
901A
901A
6004
901A
6004
6004
901A
6004
F01E
901A
6004
901A
901A
6004
901A
6004
6004
92DA
6D24
6D24
12D8
ENDCHAR
STARTCHAR 00FD
ENCODING 253
SWIDTH 684 0
DWIDTH 19 0
BBX 15 29 2 0
BITMAP
0024
00D8
00D8
0120
02C0
0D00
0D00
0000
901A
901A
6004
901A
6004
6004
901A
6004
F01E
901A
6004
92DA
92DA
6D24
12D8
0100
0100
02C0
0100
0100
02C0
ENDCHAR
STARTCHAR 00FE
ENCODING 254
SWIDTH 684 0
DWIDTH 19 0
BBX 15 21 2 0
BITMAP
9000
9000
6000
92D8
6D24
6D24
92DA
6004
F01E
901A
6004
901A
901A
6004
92DA
6D24
6D24
92D8
6000
6000
9000
ENDCHAR
STARTCHAR 00FF
ENCODING 255
SWIDTH 684 0
DWIDTH 19 0
BBX 15 26 2 0
BITMAP
12D8
0C20
12D8
12D8
0000
901A
901A
6004
901A
6004
6004
901A
6004
F01E
901A
6004
92DA
92DA
6D24
12D8
0100
0100
02C0
0100
0100
02C0
ENDCHAR
STARTCHAR 0100
ENCODING 256
SWIDTH 684 0
DWIDTH 19 0
BBX 15 26 2 0
BITMAP
12D8
0D20
12D8
12D8
0000
02C0
02C0
0D20
12D8
6C24
6C24
901A
6004
F01E
901A
6004
92DA
92DA
6D24
92DA
6004
6004
901A
6004
6004
901A
ENDCHAR
STARTCHAR 0101
ENCODING 257
SWIDTH 684 0
DWIDTH 19 0
BBX 15 26 2 0
BITMAP
12D8
0D20
12D8
12D8
0000
12D8
12D8
6D24
92DA
6004
6004
901A
6004
F01E
901A
6004
92DA
92DA
6D24
92DA
6004
6004
901A
6004
6004
901A
ENDCHAR
STARTCHAR 0102
ENCODING 258
SWIDTH 684 0
DWIDTH 19 0
BBX 15 29 2 0
BITMAP
6C24
1018
1018
6D24
12D8
0D20
0D20
0000
02C0
02C0
0D20
12D8
6C24
6C24
901A
6004
F01E
901A
6004
92DA
92DA
6D24
92DA
6004
6004
901A
6004
6004
901A
ENDCHAR
STARTCHAR 0103
ENCODING 259
SWIDTH 684 0
DWIDTH 19 0
BBX 15 29 2 0
BITMAP
6C24
1018
1018
6D24
12D8
0D20
0D20
0000
12D8
12D8
6D24
92DA
6004
6004
901A
6004
F01E
901A
6004
92DA
92DA
6D24
92DA
6004
6004
901A
6004
6004
901A
ENDCHAR
STARTCHAR 0104
ENCODING 260
SWIDTH 684 0
DWIDTH 19 0
BBX 18 27 2 -6
BITMAP
02C000
02C000
0D2000
12D800
6C2400
6C2400
901A00
600400
F01E00
901A00
600400
92DA00
92DA00
6D2400
92DA00
600400
600400
901A00
600400
600400
901A00
000400
001A40
001A40
000580
000240
000240
ENDCHAR
STARTCHAR 0105
ENCODING 261
SWIDTH 684 0
DWIDTH 19 0
BBX 18 27 2 -6
BITMAP
12D800
12D800
6D2400
92DA00
600400
600400
901A00
600400
F01E00
901A00
600400
92DA00
92DA00
6D2400
92DA00
600400
600400
901A00
600400
600400
901A00
000400
001A40
001A40
000580
000240
000240
ENDCHAR
STARTCHAR 0106
ENCODING 262
SWIDTH 792 0
DWIDTH 22 0
BBX 18 29 2 0
BITMAP
001A00
002400
002400
00D800
012000
02C000
02C000
000000
02D800
02D800
0D2400
12DA00
6C0580
6C0580
900240
600180
F003C0
900240
600000
900000
900000
600000
900240
6C0580
6C0580
12DA00
0D2400
0D2400
02D800
ENDCHAR
STARTCHAR 0107
ENCODING 263
SWIDTH 684 0
DWIDTH 19 0
BBX 15 29 2 0
BITMAP
0024
00D8
00D8
0120
02C0
0D00
0D00
0000
12D8
12D8
6D24
92DA
6004
6004
901A
6004
F01E
901A
6000
9000
9000
6000
901A
6004
6004
92DA
6D24
6D24
12D8
ENDCHAR
STARTCHAR 010A
ENCODING 266
SWIDTH 792 0
DWIDTH 22 0
BBX 18 26 2 0
BITMAP
012000
00C000
012000
012000
000000
02D800
02D800
0D2400
12DA00
6C0580
6C0580
900240
600180
F003C0
900240
600000
900000
900000
600000
900240
6C0580
6C0580
12DA00
0D2400
0D2400
02D800
ENDCHAR
STARTCHAR 010B
ENCODING 267
SWIDTH 684 0
DWIDTH 19 0
BBX 15 26 2 0
BITMAP
02C0
0100
02C0
02C0
0000
12D8
12D8
6D24
92DA
6004
6004
901A
6004
F01E
901A
6000
9000
9000
6000
901A
6004
6004
92DA
6D24
6D24
12D8
ENDCHAR
STARTCHAR 010C
ENCODING 268
SWIDTH 792 0
DWIDTH 22 0
BBX 18 29 2 0
BITMAP
0D2400
021800
021800
0D2400
02D800
012000
012000
000000
02D800
02D800
0D2400
12DA00
6C0580
6C0580
900240
600180
F003C0
900240
600000
900000
900000
600000
900240
6C0580
6C0580
12DA00
0D2400
0D2400
02D800
ENDCHAR
STARTCHAR 010D
ENCODING 269
SWIDTH 684 0
DWIDTH 19 0
BBX 15 29 2 0
BITMAP
12D8
0C20
0C20
12D8
0D20
02C0
02C0
0000
12D8
12D8
6D24
92DA
6004
6004
901A
6004
F01E
901A
6000
9000
9000
6000
901A
6004
6004
92DA
6D24
6D24
12D8
ENDCHAR
STARTCHAR 010E
ENCODING 270
SWIDTH 792 0
DWIDTH 22 0
BBX 18 29 2 0
BITMAP
0D2400
021800
021800
0D2400
02D800
012000
012000
000000
92D800
92D800
6D2400
92DA00
600580
600580
900240
600180
F003C0
900240
600180
900240
900240
600180
900240
600580
600580
92DA00
6D2400
6D2400
92D800
ENDCHAR
STARTCHAR 010F
ENCODING 271
SWIDTH 684 0
DWIDTH 19 0
BBX 15 29 2 0
BITMAP
12D8
0C20
0C20
12D8
0D20
02C0
02C0
0000
92D8
92D8
6D24
92DA
6004
6004
901A
6004
F01E
901A
6004
901A
901A
6004
901A
6004
6004
92DA
6D24
6D24
92D8
ENDCHAR
STARTCHAR 0110
ENCODING 272
SWIDTH 828 0
DWIDTH 23 0
BBX 21 21 1 0
BITMAP
369200
369200
096D00
3692C0
080120
080120
3600D8
080020
BE80F8
B680D8
490020
B680D8
B680D8
080020
3600D8
080120
080120
3692C0
096D00
096D00
369200
ENDCHAR
STARTCHAR 0111
ENCODING 273
SWIDTH 720 0
DWIDTH 20 0
BBX 18 21 1 0
BITMAP
369200
369200
096D00
3692C0
080100
080100
3602C0
080100
BE83C0
B682C0
490100
B682C0
B682C0
080100
3602C0
080100
080100
3692C0
096D00
096D00
369200
ENDCHAR
STARTCHAR 0112
ENCODING 274
SWIDTH 684 0
DWIDTH 19 0
BBX 15 26 2 0
BITMAP
12D8
0D20
12D8
12D8
0000
02DA
02DA
0D24
12DA
6C00
6C00
9000
6000
F2D8
92D8
6D20
92D8
92D8
6000
9000
6C00
6C00
12DA
0D24
0D24
02DA
ENDCHAR
STARTCHAR 0113
ENCODING 275
SWIDTH 684 0
DWIDTH 19 0
BBX 15 26 2 0
BITMAP
12D8
0D20
12D8
12D8
0000
12DA
12DA
6D24
92DA
6000
6000
9000
6000
F2D8
92D8
6D20
92D8
92D8
6000
9000
6000
6000
92DA
6D24
6D24
12DA
ENDCHAR
STARTCHAR 0116
ENCODING 278
SWIDTH 684 0
DWIDTH 19 0
BBX 15 26 2 0
BITMAP
02C0
0100
02C0
02C0
0000
02DA
02DA
0D24
12DA
6C00
6C00
9000
6000
F2D8
92D8
6D20
92D8
92D8
6000
9000
6C00
6C00
12DA
0D24
0D24
02DA
ENDCHAR
STARTCHAR 0117
ENCODING 279
SWIDTH 684 0
DWIDTH 19 0
BBX 15 26 2 0
BITMAP
02C0
0100
02C0
02C0
0000
12DA
12DA
6D24
92DA
6000
6000
9000
6000
F2D8
92D8
6D20
92D8
92D8
6000
9000
6000
6000
92DA
6D24
6D24
12DA
ENDCHAR
STARTCHAR 0118
ENCODING 280
SWIDTH 684 0
DWIDTH 19 0
BBX 18 27 2 -6
BITMAP
02DA00
02DA00
0D2400
12DA00
6C0000
6C0000
900000
600000
F2D800
92D800
6D2000
92D800
92D800
600000
900000
6C0000
6C0000
12DA00
0D2400
0D2400
02DA00
000400
001A40
001A40
000580
000240
000240
ENDCHAR
STARTCHAR 0119
ENCODING 281
SWIDTH 684 0
DWIDTH 19 0
BBX 18 27 2 -6
BITMAP
12DA00
12DA00
6D2400
92DA00
600000
600000
900000
600000
F2D800
92D800
6D2000
92D800
92D800
600000
900000
600000
600000
92DA00
6D2400
6D2400
12DA00
000400
001A40
001A40
000580
000240
000240
ENDCHAR
STARTCHAR 011A
ENCODING 282
SWIDTH 684 0
DWIDTH 19 0
BBX 15 29 2 0
BITMAP
12D8
0C20
0C20
12D8
0D20
02C0
02C0
0000
02DA
02DA
0D24
12DA
6C00
6C00
9000
6000
F2D8
92D8
6D20
92D8
92D8
6000
9000
6C00
6C00
12DA
0D24
0D24
02DA
ENDCHAR
STARTCHAR 011B
ENCODING 283
SWIDTH 684 0
DWIDTH 19 0
BBX 15 29 2 0
BITMAP
12D8
0C20
0C20
12D8
0D20
02C0
02C0
0000
12DA
12DA
6D24
92DA
6000
6000
9000
6000
F2D8
92D8
6D20
92D8
92D8
6000
9000
6000
6000
92DA
6D24
6D24
12DA
ENDCHAR
STARTCHAR 011E
ENCODING 286
SWIDTH 792 0
DWIDTH 22 0
BBX 18 29 2 0
BITMAP
121A00
0C0400
0C0400
12DA00
0D2400
02D800
02D800
000000
02DA40
02DA40
0D2580
12DA40
6C0000
6C0000
900000
600000
F0DA40
90DA40
602580
90DA40
90DA40
600180
900240
6C0180
6C0180
12DA40
0D2580
0D2580
02DA40
ENDCHAR
STARTCHAR 011F
ENCODING 287
SWIDTH 684 0
DWIDTH 19 0
BBX 15 29 2 0
BITMAP
6C24
1018
1018
6D24
12D8
0D20
0D20
0000
12DA
12DA
6D24
92DA
6000
6000
9000
6000
F0DA
90DA
6024
90DA
90DA
6004
901A
6004
6004
92DA
6D24
6D24
12D8
ENDCHAR
STARTCHAR 0120
ENCODING 288
SWIDTH 792 0
DWIDTH 22 0
BBX 18 26 2 0
BITMAP
012000
00C000
012000
012000
000000
02DA40
02DA40
0D2580
12DA40
6C0000
6C0000
900000
600000
F0DA40
90DA40
602580
90DA40
90DA40
600180
900240
6C0180
6C0180
12DA40
0D2580
0D2580
02DA40
ENDCHAR
STARTCHAR 0121
ENCODING 289
SWIDTH 684 0
DWIDTH 19 0
BBX 15 26 2 0
BITMAP
02C0
0100
02C0
02C0
0000
12DA
12DA
6D24
92DA
6000
6000
9000
6000
F0DA
90DA
6024
90DA
90DA
6004
901A
6004
6004
92DA
6D24
6D24
12D8
ENDCHAR
STARTCHAR 0122
ENCODING 290
SWIDTH 792 0
DWIDTH 22 0
BBX 18 29 2 -8
BITMAP
02DA40
02DA40
0D2580
12DA40
6C0000
6C0000
900000
600000
F0DA40
90DA40
602580
90DA40
90DA40
600180
900240
6C0180
6C0180
12DA40
0D2580
0D2580
02DA40
000000
012000
012000
00C000
012000
012000
00C000
010000
ENDCHAR
STARTCHAR 0123
ENCODING 291
SWIDTH 684 0
DWIDTH 19 0
BBX 15 29 2 -8
BITMAP
12DA
12DA
6D24
92DA
6000
6000
9000
6000
F0DA
90DA
6024
90DA
90DA
6004
901A
6004
6004
92DA
6D24
6D24
12D8
0000
02C0
02C0
0100
02C0
02C0
0100
0200
ENDCHAR
STARTCHAR 0126
ENCODING 294
SWIDTH 900 0
DWIDTH 25 0
BBX 23 21 1 0
BITMAP
3600D8
3600D8
080020
B692DA
496D24
496D24
B692DA
080020
3E92F8
3692D8
096D20
3692D8
3692D8
080020
3600D8
080020
080020
3600D8
080020
080020
3600D8
ENDCHAR
STARTCHAR 0127
ENCODING 295
SWIDTH 792 0
DWIDTH 22 0
BBX 21 21 1 0
BITMAP
3602C0
3602C0
080100
B692D8
496D20
496D20
B692D8
080100
3E93C0
3692C0
096D00
3692C0
3692C0
080100
3602C0
080100
080100
3602C0
080100
080100
3602C0
ENDCHAR
STARTCHAR 0128
ENCODING 296
SWIDTH 468 0
DWIDTH 13 0
BBX 16 29 -1 0
BITMAP
121B
2D84
2D84
D25B
21A4
D058
D058
0000
1258
1258
0DA0
1258
0180
0180
0240
0180
03C0
0240
0180
0240
0240
0180
0240
0180
0180
1258
0DA0
0DA0
1258
ENDCHAR
STARTCHAR 0129
ENCODING 297
SWIDTH 288 0
DWIDTH 8 0
BBX 15 29 -3 0
BITMAP
3416
4B08
4B08
B496
4368
B090
B090
0000
0480
0480
0300
0480
0300
0300
0480
0300
0780
0480
0300
0480
0480
0300
0480
0300
0300
0480
0300
0300
0480
ENDCHAR
STARTCHAR 012A
ENCODING 298
SWIDTH 468 0
DWIDTH 13 0
BBX 10 26 2 0
BITMAP
92C0
6D00
92C0
92C0
0000
92C0
92C0
6D00
92C0
0C00
0C00
1200
0C00
1E00
1200
0C00
1200
1200
0C00
1200
0C00
0C00
92C0
6D00
6D00
92C0
ENDCHAR
STARTCHAR 012B
ENCODING 299
SWIDTH 288 0
DWIDTH 8 0
BBX 10 26 -1 0
BITMAP
D240
2D80
D240
D240
0000
1200
1200
0C00
1200
0C00
0C00
1200
0C00
1E00
1200
0C00
1200
1200
0C00
1200
0C00
0C00
1200
0C00
0C00
1200
ENDCHAR
STARTCHAR 012E
ENCODING 302
SWIDTH 468 0
DWIDTH 13 0
BBX 13 27 2 -6
BITMAP
92C0
92C0
6D00
92C0
0C00
0C00
1200
0C00
1E00
1200
0C00
1200
1200
0C00
1200
0C00
0C00
92C0
6D00
6D00
92C0
0100
02D8
02D8
0120
00D8
00D8
ENDCHAR
STARTCHAR 012F
ENCODING 303
SWIDTH 288 0
DWIDTH 8 0
BBX 7 27 2 -6
BITMAP
90
90
60
90
60
60
90
60
F0
90
60
90
90
60
90
60
60
90
60
60
90
60
92
92
6C
12
12
ENDCHAR
STARTCHAR 0130
ENCODING 304
SWIDTH 468 0
DWIDTH 13 0
BBX 10 26 2 0
BITMAP
1200
0C00
1200
1200
0000
92C0
92C0
6D00
92C0
0C00
0C00
1200
0C00
1E00
1200
0C00
1200
1200
0C00
1200
0C00
0C00
92C0
6D00
6D00
92C0
ENDCHAR
STARTCHAR 0131
ENCODING 305
SWIDTH 288 0
DWIDTH 8 0
BBX 4 21 2 0
BITMAP
90
90
60
90
60
60
90
60
F0
90
60
90
90
60
90
60
60
90
60
60
90
ENDCHAR
STARTCHAR 0136
ENCODING 310
SWIDTH 684 0
DWIDTH 19 0
BBX 15 29 2 -8
BITMAP
901A
901A
6004
901A
6024
6024
90D8
6120
F3E0
92C0
6D00
92C0
92C0
6120
90D8
6024
6024
901A
6004
6004
901A
0000
02C0
02C0
0100
02C0
02C0
0100
0200
ENDCHAR
STARTCHAR 0137
ENCODING 311
SWIDTH 684 0
DWIDTH 19 0
BBX 15 29 2 -8
BITMAP
901A
901A
6004
901A
6004
6004
901A
6024
F2FC
92D8
6D20
92D8
92D8
6024
901A
6004
6004
901A
6004
6004
901A
0000
02C0
02C0
0100
02C0
02C0
0100
0200
ENDCHAR
STARTCHAR 0139
ENCODING 313
SWIDTH 684 0
DWIDTH 19 0
BBX 16 29 1 0
BITMAP
0680
0900
0900
3600
4800
B000
B000
0000
4800
4800
3000
4800
3000
3000
4800
3000
7800
4800
3000
4800
4800
3000
4800
3000
3000
496D
3692
3692
096D
ENDCHAR
STARTCHAR 013A
ENCODING 314
SWIDTH 576 0
DWIDTH 16 0
BBX 14 29 1 0
BITMAP
0680
0900
0900
3600
4800
B000
B000
0000
4800
4800
3000
4800
3000
3000
4800
3000
7800
4800
3000
4800
4800
3000
4800
3000
3000
496C
3690
3690
096C
ENDCHAR
STARTCHAR 013B
ENCODING 315
SWIDTH 684 0
DWIDTH 19 0
BBX 15 29 2 -8
BITMAP
9000
9000
6000
9000
6000
6000
9000
6000
F000
9000
6000
9000
9000
6000
9000
6000
6000
92DA
6D24
6D24
12DA
0000
02C0
02C0
0100
02C0
02C0
0100
0200
ENDCHAR
STARTCHAR 013C
ENCODING 316
SWIDTH 576 0
DWIDTH 16 0
BBX 13 29 2 -8
BITMAP
9000
9000
6000
9000
6000
6000
9000
6000
F000
9000
6000
9000
9000
6000
9000
6000
6000
92D8
6D20
6D20
12D8
0000
0D00
0D00
0200
0D00
0D00
0200
0C00
ENDCHAR
STARTCHAR 013D
ENCODING 317
SWIDTH 684 0
DWIDTH 19 0
BBX 15 21 2 0
BITMAP
901A
901A
6004
901A
6004
6004
9018
6000
F000
9000
6000
9000
9000
6000
9000
6000
6000
92DA
6D24
6D24
12DA
ENDCHAR
STARTCHAR 013E
ENCODING 318
SWIDTH 576 0
DWIDTH 16 0
BBX 13 21 2 0
BITMAP
90D8
90D8
6020
90D8
6020
6020
90C0
6000
F000
9000
6000
9000
9000
6000
9000
6000
6000
92D8
6D20
6D20
12D8
ENDCHAR
STARTCHAR 0141
ENCODING 321
SWIDTH 720 0
DWIDTH 20 0
BBX 18 21 1 0
BITMAP
360000
360000
080000
360000
080000
080000
368000
090000
BF8000
B68000
480000
B60000
B60000
080000
360000
080000
080000
3692C0
096D00
096D00
0692C0
ENDCHAR
STARTCHAR 0142
ENCODING 322
SWIDTH 648 0
DWIDTH 18 0
BBX 15 21 1 0
BITMAP
3600
3600
0800
3600
0800
0800
3680
0900
BF80
B680
4800
B600
B600
0800
3600
0800
0800
3692
096C
096C
0692
ENDCHAR
STARTCHAR 0143
ENCODING 323
SWIDTH 792 0
DWIDTH 22 0
BBX 18 29 2 0
BITMAP
001A00
002400
002400
00D800
012000
02C000
02C000
000000
900240
900240
6C0180
920240
6D0180
6D0180
92C240
612180
F1FBC0
90DA40
602580
901A40
901A40
600580
900240
600180
600180
900240
600180
600180
900240
ENDCHAR
STARTCHAR 0144
ENCODING 324
SWIDTH 684 0
DWIDTH 19 0
BBX 15 29 2 0
BITMAP
0024
00D8
00D8
0120
02C0
0D00
0D00
0000
901A
901A
6C04
921A
6D04
6D04
92DA
6124
F1FE
90DA
6024
901A
901A
6004
901A
6004
6004
901A
6004
6004
901A
ENDCHAR
STARTCHAR 0145
ENCODING 325
SWIDTH 792 0
DWIDTH 22 0
BBX 18 29 2 -8
BITMAP
900240
900240
6C0180
920240
6D0180
6D0180
92C240
612180
F1FBC0
90DA40
602580
901A40
901A40
600580
900240
600180
600180
900240
600180
600180
900240
000000
012000
012000
00C000
012000
012000
00C000
010000
ENDCHAR
STARTCHAR 0146
ENCODING 326
SWIDTH 684 0
DWIDTH 19 0
BBX 15 29 2 -8
BITMAP
901A
901A
6C04
921A
6D04
6D04
92DA
6124
F1FE
90DA
6024
901A
901A
6004
901A
6004
6004
901A
6004
6004
901A
0000
02C0
02C0
0100
02C0
02C0
0100
0200
ENDCHAR
STARTCHAR 0147
ENCODING 327
SWIDTH 792 0
DWIDTH 22 0
BBX 18 29 2 0
BITMAP
0D2400
021800
021800
0D2400
02D800
012000
012000
000000
900240
900240
6C0180
920240
6D0180
6D0180
92C240
612180
F1FBC0
90DA40
602580
901A40
901A40
600580
900240
600180
600180
900240
600180
600180
900240
ENDCHAR
STARTCHAR 0148
ENCODING 328
SWIDTH 684 0
DWIDTH 19 0
BBX 15 29 2 0
BITMAP
12D8
0C20
0C20
12D8
0D20
02C0
02C0
0000
901A
901A
6C04
921A
6D04
6D04
92DA
6124
F1FE
90DA
6024
901A
901A
6004
901A
6004
6004
901A
6004
6004
901A
ENDCHAR
STARTCHAR 014A
ENCODING 330
SWIDTH 792 0
DWIDTH 22 0
BBX 18 27 2 -6
BITMAP
900240
900240
6C0180
920240
6D0180
6D0180
92C240
612180
F1FBC0
90DA40
602580
901A40
901A40
600580
900240
600180
600180
900240
600180
600180
900240
000180
001A40
001A40
000580
001A00
001A00
ENDCHAR
STARTCHAR 014B
ENCODING 331
SWIDTH 684 0
DWIDTH 19 0
BBX 15 27 2 -6
BITMAP
901A
901A
6C04
921A
6D04
6D04
92DA
6124
F1FE
90DA
6024
901A
901A
6004
901A
6004
6004
901A
6004
6004
901A
0004
00DA
00DA
0024
00D8
00D8
ENDCHAR
STARTCHAR 014C
ENCODING 332
SWIDTH 792 0
DWIDTH 22 0
BBX 18 26 2 0
BITMAP
0D2400
02D800
0D2400
0D2400
000000
02D800
02D800
0D2400
12DA00
6C0580
6C0580
900240
600180
F003C0
900240
600180
900240
900240
600180
900240
6C0580
6C0580
12DA00
0D2400
0D2400
02D800
ENDCHAR
STARTCHAR 014D
ENCODING 333
SWIDTH 684 0
DWIDTH 19 0
BBX 15 26 2 0
BITMAP
12D8
0D20
12D8
12D8
0000
12D8
12D8
6D24
92DA
6004
6004
901A
6004
F01E
901A
6004
901A
901A
6004
901A
6004
6004
92DA
6D24
6D24
12D8
ENDCHAR
STARTCHAR 0150
ENCODING 336
SWIDTH 792 0
DWIDTH 22 0
BBX 20 29 2 0
BITMAP
0121B0
02C240
02C240
0D0580
121A00
6C2400
6C2400
000000
02D800
02D800
0D2400
12DA00
6C0580
6C0580
900240
600180
F003C0
900240
600180
900240
900240
600180
900240
6C0580
6C0580
12DA00
0D2400
0D2400
02D800
ENDCHAR
STARTCHAR 0151
ENCODING 337
SWIDTH 684 0
DWIDTH 19 0
BBX 18 29 2 0
BITMAP
02C240
0D0580
0D0580
121A00
6C2400
90D800
90D800
000000
12D800
12D800
6D2400
92DA00
600400
600400
901A00
600400
F01E00
901A00
600400
901A00
901A00
600400
901A00
600400
600400
92DA00
6D2400
6D2400
12D800
ENDCHAR
STARTCHAR 0152
ENCODING 338
SWIDTH 1188 0
DWIDTH 33 0
BBX 29 21 2 0
BITMAP
02D80B48
02D80B48
0D2434B0
12DA4B48
6C05B000
6C05B000
90024000
60018000
F003CB40
90024B40
6001B480
90024B40
90024B40
60018000
90024000
6C05B000
6C05B000
12DA4B48
0D2434B0
0D2434B0
02D80B48
ENDCHAR
STARTCHAR 0153
ENCODING 339
SWIDTH 1080 0
DWIDTH 30 0
BBX 26 21 2 0
BITMAP
12DA4B40
12DA4B40
6D25B480
92DA4B40
60040000
60040000
901A0000
60040000
F01E4B00
901A4B00
6005B400
901A4B00
901A4B00
60040000
901A0000
60040000
60040000
92DA4B40
6D25B480
6D25B480
12DA4B40
ENDCHAR
STARTCHAR 0154
ENCODING 340
SWIDTH 684 0
DWIDTH 19 0
BBX 15 29 2 0
BITMAP
0024
00D8
00D8
0120
02C0
0D00
0D00
0000
92C0
92C0
6D20
92D8
6024
6024
901A
6004
F01E
901A
6004
901A
901A
6024
92D8
6D20
6D20
92D8
6024
6024
901A
ENDCHAR
STARTCHAR 0155
ENCODING 341
SWIDTH 684 0
DWIDTH 19 0
BBX 15 29 2 0
BITMAP
0024
00D8
00D8
0120
02C0
0D00
0D00
0000
92D8
92D8
6D24
92DA
6004
6004
901A
6004
F01E
901A
6004
92DA
92DA
6D24
92D8
6024
6024
901A
6004
6004
901A
ENDCHAR
STARTCHAR 0156
ENCODING 342
SWIDTH 684 0
DWIDTH 19 0
BBX 15 29 2 -8
BITMAP
92C0
92C0
6D20
92D8
6024
6024
901A
6004
F01E
901A
6004
901A
901A
6024
92D8
6D20
6D20
92D8
6024
6024
901A
0000
02C0
02C0
0100
02C0
02C0
0100
0200
ENDCHAR
STARTCHAR 0157
ENCODING 343
SWIDTH 684 0
DWIDTH 19 0
BBX 15 29 2 -8
BITMAP
92D8
92D8
6D24
92DA
6004
6004
901A
6004
F01E
901A
6004
92DA
92DA
6D24
92D8
6024
6024
901A
6004
6004
901A
0000
02C0
02C0
0100
02C0
02C0
0100
0200
ENDCHAR
STARTCHAR 0158
ENCODING 344
SWIDTH 684 0
DWIDTH 19 0
BBX 15 29 2 0
BITMAP
12D8
0C20
0C20
12D8
0D20
02C0
02C0
0000
92C0
92C0
6D20
92D8
6024
6024
901A
6004
F01E
901A
6004
901A
901A
6024
92D8
6D20
6D20
92D8
6024
6024
901A
ENDCHAR
STARTCHAR 0159
ENCODING 345
SWIDTH 684 0
DWIDTH 19 0
BBX 15 29 2 0
BITMAP
12D8
0C20
0C20
12D8
0D20
02C0
02C0
0000
92D8
92D8
6D24
92DA
6004
6004
901A
6004
F01E
901A
6004
92DA
92DA
6D24
92D8
6024
6024
901A
6004
6004
901A
ENDCHAR
STARTCHAR 015A
ENCODING 346
SWIDTH 684 0
DWIDTH 19 0
BBX 15 29 2 0
BITMAP
0024
00D8
00D8
0120
02C0
0D00
0D00
0000
12D8
12D8
6D24
92DA
6004
6004
901A
6000
F2D8
92D8
6D24
12DA
12DA
0004
901A
6004
6004
92DA
6D24
6D24
12D8
ENDCHAR
STARTCHAR 015B
ENCODING 347
SWIDTH 684 0
DWIDTH 19 0
BBX 15 29 2 0
BITMAP
0024
00D8
00D8
0120
02C0
0D00
0D00
0000
12D8
12D8
6D24
92DA
6004
6004
901A
6000
F2D8
92D8
6D24
12DA
12DA
0004
901A
6004
6004
92DA
6D24
6D24
12D8
ENDCHAR
STARTCHAR 015E
ENCODING 350
SWIDTH 684 0
DWIDTH 19 0
BBX 15 27 2 -6
BITMAP
12D8
12D8
6D24
92DA
6004
6004
901A
6000
F2D8
92D8
6D24
12DA
12DA
0004
901A
6004
6004
92DA
6D24
6D24
12D8
0100
12C0
12C0
0D00
1200
1200
ENDCHAR
STARTCHAR 015F
ENCODING 351
SWIDTH 684 0
DWIDTH 19 0
BBX 15 27 2 -6
BITMAP
12D8
12D8
6D24
92DA
6004
6004
901A
6000
F2D8
92D8
6D24
12DA
12DA
0004
901A
6004
6004
92DA
6D24
6D24
12D8
0100
12C0
12C0
0D00
1200
1200
ENDCHAR
STARTCHAR 0160
ENCODING 352
SWIDTH 684 0
DWIDTH 19 0
BBX 15 29 2 0
BITMAP
12D8
0C20
0C20
12D8
0D20
02C0
02C0
0000
12D8
12D8
6D24
92DA
6004
6004
901A
6000
F2D8
92D8
6D24
12DA
12DA
0004
901A
6004
6004
92DA
6D24
6D24
12D8
ENDCHAR
STARTCHAR 0161
ENCODING 353
SWIDTH 684 0
DWIDTH 19 0
BBX 15 29 2 0
BITMAP
12D8
0C20
0C20
12D8
0D20
02C0
02C0
0000
12D8
12D8
6D24
92DA
6004
6004
901A
6000
F2D8
92D8
6D24
12DA
12DA
0004
901A
6004
6004
92DA
6D24
6D24
12D8
ENDCHAR
STARTCHAR 0162
ENCODING 354
SWIDTH 684 0
DWIDTH 19 0
BBX 15 27 2 -6
BITMAP
92DA
92DA
6D24
92DA
0100
0100
02C0
0100
03C0
02C0
0100
02C0
02C0
0100
02C0
0100
0100
02C0
0100
0100
02C0
0100
12C0
12C0
0D00
1200
1200
ENDCHAR
STARTCHAR 0163
ENCODING 355
SWIDTH 684 0
DWIDTH 19 0
BBX 15 27 2 -6
BITMAP
92DA
92DA
6D24
92DA
0100
0100
02C0
0100
03C0
02C0
0100
02C0
02C0
0100
02C0
0100
0100
02C0
0100
0100
02C0
0100
12C0
12C0
0D00
1200
1200
ENDCHAR
STARTCHAR 0164
ENCODING 356
SWIDTH 684 0
DWIDTH 19 0
BBX 15 29 2 0
BITMAP
12D8
0C20
0C20
12D8
0D20
02C0
02C0
0000
92DA
92DA
6D24
92DA
0100
0100
02C0
0100
03C0
02C0
0100
02C0
02C0
0100
02C0
0100
0100
02C0
0100
0100
02C0
ENDCHAR
STARTCHAR 0165
ENCODING 357
SWIDTH 684 0
DWIDTH 19 0
BBX 15 29 2 0
BITMAP
12D8
0C20
0C20
12D8
0D20
02C0
02C0
0000
92DA
92DA
6D24
92DA
0100
0100
02C0
0100
03C0
02C0
0100
02C0
02C0
0100
02C0
0100
0100
02C0
0100
0100
02C0
ENDCHAR
STARTCHAR 0166
ENCODING 358
SWIDTH 684 0
DWIDTH 19 0
BBX 15 21 2 0
BITMAP
92DA
92DA
6D24
92DA
0100
0100
02C0
0100
13D8
12D8
0D20
12D8
12D8
0100
02C0
0100
0100
02C0
0100
0100
02C0
ENDCHAR
STARTCHAR 0167
ENCODING 359
SWIDTH 684 0
DWIDTH 19 0
BBX 15 21 2 0
BITMAP
92DA
92DA
6D24
92DA
0100
0100
02C0
0100
13D8
12D8
0D20
12D8
12D8
0100
02C0
0100
0100
02C0
0100
0100
02C0
ENDCHAR
STARTCHAR 0168
ENCODING 360
SWIDTH 792 0
DWIDTH 22 0
BBX 18 29 2 0
BITMAP
0D0580
12C200
12C200
6D2580
10DA00
6C2400
6C2400
000000
900240
900240
600180
900240
600180
600180
900240
600180
F003C0
900240
600180
900240
900240
600180
900240
6C0580
6C0580
12DA00
0D2400
0D2400
02D800
ENDCHAR
STARTCHAR 0169
ENCODING 361
SWIDTH 684 0
DWIDTH 19 0
BBX 15 29 2 0
BITMAP
121A
6D04
6D04
92DA
6124
90D8
90D8
0000
901A
901A
6004
901A
6004
6004
901A
6004
F01E
901A
6004
901A
901A
6004
901A
6004
6004
92DA
6D24
6D24
12D8
ENDCHAR
STARTCHAR 016A
ENCODING 362
SWIDTH 792 0
DWIDTH 22 0
BBX 18 26 2 0
BITMAP
0D2400
02D800
0D2400
0D2400
000000
900240
900240
600180
900240
600180
600180
900240
600180
F003C0
900240
600180
900240
900240
600180
900240
6C0580
6C0580
12DA00
0D2400
0D2400
02D800
ENDCHAR
STARTCHAR 016B
ENCODING 363
SWIDTH 684 0
DWIDTH 19 0
BBX 15 26 2 0
BITMAP
12D8
0D20
12D8
12D8
0000
901A
901A
6004
901A
6004
6004
901A
6004
F01E
901A
6004
901A
901A
6004
901A
6004
6004
92DA
6D24
6D24
12D8
ENDCHAR
STARTCHAR 016E
ENCODING 366
SWIDTH 792 0
DWIDTH 22 0
BBX 18 35 2 0
BITMAP
02D800
02D800
0D2400
12DA00
0C0400
0C0400
121A00
0C0400
0C0400
12DA00
0D2400
02D800
02D800
000000
900240
900240
600180
900240
600180
600180
900240
600180
F003C0
900240
600180
900240
900240
600180
900240
6C0580
6C0580
12DA00
0D2400
0D2400
02D800
ENDCHAR
STARTCHAR 016F
ENCODING 367
SWIDTH 684 0
DWIDTH 19 0
BBX 15 35 2 0
BITMAP
0D20
0D20
12D8
6D24
1018
1018
6C24
1018
1018
6D24
12D8
0D20
0D20
0000
901A
901A
6004
901A
6004
6004
901A
6004
F01E
901A
6004
901A
901A
6004
901A
6004
6004
92DA
6D24
6D24
12D8
ENDCHAR
STARTCHAR 0170
ENCODING 368
SWIDTH 792 0
DWIDTH 22 0
BBX 20 29 2 0
BITMAP
0121B0
02C240
02C240
0D0580
121A00
6C2400
6C2400
000000
900240
900240
600180
900240
600180
600180
900240
600180
F003C0
900240
600180
900240
900240
600180
900240
6C0580
6C0580
12DA00
0D2400
0D2400
02D800
ENDCHAR
STARTCHAR 0171
ENCODING 369
SWIDTH 684 0
DWIDTH 19 0
BBX 18 29 2 0
BITMAP
02C240
0D0580
0D0580
121A00
6C2400
90D800
90D800
000000
901A00
901A00
600400
901A00
600400
600400
901A00
600400
F01E00
901A00
600400
901A00
901A00
600400
901A00
600400
600400
92DA00
6D2400
6D2400
12D800
ENDCHAR
STARTCHAR 0172
ENCODING 370
SWIDTH 792 0
DWIDTH 22 0
BBX 18 27 2 -6
BITMAP
900240
900240
600180
900240
600180
600180
900240
600180
F003C0
900240
600180
900240
900240
600180
900240
6C0580
6C0580
12DA00
0D2400
0D2400
02D800
002000
00DA00
00DA00
002400
001A00
001A00
ENDCHAR
STARTCHAR 0173
ENCODING 371
SWIDTH 684 0
DWIDTH 19 0
BBX 15 27 2 -6
BITMAP
901A
901A
6004
901A
6004
6004
901A
6004
F01E
901A
6004
901A
901A
6004
901A
6004
6004
92DA
6D24
6D24
12D8
0020
00DA
00DA
0024
001A
001A
ENDCHAR
STARTCHAR 0174
ENCODING 372
SWIDTH 1080 0
DWIDTH 30 0
BBX 26 29 2 0
BITMAP
001A0000
00258000
00258000
00DA4000
00218000
00DA4000
00DA4000
00000000
901A0340
901A0340
60040080
901A0340
60040080
60040080
901A0340
60040080
F01E03C0
901A0340
60040080
901A0340
901A0340
60040080
901A0340
6C258480
6C258480
12DA4B00
0D21B400
0D21B400
02C04800
ENDCHAR
STARTCHAR 0175
ENCODING 373
SWIDTH 1080 0
DWIDTH 30 0
BBX 26 29 2 0
BITMAP
001A0000
00258000
00258000
00DA4000
00218000
00DA4000
00DA4000
00000000
901A0340
901A0340
60040080
901A0340
60040080
60040080
901A0340
60040080
F01E03C0
901A0340
60040080
901A0340
901A0340
60040080
901A0340
60258080
60258080
92DA4B40
6D21B480
6D21B480
12C04B00
ENDCHAR
STARTCHAR 0176
ENCODING 374
SWIDTH 684 0
DWIDTH 19 0
BBX 15 29 2 0
BITMAP
02C0
0D20
0D20
12D8
0C20
12D8
12D8
0000
901A
901A
6004
901A
6004
6004
901A
6004
F01E
901A
6C24
12D8
12D8
0D20
02C0
0100
0100
02C0
0100
0100
02C0
ENDCHAR
STARTCHAR 0177
ENCODING 375
SWIDTH 684 0
DWIDTH 19 0
BBX 15 29 2 0
BITMAP
02C0
0D20
0D20
12D8
0C20
12D8
12D8
0000
901A
901A
6004
901A
6004
6004
901A
6004
F01E
901A
6004
92DA
92DA
6D24
12D8
0100
0100
02C0
0100
0100
02C0
ENDCHAR
STARTCHAR 0178
ENCODING 376
SWIDTH 684 0
DWIDTH 19 0
BBX 15 26 2 0
BITMAP
12D8
0C20
12D8
12D8
0000
901A
901A
6004
901A
6004
6004
901A
6004
F01E
901A
6C24
12D8
12D8
0D20
02C0
0100
0100
02C0
0100
0100
02C0
ENDCHAR
STARTCHAR 0179
ENCODING 377
SWIDTH 684 0
DWIDTH 19 0
BBX 15 29 2 0
BITMAP
0024
00D8
00D8
0120
02C0
0D00
0D00
0000
92DA
92DA
6D24
92DA
0024
0024
00D8
0120
03E0
02C0
0D00
1200
1200
6C00
9000
6000
6000
92DA
6D24
6D24
92DA
ENDCHAR
STARTCHAR 017A
ENCODING 378
SWIDTH 684 0
DWIDTH 19 0
BBX 15 29 2 0
BITMAP
0024
00D8
00D8
0120
02C0
0D00
0D00
0000
92DA
92DA
6D24
92DA
0004
0004
001A
0004
12DE
12DA
6D24
92D8
92D8
6000
9000
6000
6000
92DA
6D24
6D24
92DA
ENDCHAR
STARTCHAR 017B
ENCODING 379
SWIDTH 684 0
DWIDTH 19 0
BBX 15 26 2 0
BITMAP
02C0
0100
02C0
02C0
0000
92DA
92DA
6D24
92DA
0024
0024
00D8
0120
03E0
02C0
0D00
1200
1200
6C00
9000
6000
6000
92DA
6D24
6D24
92DA
ENDCHAR
STARTCHAR 017C
ENCODING 380
SWIDTH 684 0
DWIDTH 19 0
BBX 15 26 2 0
BITMAP
02C0
0100
02C0
02C0
0000
92DA
92DA
6D24
92DA
0004
0004
001A
0004
12DE
12DA
6D24
92D8
92D8
6000
9000
6000
6000
92DA
6D24
6D24
92DA
ENDCHAR
STARTCHAR 017D
ENCODING 381
SWIDTH 684 0
DWIDTH 19 0
BBX 15 29 2 0
BITMAP
12D8
0C20
0C20
12D8
0D20
02C0
02C0
0000
92DA
92DA
6D24
92DA
0024
0024
00D8
0120
03E0
02C0
0D00
1200
1200
6C00
9000
6000
6000
92DA
6D24
6D24
92DA
ENDCHAR
STARTCHAR 017E
ENCODING 382
SWIDTH 684 0
DWIDTH 19 0
BBX 15 29 2 0
BITMAP
12D8
0C20
0C20
12D8
0D20
02C0
02C0
0000
92DA
92DA
6D24
92DA
0004
0004
001A
0004
12DE
12DA
6D24
92D8
92D8
6000
9000
6000
6000
92DA
6D24
6D24
92DA
ENDCHAR
STARTCHAR 0192
ENCODING 402
SWIDTH 684 0
DWIDTH 19 0
BBX 15 27 2 -6
BITMAP
00DA
00DA
0124
02DA
0100
0100
02C0
0100
13D8
12D8
0D20
12D8
12D8
0100
02C0
0100
0100
02C0
0100
0100
02C0
0100
92C0
92C0
6D00
9200
9200
ENDCHAR
STARTCHAR 01A0
ENCODING 416
SWIDTH 936 0
DWIDTH 26 0
BBX 24 24 2 0
BITMAP
00000B
00000B
000004
12DA4B
12DA4B
6D25B4
92DA48
600180
600180
900240
600180
F003C0
900240
600180
900240
900240
600180
900240
600180
600180
92DA40
6D2580
6D2580
12DA00
ENDCHAR
STARTCHAR 01A1
ENCODING 417
SWIDTH 828 0
DWIDTH 23 0
BBX 21 24 2 0
BITMAP
000048
000048
000030
12DA48
12DA48
6D25B0
92DA40
600400
600400
901A00
600400
F01E00
901A00
600400
901A00
901A00
600400
901A00
600400
600400
92DA00
6D2400
6D2400
12D800
ENDCHAR
STARTCHAR 01AF
ENCODING 431
SWIDTH 936 0
DWIDTH 26 0
BBX 24 24 2 0
BITMAP
00000B
00000B
000004
90024B
90024B
6001B4
900248
600180
600180
900240
600180
F003C0
900240
600180
900240
900240
600180
900240
6C0580
6C0580
12DA00
0D2400
0D2400
02D800
ENDCHAR
STARTCHAR 01B0
ENCODING 432
SWIDTH 828 0
DWIDTH 23 0
BBX 21 24 2 0
BITMAP
000048
000048
000030
901A48
901A48
6005B0
901A40
600400
600400
901A00
600400
F01E00
901A00
600400
901A00
901A00
600400
901A00
600400
600400
92DA00
6D2400
6D2400
12D800
ENDCHAR
STARTCHAR 01CD
ENCODING 461
SWIDTH 684 0
DWIDTH 19 0
BBX 15 29 2 0
BITMAP
12D8
0C20
0C20
12D8
0D20
02C0
02C0
0000
02C0
02C0
0D20
12D8
6C24
6C24
901A
6004
F01E
901A
6004
92DA
92DA
6D24
92DA
6004
6004
901A
6004
6004
901A
ENDCHAR
STARTCHAR 01CE
ENCODING 462
SWIDTH 684 0
DWIDTH 19 0
BBX 15 29 2 0
BITMAP
12D8
0C20
0C20
12D8
0D20
02C0
02C0
0000
12D8
12D8
6D24
92DA
6004
6004
901A
6004
F01E
901A
6004
92DA
92DA
6D24
92DA
6004
6004
901A
6004
6004
901A
ENDCHAR
STARTCHAR 01CF
ENCODING 463
SWIDTH 468 0
DWIDTH 13 0
BBX 10 29 2 0
BITMAP
92C0
6100
6100
92C0
6D00
1200
1200
0000
92C0
92C0
6D00
92C0
0C00
0C00
1200
0C00
1E00
1200
0C00
1200
1200
0C00
1200
0C00
0C00
92C0
6D00
6D00
92C0
ENDCHAR
STARTCHAR 01D0
ENCODING 464
SWIDTH 288 0
DWIDTH 8 0
BBX 10 29 -1 0
BITMAP
D240
2180
2180
D240
2D80
1200
1200
0000
1200
1200
0C00
1200
0C00
0C00
1200
0C00
1E00
1200
0C00
1200
1200
0C00
1200
0C00
0C00
1200
0C00
0C00
1200
ENDCHAR
STARTCHAR 01D1
ENCODING 465
SWIDTH 792 0
DWIDTH 22 0
BBX 18 29 2 0
BITMAP
0D2400
021800
021800
0D2400
02D800
012000
012000
000000
02D800
02D800
0D2400
12DA00
6C0580
6C0580
900240
600180
F003C0
900240
600180
900240
900240
600180
900240
6C0580
6C0580
12DA00
0D2400
0D2400
02D800
ENDCHAR
STARTCHAR 01D2
ENCODING 466
SWIDTH 684 0
DWIDTH 19 0
BBX 15 29 2 0
BITMAP
12D8
0C20
0C20
12D8
0D20
02C0
02C0
0000
12D8
12D8
6D24
92DA
6004
6004
901A
6004
F01E
901A
6004
901A
901A
6004
901A
6004
6004
92DA
6D24
6D24
12D8
ENDCHAR
STARTCHAR 01D3
ENCODING 467
SWIDTH 792 0
DWIDTH 22 0
BBX 18 29 2 0
BITMAP
0D2400
021800
021800
0D2400
02D800
012000
012000
000000
900240
900240
600180
900240
600180
600180
900240
600180
F003C0
900240
600180
900240
900240
600180
900240
6C0580
6C0580
12DA00
0D2400
0D2400
02D800
ENDCHAR
STARTCHAR 01D4
ENCODING 468
SWIDTH 684 0
DWIDTH 19 0
BBX 15 29 2 0
BITMAP
12D8
0C20
0C20
12D8
0D20
02C0
02C0
0000
901A
901A
6004
901A
6004
6004
901A
6004
F01E
901A
6004
901A
901A
6004
901A
6004
6004
92DA
6D24
6D24
12D8
ENDCHAR
STARTCHAR 01D5
ENCODING 469
SWIDTH 792 0
DWIDTH 22 0
BBX 18 32 2 0
BITMAP
0D2400
02D800
02D800
0D2400
000000
000000
0D2400
021800
0D2400
0D2400
000000
900240
900240
600180
900240
600180
600180
900240
600180
F003C0
900240
600180
900240
900240
600180
900240
6C0580
6C0580
12DA00
0D2400
0D2400
02D800
ENDCHAR
STARTCHAR 01D6
ENCODING 470
SWIDTH 684 0
DWIDTH 19 0
BBX 15 32 2 0
BITMAP
12D8
0D20
0D20
12D8
0000
0000
12D8
0C20
12D8
12D8
0000
901A
901A
6004
901A
6004
6004
901A
6004
F01E
901A
6004
901A
901A
6004
901A
6004
6004
92DA
6D24
6D24
12D8
ENDCHAR
STARTCHAR 01D7
ENCODING 471
SWIDTH 792 0
DWIDTH 22 0
BBX 18 35 2 0
BITMAP
001A00
001A00
002400
00D800
012000
012000
02C000
000000
000000
0D2400
021800
0D2400
0D2400
000000
900240
900240
600180
900240
600180
600180
900240
600180
F003C0
900240
600180
900240
900240
600180
900240
6C0580
6C0580
12DA00
0D2400
0D2400
02D800
ENDCHAR
STARTCHAR 01D8
ENCODING 472
SWIDTH 684 0
DWIDTH 19 0
BBX 15 35 2 0
BITMAP
0024
0024
00D8
0120
02C0
02C0
0D00
0000
0000
12D8
0C20
12D8
12D8
0000
901A
901A
6004
901A
6004
6004
901A
6004
F01E
901A
6004
901A
901A
6004
901A
6004
6004
92DA
6D24
6D24
12D8
ENDCHAR
STARTCHAR 01D9
ENCODING 473
SWIDTH 792 0
DWIDTH 22 0
BBX 18 35 2 0
BITMAP
0D2400
0D2400
021800
0D2400
02D800
02D800
012000
000000
000000
0D2400
021800
0D2400
0D2400
000000
900240
900240
600180
900240
600180
600180
900240
600180
F003C0
900240
600180
900240
900240
600180
900240
6C0580
6C0580
12DA00
0D2400
0D2400
02D800
ENDCHAR
STARTCHAR 01DA
ENCODING 474
SWIDTH 684 0
DWIDTH 19 0
BBX 15 35 2 0
BITMAP
12D8
12D8
0C20
12D8
0D20
0D20
02C0
0000
0000
12D8
0C20
12D8
12D8
0000
901A
901A
6004
901A
6004
6004
901A
6004
F01E
901A
6004
901A
901A
6004
901A
6004
6004
92DA
6D24
6D24
12D8
ENDCHAR
STARTCHAR 01DB
ENCODING 475
SWIDTH 792 0
DWIDTH 22 0
BBX 18 35 2 0
BITMAP
6C0000
6C0000
120000
0D0000
02C000
02C000
012000
000000
000000
0D2400
021800
0D2400
0D2400
000000
900240
900240
600180
900240
600180
600180
900240
600180
F003C0
900240
600180
900240
900240
600180
900240
6C0580
6C0580
12DA00
0D2400
0D2400
02D800
ENDCHAR
STARTCHAR 01DC
ENCODING 476
SWIDTH 684 0
DWIDTH 19 0
BBX 15 35 2 0
BITMAP
9000
9000
6C00
1200
0D00
0D00
02C0
0000
0000
12D8
0C20
12D8
12D8
0000
901A
901A
6004
901A
6004
6004
901A
6004
F01E
901A
6004
901A
901A
6004
901A
6004
6004
92DA
6D24
6D24
12D8
ENDCHAR
STARTCHAR 0218
ENCODING 536
SWIDTH 684 0
DWIDTH 19 0
BBX 15 29 2 -8
BITMAP
12D8
12D8
6D24
92DA
6004
6004
901A
6000
F2D8
92D8
6D24
12DA
12DA
0004
901A
6004
6004
92DA
6D24
6D24
12D8
0000
02C0
02C0
0100
02C0
02C0
0100
0200
ENDCHAR
STARTCHAR 0219
ENCODING 537
SWIDTH 684 0
DWIDTH 19 0
BBX 15 29 2 -8
BITMAP
12D8
12D8
6D24
92DA
6004
6004
901A
6000
F2D8
92D8
6D24
12DA
12DA
0004
901A
6004
6004
92DA
6D24
6D24
12D8
0000
02C0
02C0
0100
02C0
02C0
0100
0200
ENDCHAR
STARTCHAR 021A
ENCODING 538
SWIDTH 684 0
DWIDTH 19 0
BBX 15 29 2 -8
BITMAP
92DA
92DA
6D24
92DA
0100
0100
02C0
0100
03C0
02C0
0100
02C0
02C0
0100
02C0
0100
0100
02C0
0100
0100
02C0
0000
02C0
02C0
0100
02C0
02C0
0100
0200
ENDCHAR
STARTCHAR 021B
ENCODING 539
SWIDTH 684 0
DWIDTH 19 0
BBX 15 29 2 -8
BITMAP
92DA
92DA
6D24
92DA
0100
0100
02C0
0100
03C0
02C0
0100
02C0
02C0
0100
02C0
0100
0100
02C0
0100
0100
02C0
0000
02C0
02C0
0100
02C0
02C0
0100
0200
ENDCHAR
STARTCHAR 02BC
ENCODING 700
SWIDTH 180 0
DWIDTH 5 0
BBX 4 7 1 14
BITMAP
B0
B0
40
B0
40
40
80
ENDCHAR
STARTCHAR 02C6
ENCODING 710
SWIDTH 396 0
DWIDTH 11 0
BBX 9 7 1 22
BITMAP
3600
4900
4900
B680
4100
B680
B680
ENDCHAR
STARTCHAR 02C7
ENCODING 711
SWIDTH 396 0
DWIDTH 11 0
BBX 9 7 1 22
BITMAP
B680
4100
4100
B680
4900
3600
3600
ENDCHAR
STARTCHAR 02D8
ENCODING 728
SWIDTH 468 0
DWIDTH 13 0
BBX 12 7 1 22
BITMAP
B090
4060
4060
B690
4960
3680
3680
ENDCHAR
STARTCHAR 02D9
ENCODING 729
SWIDTH 180 0
DWIDTH 5 0
BBX 4 4 1 22
BITMAP
B0
40
B0
B0
ENDCHAR
STARTCHAR 02DA
ENCODING 730
SWIDTH 468 0
DWIDTH 13 0
BBX 12 13 1 22
BITMAP
3680
3680
4960
B690
4060
4060
B090
4060
4060
B690
4960
3680
3680
ENDCHAR
STARTCHAR 02DB
ENCODING 731
SWIDTH 216 0
DWIDTH 6 0
BBX 7 6 2 -6
BITMAP
60
92
92
6C
12
12
ENDCHAR
STARTCHAR 02DC
ENCODING 732
SWIDTH 576 0
DWIDTH 16 0
BBX 15 7 1 22
BITMAP
3612
490C
490C
B692
416C
B090
B090
ENDCHAR
STARTCHAR 02DD
ENCODING 733
SWIDTH 648 0
DWIDTH 18 0
BBX 18 7 1 22
BITMAP
0682C0
090D00
090D00
361200
486C00
B09000
B09000
ENDCHAR
STARTCHAR 0300
ENCODING 768
SWIDTH 0 0
DWIDTH 0 0
BBX 10 7 -12 22
BITMAP
D000
2C00
2C00
1200
0D80
0240
0240
ENDCHAR
STARTCHAR 0301
ENCODING 769
SWIDTH 0 0
DWIDTH 0 0
BBX 10 7 -9 22
BITMAP
02C0
0D00
0D00
1200
6C00
9000
9000
ENDCHAR
STARTCHAR 0302
ENCODING 770
SWIDTH 0 0
DWIDTH 0 0
BBX 9 7 -10 22
BITMAP
3600
4900
4900
B680
4100
B680
B680
ENDCHAR
STARTCHAR 0303
ENCODING 771
SWIDTH 0 0
DWIDTH 0 0
BBX 15 7 -16 22
BITMAP
121A
6D04
6D04
92DA
6124
90D8
90D8
ENDCHAR
STARTCHAR 0304
ENCODING 772
SWIDTH 0 0
DWIDTH 0 0
BBX 9 4 -10 22
BITMAP
B680
4900
B680
B680
ENDCHAR
STARTCHAR 0306
ENCODING 774
SWIDTH 0 0
DWIDTH 0 0
BBX 12 7 -13 22
BITMAP
90D0
6020
6020
96D0
6920
16C0
16C0
ENDCHAR
STARTCHAR 0307
ENCODING 775
SWIDTH 0 0
DWIDTH 0 0
BBX 4 4 -5 22
BITMAP
D0
20
D0
D0
ENDCHAR
STARTCHAR 0308
ENCODING 776
SWIDTH 0 0
DWIDTH 0 0
BBX 9 4 -10 22
BITMAP
B680
4100
B680
B680
ENDCHAR
STARTCHAR 0309
ENCODING 777
SWIDTH 0 0
DWIDTH 0 0
BBX 9 10 -10 22
BITMAP
B600
4900
4900
B680
0100
0100
3680
0900
3600
3600
ENDCHAR
STARTCHAR 030A
ENCODING 778
SWIDTH 0 0
DWIDTH 0 0
BBX 12 13 -13 22
BITMAP
16C0
16C0
6920
96D0
6020
6020
90D0
6020
6020
96D0
6920
16C0
16C0
ENDCHAR
STARTCHAR 030B
ENCODING 779
SWIDTH 0 0
DWIDTH 0 0
BBX 18 7 -17 22
BITMAP
0682C0
090D00
090D00
361200
486C00
B09000
B09000
ENDCHAR
STARTCHAR 030C
ENCODING 780
SWIDTH 0 0
DWIDTH 0 0
BBX 9 7 -10 22
BITMAP
B680
4100
4100
B680
4900
3600
3600
ENDCHAR
STARTCHAR 031B
ENCODING 795
SWIDTH 0 0
DWIDTH 0 0
BBX 9 7 -10 17
BITMAP
0680
0680
0100
B680
B680
4900
B600
ENDCHAR
STARTCHAR 0323
ENCODING 803
SWIDTH 0 0
DWIDTH 0 0
BBX 4 5 -5 -6
BITMAP
D0
D0
20
D0
D0
ENDCHAR
STARTCHAR 0326
ENCODING 806
SWIDTH 0 0
DWIDTH 0 0
BBX 4 7 -5 -8
BITMAP
D0
D0
20
D0
D0
20
C0
ENDCHAR
STARTCHAR 0327
ENCODING 807
SWIDTH 0 0
DWIDTH 0 0
BBX 7 6 -8 -6
BITMAP
04
DA
DA
24
D8
D8
ENDCHAR
STARTCHAR 0328
ENCODING 808
SWIDTH 0 0
DWIDTH 0 0
BBX 7 6 -5 -6
BITMAP
20
D2
D2
2C
12
12
ENDCHAR
STARTCHAR 0335
ENCODING 821
SWIDTH 0 0
DWIDTH 0 0
BBX 10 5 -12 8
BITMAP
D240
D240
2D80
D240
D240
ENDCHAR
STARTCHAR 0336
ENCODING 822
SWIDTH 0 0
DWIDTH 0 0
BBX 23 4 -24 14
BITMAP
B692DA
496D24
496D24
B692DA
ENDCHAR
STARTCHAR 0337
ENCODING 823
SWIDTH 0 0
DWIDTH 0 0
BBX 10 5 -12 8
BITMAP
D240
D240
2D80
D240
D240
ENDCHAR
STARTCHAR 0338
ENCODING 824
SWIDTH 0 0
DWIDTH 0 0
BBX 9 21 -10 0
BITMAP
0680
0680
0100
0680
0900
0900
0600
0900
3F00
3600
0800
3600
3600
4800
3000
4800
4800
B000
4000
4000
B000
ENDCHAR
STARTCHAR 0401
ENCODING 1025
SWIDTH 684 0
DWIDTH 19 0
BBX 15 26 2 0
BITMAP
12D8
0C20
12D8
12D8
0000
02DA
02DA
0D24
12DA
6C00
6C00
9000
6000
F2D8
92D8
6D20
92D8
92D8
6000
9000
6C00
6C00
12DA
0D24
0D24
02DA
ENDCHAR
STARTCHAR 0410
ENCODING 1040
SWIDTH 684 0
DWIDTH 19 0
BBX 15 21 2 0
BITMAP
02C0
02C0
0D20
12D8
6C24
6C24
901A
6004
F01E
901A
6004
92DA
92DA
6D24
92DA
6004
6004
901A
6004
6004
901A
ENDCHAR
STARTCHAR 0411
ENCODING 1041
SWIDTH 684 0
DWIDTH 19 0
BBX 15 21 2 0
BITMAP
92DA
92DA
6D24
92DA
6000
6000
9000
6000
F2D8
92D8
6D24
92DA
92DA
6004
901A
6004
6004
92DA
6D24
6D24
12D8
ENDCHAR
STARTCHAR 0412
ENCODING 1042
SWIDTH 684 0
DWIDTH 19 0
BBX 15 21 2 0
BITMAP
92D8
92D8
6D24
92DA
6004
6004
901A
6024
F2FC
92D8
6D24
92DA
92DA
6004
901A
6004
6004
92DA
6D24
6D24
92D8
ENDCHAR
STARTCHAR 0413
ENCODING 1043
SWIDTH 684 0
DWIDTH 19 0
BBX 15 21 2 0
BITMAP
12DA
12DA
6D24
92DA
6000
6000
9000
6000
F000
9000
6000
9000
9000
6000
9000
6000
6000
9000
6000
6000
9000
ENDCHAR
STARTCHAR 0414
ENCODING 1044
SWIDTH 792 0
DWIDTH 22 0
BBX 21 24 1 -3
BITMAP
0692C0
0692C0
096D00
3692C0
080100
080100
3602C0
080100
3E03C0
3602C0
080100
3602C0
3602C0
080100
3602C0
080100
080100
3692C0
496D20
496D20
B692D8
400020
B000D8
B000D8
ENDCHAR
STARTCHAR 0415
ENCODING 1045
SWIDTH 684 0
DWIDTH 19 0
BBX 15 21 2 0
BITMAP
02DA
02DA
0D24
12DA
6C00
6C00
9000
6000
F2D8
92D8
6D20
92D8
92D8
6000
9000
6C00
6C00
12DA
0D24
0D24
02DA
ENDCHAR
STARTCHAR 0416
ENCODING 1046
SWIDTH 1080 0
DWIDTH 30 0
BBX 26 21 2 0
BITMAP
901A0340
901A0340
60040080
901A0340
6C040480
6C040480
121A0B00
0D043400
0FDE7C00
02DA4800
0125B000
02DA4800
02DA4800
0D043400
121A0B00
6C040480
6C040480
901A0340
60040080
60040080
901A0340
ENDCHAR
STARTCHAR 0417
ENCODING 1047
SWIDTH 792 0
DWIDTH 22 0
BBX 18 21 2 0
BITMAP
02D800
02D800
0D2400
12DA00
6C0580
6C0580
900240
000580
02DF80
02DA00
012400
02DA00
02DA00
000580
900240
6C0580
6C0580
12DA00
0D2400
0D2400
02D800
ENDCHAR
STARTCHAR 0418
ENCODING 1048
SWIDTH 792 0
DWIDTH 22 0
BBX 18 21 2 0
BITMAP
900240
900240
600180
900240
600180
600180
900240
600580
F01FC0
901A40
602580
90DA40
90DA40
612180
92C240
6D0180
6D0180
920240
6C0180
6C0180
900240
ENDCHAR
STARTCHAR 0419
ENCODING 1049
SWIDTH 792 0
DWIDTH 22 0
BBX 18 29 2 0
BITMAP
121A00
0C0400
0C0400
12DA00
0D2400
02D800
02D800
000000
900240
900240
600180
900240
600180
600180
900240
600580
F01FC0
901A40
602580
90DA40
90DA40
612180
92C240
6D0180
6D0180
920240
6C0180
6C0180
900240
ENDCHAR
STARTCHAR 041A
ENCODING 1050
SWIDTH 684 0
DWIDTH 19 0
BBX 15 21 2 0
BITMAP
901A
901A
6004
901A
6024
6024
90D8
6120
F3E0
92C0
6D00
92C0
92C0
6120
90D8
6024
6024
901A
6004
6004
901A
ENDCHAR
STARTCHAR 041B
ENCODING 1051
SWIDTH 792 0
DWIDTH 22 0
BBX 18 21 2 0
BITMAP
02DA00
02DA00
0D2580
12DA40
0C0180
0C0180
120240
0C0180
1E03C0
120240
0C0180
120240
120240
0C0180
120240
0C0180
0C0180
920240
6C0180
6C0180
900240
ENDCHAR
STARTCHAR 041C
ENCODING 1052
SWIDTH 972 0
DWIDTH 27 0
BBX 24 21 2 0
BITMAP
90000B
90000B
6C0034
92004B
6D01B4
6D01B4
92C24B
612584
F1FF8F
90DA0B
602404
90180B
90180B
600004
90000B
600004
600004
90000B
600004
600004
90000B
ENDCHAR
STARTCHAR 041D
ENCODING 1053
SWIDTH 792 0
DWIDTH 22 0
BBX 18 21 2 0
BITMAP
900240
900240
600180
900240
600180
600180
900240
600180
F2DBC0
92DA40
6D2580
92DA40
92DA40
600180
900240
600180
600180
900240
600180
600180
900240
ENDCHAR
STARTCHAR 041E
ENCODING 1054
SWIDTH 792 0
DWIDTH 22 0
BBX 18 21 2 0
BITMAP
02D800
02D800
0D2400
12DA00
6C0580
6C0580
900240
600180
F003C0
900240
600180
900240
900240
600180
900240
6C0580
6C0580
12DA00
0D2400
0D2400
02D800
ENDCHAR
STARTCHAR 041F
ENCODING 1055
SWIDTH 792 0
DWIDTH 22 0
BBX 18 21 2 0
BITMAP
12DA00
12DA00
6D2580
92DA40
600180
600180
900240
600180
F003C0
900240
600180
900240
900240
600180
900240
600180
600180
900240
600180
600180
900240
ENDCHAR
STARTCHAR 0420
ENCODING 1056
SWIDTH 684 0
DWIDTH 19 0
BBX 15 21 2 0
BITMAP
92C0
92C0
6D20
92D8
6024
6024
901A
6004
F01E
901A
6004
901A
901A
6024
92D8
6D20
6D20
92C0
6000
6000
9000
ENDCHAR
STARTCHAR 0421
ENCODING 1057
SWIDTH 792 0
DWIDTH 22 0
BBX 18 21 2 0
BITMAP
02D800
02D800
0D2400
12DA00
6C0580
6C0580
900240
600180
F003C0
900240
600000
900000
900000
600000
900240
6C0580
6C0580
12DA00
0D2400
0D2400
02D800
ENDCHAR
STARTCHAR 0422
ENCODING 1058
SWIDTH 684 0
DWIDTH 19 0
BBX 15 21 2 0
BITMAP
92DA
92DA
6D24
92DA
0100
0100
02C0
0100
03C0
02C0
0100
02C0
02C0
0100
02C0
0100
0100
02C0
0100
0100
02C0
ENDCHAR
STARTCHAR 0423
ENCODING 1059
SWIDTH 684 0
DWIDTH 19 0
BBX 15 21 2 0
BITMAP
901A
901A
6004
901A
6004
6004
901A
6C04
7EDE
12DA
0D24
02DA
02DA
0004
001A
0004
0004
92DA
6D24
6D24
92D8
ENDCHAR
STARTCHAR 0424
ENCODING 1060
SWIDTH 900 0
DWIDTH 25 0
BBX 21 27 2 -3
BITMAP
00D800
00D800
002000
02DA00
02DA00
0D2580
12DA40
6C21B0
6C21B0
90D848
602030
F0F878
90D848
602030
90D848
90D848
602030
90D848
6C21B0
6C21B0
12DA40
0D2580
0D2580
02DA00
002000
00D800
00D800
ENDCHAR
STARTCHAR 0425
ENCODING 1061
SWIDTH 792 0
DWIDTH 22 0
BBX 18 21 2 0
BITMAP
900240
900240
600180
900240
600180
600180
900240
6C0580
7EDF80
12DA00
0D2400
12DA00
12DA00
6C0580
900240
600180
600180
900240
600180
600180
900240
ENDCHAR
STARTCHAR 0426
ENCODING 1062
SWIDTH 828 0
DWIDTH 23 0
BBX 21 24 2 -3
BITMAP
900240
900240
600180
900240
600180
600180
900240
600180
F003C0
900240
600180
900240
900240
600180
900240
600180
600180
92DA40
6D25B0
6D25B0
12DA48
000030
000048
000048
ENDCHAR
STARTCHAR 0427
ENCODING 1063
SWIDTH 684 0
DWIDTH 19 0
BBX 15 21 2 0
BITMAP
901A
901A
6004
901A
6004
6004
901A
6C04
7EDE
12DA
0D24
02DA
02DA
0004
001A
0004
0004
001A
0004
0004
001A
ENDCHAR
STARTCHAR 0428
ENCODING 1064
SWIDTH 1080 0
DWIDTH 30 0
BBX 26 21 2 0
BITMAP
901A0340
901A0340
60040080
901A0340
60040080
60040080
901A0340
60040080
F01E03C0
901A0340
60040080
901A0340
901A0340
60040080
901A0340
60040080
60040080
92DA4B40
6D25B480
6D25B480
12DA4B00
ENDCHAR
STARTCHAR 0429
ENCODING 1065
SWIDTH 1116 0
DWIDTH 31 0
BBX 29 24 2 -3
BITMAP
901A0340
901A0340
60040080
901A0340
60040080
60040080
901A0340
60040080
F01E03C0
901A0340
60040080
901A0340
901A0340
60040080
901A0340
60040080
60040080
92DA4B40
6D25B4B0
6D25B4B0
12DA4B48
00000030
00000048
00000048
ENDCHAR
STARTCHAR 042A
ENCODING 1066
SWIDTH 792 0
DWIDTH 22 0
BBX 18 21 2 0
BITMAP
920000
920000
6C0000
920000
0C0000
0C0000
120000
0C0000
1EDA00
12DA00
0D2580
12DA40
12DA40
0C0180
120240
0C0180
0C0180
12DA40
0D2580
0D2580
02DA00
ENDCHAR
STARTCHAR 042B
ENCODING 1067
SWIDTH 936 0
DWIDTH 26 0
BBX 22 21 2 0
BITMAP
900034
900034
600008
900034
600008
600008
900034
600008
F2D83C
92D834
6D2408
92DA34
92DA34
600408
901A34
600408
600408
92DA34
6D2408
6D2408
12D834
ENDCHAR
STARTCHAR 042C
ENCODING 1068
SWIDTH 684 0
DWIDTH 19 0
BBX 15 21 2 0
BITMAP
9000
9000
6000
9000
6000
6000
9000
6000
F2D8
92D8
6D24
92DA
92DA
6004
901A
6004
6004
92DA
6D24
6D24
12D8
ENDCHAR
STARTCHAR 042D
ENCODING 1069
SWIDTH 792 0
DWIDTH 22 0
BBX 18 21 2 0
BITMAP
02D800
02D800
0D2400
12DA00
6C0580
6C0580
900240
000180
02DBC0
02DA40
012580
02DA40
02DA40
000180
900240
6C0580
6C0580
12DA00
0D2400
0D2400
02D800
ENDCHAR
STARTCHAR 042E
ENCODING 1070
SWIDTH 1080 0
DWIDTH 30 0
BBX 26 21 2 0
BITMAP
90024800
90024800
6005B400
901A4B00
60240480
60240480
90D80340
60200080
F2F803C0
92D80340
6D200080
92D80340
92D80340
60200080
90D80340
60240480
60240480
901A4B00
6005B400
6005B400
90024800
ENDCHAR
STARTCHAR 042F
ENCODING 1071
SWIDTH 684 0
DWIDTH 19 0
BBX 15 21 2 0
BITMAP
02DA
02DA
0D24
12DA
6C04
6C04
901A
6004
F01E
901A
6004
901A
901A
6C04
12DA
0D24
0D24
12DA
6C04
6C04
901A
ENDCHAR
STARTCHAR 0430
ENCODING 1072
SWIDTH 684 0
DWIDTH 19 0
BBX 15 21 2 0
BITMAP
12D8
12D8
6D24
92DA
6004
6004
901A
6004
F01E
901A
6004
92DA
92DA
6D24
92DA
6004
6004
901A
6004
6004
901A
ENDCHAR
STARTCHAR 0431
ENCODING 1073
SWIDTH 684 0
DWIDTH 19 0
BBX 15 21 2 0
BITMAP
92DA
92DA
6D24
92DA
6000
6000
9000
6000
F2D8
92D8
6D24
92DA
92DA
6004
901A
6004
6004
92DA
6D24
6D24
12D8
ENDCHAR
STARTCHAR 0432
ENCODING 1074
SWIDTH 684 0
DWIDTH 19 0
BBX 15 21 2 0
BITMAP
92D8
92D8
6D24
92DA
6004
6004
901A
6024
F2FC
92D8
6D20
92D8
92D8
6024
901A
6004
6004
92DA
6D24
6D24
92D8
ENDCHAR
STARTCHAR 0433
ENCODING 1075
SWIDTH 576 0
DWIDTH 16 0
BBX 13 21 2 0
BITMAP
12D8
12D8
6D20
92D8
6000
6000
9000
6000
F000
9000
6000
9000
9000
6000
9000
6000
6000
9000
6000
6000
9000
ENDCHAR
STARTCHAR 0434
ENCODING 1076
SWIDTH 792 0
DWIDTH 22 0
BBX 21 24 1 -3
BITMAP
0692C0
0692C0
096D00
3692C0
080100
080100
3602C0
080100
3E03C0
3602C0
080100
3602C0
3602C0
080100
3602C0
080100
080100
3692C0
496D20
496D20
B692D8
400020
B000D8
B000D8
ENDCHAR
STARTCHAR 0435
ENCODING 1077
SWIDTH 684 0
DWIDTH 19 0
BBX 15 21 2 0
BITMAP
12DA
12DA
6D24
92DA
6000
6000
9000
6000
F2D8
92D8
6D20
92D8
92D8
6000
9000
6000
6000
92DA
6D24
6D24
12DA
ENDCHAR
STARTCHAR 0436
ENCODING 1078
SWIDTH 1080 0
DWIDTH 30 0
BBX 26 21 2 0
BITMAP
901A0340
901A0340
60040080
901A0340
60040080
60040080
901A0340
6C040480
7EDE4F80
12DA4B00
0D25B400
12DA4B00
12DA4B00
6C040480
901A0340
60040080
60040080
901A0340
60040080
60040080
901A0340
ENDCHAR
STARTCHAR 0437
ENCODING 1079
SWIDTH 684 0
DWIDTH 19 0
BBX 15 21 2 0
BITMAP
12D8
12D8
6D24
92DA
6004
6004
901A
0024
02FC
02D8
0120
02D8
02D8
0024
901A
6004
6004
92DA
6D24
6D24
12D8
ENDCHAR
STARTCHAR 0438
ENCODING 1080
SWIDTH 684 0
DWIDTH 19 0
BBX 15 21 2 0
BITMAP
901A
901A
6004
901A
6004
6004
901A
6004
F01E
901A
6024
90DA
90DA
6124
92DA
6D04
6D04
921A
6C04
6C04
901A
ENDCHAR
STARTCHAR 0439
ENCODING 1081
SWIDTH 684 0
DWIDTH 19 0
BBX 15 29 2 0
BITMAP
6C24
1018
1018
6D24
12D8
0D20
0D20
0000
901A
901A
6004
901A
6004
6004
901A
6004
F01E
901A
6024
90DA
90DA
6124
92DA
6D04
6D04
921A
6C04
6C04
901A
ENDCHAR
STARTCHAR 043A
ENCODING 1082
SWIDTH 684 0
DWIDTH 19 0
BBX 15 21 2 0
BITMAP
901A
901A
6004
901A
6004
6004
901A
6024
F2FC
92D8
6D20
92D8
92D8
6024
901A
6004
6004
901A
6004
6004
901A
ENDCHAR
STARTCHAR 043B
ENCODING 1083
SWIDTH 792 0
DWIDTH 22 0
BBX 18 21 2 0
BITMAP
02DA00
02DA00
0D2580
12DA40
0C0180
0C0180
120240
0C0180
1E03C0
120240
0C0180
120240
120240
0C0180
120240
0C0180
0C0180
920240
6C0180
6C0180
900240
ENDCHAR
STARTCHAR 043C
ENCODING 1084
SWIDTH 900 0
DWIDTH 25 0
BBX 21 21 2 0
BITMAP
900048
900048
6C01B0
920248
6D05B0
6D05B0
92DA48
612430
F1FC78
90D848
602030
900048
900048
600030
900048
600030
600030
900048
600030
600030
900048
ENDCHAR
STARTCHAR 043D
ENCODING 1085
SWIDTH 684 0
DWIDTH 19 0
BBX 15 21 2 0
BITMAP
901A
901A
6004
901A
6004
6004
901A
6004
F2DE
92DA
6D24
92DA
92DA
6004
901A
6004
6004
901A
6004
6004
901A
ENDCHAR
STARTCHAR 043E
ENCODING 1086
SWIDTH 684 0
DWIDTH 19 0
BBX 15 21 2 0
BITMAP
12D8
12D8
6D24
92DA
6004
6004
901A
6004
F01E
901A
6004
901A
901A
6004
901A
6004
6004
92DA
6D24
6D24
12D8
ENDCHAR
STARTCHAR 043F
ENCODING 1087
SWIDTH 684 0
DWIDTH 19 0
BBX 15 21 2 0
BITMAP
12D8
12D8
6D24
92DA
6004
6004
901A
6004
F01E
901A
6004
901A
901A
6004
901A
6004
6004
901A
6004
6004
901A
ENDCHAR
STARTCHAR 0440
ENCODING 1088
SWIDTH 684 0
DWIDTH 19 0
BBX 15 21 2 0
BITMAP
92D8
92D8
6D24
92DA
6004
6004
901A
6004
F01E
901A
6004
92DA
92DA
6D24
92D8
6000
6000
9000
6000
6000
9000
ENDCHAR
STARTCHAR 0441
ENCODING 1089
SWIDTH 684 0
DWIDTH 19 0
BBX 15 21 2 0
BITMAP
12D8
12D8
6D24
92DA
6004
6004
901A
6004
F01E
901A
6000
9000
9000
6000
901A
6004
6004
92DA
6D24
6D24
12D8
ENDCHAR
STARTCHAR 0442
ENCODING 1090
SWIDTH 684 0
DWIDTH 19 0
BBX 15 21 2 0
BITMAP
92DA
92DA
6D24
92DA
0100
0100
02C0
0100
03C0
02C0
0100
02C0
02C0
0100
02C0
0100
0100
02C0
0100
0100
02C0
ENDCHAR
STARTCHAR 0443
ENCODING 1091
SWIDTH 684 0
DWIDTH 19 0
BBX 15 21 2 0
BITMAP
901A
901A
6004
901A
6004
6004
901A
6004
F2DE
92DA
6D24
12DA
12DA
0004
001A
0004
0004
92DA
6D24
6D24
92D8
ENDCHAR
STARTCHAR 0444
ENCODING 1092
SWIDTH 900 0
DWIDTH 25 0
BBX 21 27 2 -3
BITMAP
00D800
00D800
002000
12DA40
12DA40
6D25B0
92DA48
602030
602030
90D848
602030
F0F878
90D848
602030
90D848
90D848
602030
90D848
602030
602030
92DA48
6D25B0
6D25B0
12DA40
002000
00D800
00D800
ENDCHAR
STARTCHAR 0445
ENCODING 1093
SWIDTH 684 0
DWIDTH 19 0
BBX 15 21 2 0
BITMAP
901A
901A
6004
901A
6004
6004
901A
6C24
7EFC
12D8
0D20
12D8
12D8
6C24
901A
6004
6004
901A
6004
6004
901A
ENDCHAR
STARTCHAR 0446
ENCODING 1094
SWIDTH 720 0
DWIDTH 20 0
BBX 18 24 2 -3
BITMAP
901A00
901A00
600400
901A00
600400
600400
901A00
600400
F01E00
901A00
600400
901A00
901A00
600400
901A00
600400
600400
92DA00
6D2580
6D2580
12DA40
000180
000240
000240
ENDCHAR
STARTCHAR 0447
ENCODING 1095
SWIDTH 684 0
DWIDTH 19 0
BBX 15 21 2 0
BITMAP
901A
901A
6004
901A
6004
6004
901A
6004
F2DE
92DA
6D24
12DA
12DA
0004
001A
0004
0004
001A
0004
0004
001A
ENDCHAR
STARTCHAR 0448
ENCODING 1096
SWIDTH 900 0
DWIDTH 25 0
BBX 21 21 2 0
BITMAP
90D848
90D848
602030
90D848
602030
602030
90D848
602030
F0F878
90D848
602030
90D848
90D848
602030
90D848
602030
602030
92DA48
6D25B0
6D25B0
12DA40
ENDCHAR
STARTCHAR 0449
ENCODING 1097
SWIDTH 936 0
DWIDTH 26 0
BBX 24 24 2 -3
BITMAP
90D848
90D848
602030
90D848
602030
602030
90D848
602030
F0F878
90D848
602030
90D848
90D848
602030
90D848
602030
602030
92DA48
6D25B4
6D25B4
12DA4B
000004
00000B
00000B
ENDCHAR
STARTCHAR 044A
ENCODING 1098
SWIDTH 792 0
DWIDTH 22 0
BBX 18 21 2 0
BITMAP
920000
920000
6C0000
920000
0C0000
0C0000
120000
0C0000
1EDA00
12DA00
0D2580
12DA40
12DA40
0C0180
120240
0C0180
0C0180
12DA40
0D2580
0D2580
02DA00
ENDCHAR
STARTCHAR 044B
ENCODING 1099
SWIDTH 936 0
DWIDTH 26 0
BBX 22 21 2 0
BITMAP
900034
900034
600008
900034
600008
600008
900034
600008
F2D83C
92D834
6D2408
92DA34
92DA34
600408
901A34
600408
600408
92DA34
6D2408
6D2408
12D834
ENDCHAR
STARTCHAR 044C
ENCODING 1100
SWIDTH 684 0
DWIDTH 19 0
BBX 15 21 2 0
BITMAP
9000
9000
6000
9000
6000
6000
9000
6000
F2D8
92D8
6D24
92DA
92DA
6004
901A
6004
6004
92DA
6D24
6D24
12D8
ENDCHAR
STARTCHAR 044D
ENCODING 1101
SWIDTH 792 0
DWIDTH 22 0
BBX 18 21 2 0
BITMAP
12DA00
12DA00
6D2580
92DA40
600180
600180
900240
000180
02DBC0
02DA40
012580
02DA40
02DA40
000180
900240
600180
600180
92DA40
6D2580
6D2580
12DA00
ENDCHAR
STARTCHAR 044E
ENCODING 1102
SWIDTH 972 0
DWIDTH 27 0
BBX 24 21 2 0
BITMAP
901A48
901A48
6025B4
90DA4B
602004
602004
90D80B
602004
F2F80F
92D80B
6D2004
92D80B
92D80B
602004
90D80B
602004
602004
90DA4B
6025B4
6025B4
901A48
ENDCHAR
STARTCHAR 044F
ENCODING 1103
SWIDTH 684 0
DWIDTH 19 0
BBX 15 21 2 0
BITMAP
12DA
12DA
6D24
92DA
6004
6004
901A
6004
F01E
901A
6004
92DA
92DA
6D24
12DA
6C04
6C04
901A
6004
6004
901A
ENDCHAR
STARTCHAR 0451
ENCODING 1105
SWIDTH 684 0
DWIDTH 19 0
BBX 15 26 2 0
BITMAP
12D8
0C20
12D8
12D8
0000
12DA
12DA
6D24
92DA
6000
6000
9000
6000
F2D8
92D8
6D20
92D8
92D8
6000
9000
6000
6000
92DA
6D24
6D24
12DA
ENDCHAR
STARTCHAR 1E80
ENCODING 7808
SWIDTH 1080 0
DWIDTH 30 0
BBX 26 29 2 0
BITMAP
02C00000
01200000
01200000
00D80000
00240000
001A0000
001A0000
00000000
901A0340
901A0340
60040080
901A0340
60040080
60040080
901A0340
60040080
F01E03C0
901A0340
60040080
901A0340
901A0340
60040080
901A0340
6C258480
6C258480
12DA4B00
0D21B400
0D21B400
02C04800
ENDCHAR
STARTCHAR 1E81
ENCODING 7809
SWIDTH 1080 0
DWIDTH 30 0
BBX 26 29 2 0
BITMAP
02C00000
01200000
01200000
00D80000
00240000
001A0000
001A0000
00000000
901A0340
901A0340
60040080
901A0340
60040080
60040080
901A0340
60040080
F01E03C0
901A0340
60040080
901A0340
901A0340
60040080
901A0340
60258080
60258080
92DA4B40
6D21B480
6D21B480
12C04B00
ENDCHAR
STARTCHAR 1E82
ENCODING 7810
SWIDTH 1080 0
DWIDTH 30 0
BBX 26 29 2 0
BITMAP
0001B000
00024000
00024000
00058000
001A0000
00240000
00240000
00000000
901A0340
901A0340
60040080
901A0340
60040080
60040080
901A0340
60040080
F01E03C0
901A0340
60040080
901A0340
901A0340
60040080
901A0340
6C258480
6C258480
12DA4B00
0D21B400
0D21B400
02C04800
ENDCHAR
STARTCHAR 1E83
ENCODING 7811
SWIDTH 1080 0
DWIDTH 30 0
BBX 26 29 2 0
BITMAP
0001B000
00024000
00024000
00058000
001A0000
00240000
00240000
00000000
901A0340
901A0340
60040080
901A0340
60040080
60040080
901A0340
60040080
F01E03C0
901A0340
60040080
901A0340
901A0340
60040080
901A0340
60258080
60258080
92DA4B40
6D21B480
6D21B480
12C04B00
ENDCHAR
STARTCHAR 1E84
ENCODING 7812
SWIDTH 1080 0
DWIDTH 30 0
BBX 26 26 2 0
BITMAP
00DA4000
00218000
00DA4000
00DA4000
00000000
901A0340
901A0340
60040080
901A0340
60040080
60040080
901A0340
60040080
F01E03C0
901A0340
60040080
901A0340
901A0340
60040080
901A0340
6C258480
6C258480
12DA4B00
0D21B400
0D21B400
02C04800
ENDCHAR
STARTCHAR 1E85
ENCODING 7813
SWIDTH 1080 0
DWIDTH 30 0
BBX 26 26 2 0
BITMAP
00DA4000
00218000
00DA4000
00DA4000
00000000
901A0340
901A0340
60040080
901A0340
60040080
60040080
901A0340
60040080
F01E03C0
901A0340
60040080
901A0340
901A0340
60040080
901A0340
60258080
60258080
92DA4B40
6D21B480
6D21B480
12C04B00
ENDCHAR
STARTCHAR 1E9E
ENCODING 7838
SWIDTH 684 0
DWIDTH 19 0
BBX 15 21 2 0
BITMAP
12D8
12D8
6D24
92DA
6004
6004
901A
6024
F2FC
92D8
6124
92DA
92DA
6004
901A
6004
6004
92DA
6124
6124
92D8
ENDCHAR
STARTCHAR 1EA0
ENCODING 7840
SWIDTH 684 0
DWIDTH 19 0
BBX 15 27 2 -6
BITMAP
02C0
02C0
0D20
12D8
6C24
6C24
901A
6004
F01E
901A
6004
92DA
92DA
6D24
92DA
6004
6004
901A
6004
6004
901A
0000
02C0
02C0
0100
02C0
02C0
ENDCHAR
STARTCHAR 1EA1
ENCODING 7841
SWIDTH 684 0
DWIDTH 19 0
BBX 15 27 2 -6
BITMAP
12D8
12D8
6D24
92DA
6004
6004
901A
6004
F01E
901A
6004
92DA
92DA
6D24
92DA
6004
6004
901A
6004
6004
901A
0000
02C0
02C0
0100
02C0
02C0
ENDCHAR
STARTCHAR 1EA2
ENCODING 7842
SWIDTH 684 0
DWIDTH 19 0
BBX 15 32 2 0
BITMAP
12C0
0D20
0D20
12D8
0020
0020
02D8
0120
02C0
02C0
0000
02C0
02C0
0D20
12D8
6C24
6C24
901A
6004
F01E
901A
6004
92DA
92DA
6D24
92DA
6004
6004
901A
6004
6004
901A
ENDCHAR
STARTCHAR 1EA3
ENCODING 7843
SWIDTH 684 0
DWIDTH 19 0
BBX 15 32 2 0
BITMAP
12C0
0D20
0D20
12D8
0020
0020
02D8
0120
02C0
02C0
0000
12D8
12D8
6D24
92DA
6004
6004
901A
6004
F01E
901A
6004
92DA
92DA
6D24
92DA
6004
6004
901A
6004
6004
901A
ENDCHAR
STARTCHAR 1EA4
ENCODING 7844
SWIDTH 684 0
DWIDTH 19 0
BBX 15 38 2 0
BITMAP
0024
0024
00D8
0120
0120
02C0
0D00
0000
0000
02C0
0D20
0D20
12D8
0C20
12D8
12D8
0000
02C0
02C0
0D20
12D8
6C24
6C24
901A
6004
F01E
901A
6004
92DA
92DA
6D24
92DA
6004
6004
901A
6004
6004
901A
ENDCHAR
STARTCHAR 1EA5
ENCODING 7845
SWIDTH 684 0
DWIDTH 19 0
BBX 15 38 2 0
BITMAP
0024
0024
00D8
0120
0120
02C0
0D00
0000
0000
02C0
0D20
0D20
12D8
0C20
12D8
12D8
0000
12D8
12D8
6D24
92DA
6004
6004
901A
6004
F01E
901A
6004
92DA
92DA
6D24
92DA
6004
6004
901A
6004
6004
901A
ENDCHAR
STARTCHAR 1EA6
ENCODING 7846
SWIDTH 684 0
DWIDTH 19 0
BBX 15 38 2 0
BITMAP
9000
9000
6C00
1200
1200
0D00
02C0
0000
0000
02C0
0D20
0D20
12D8
0C20
12D8
12D8
0000
02C0
02C0
0D20
12D8
6C24
6C24
901A
6004
F01E
901A
6004
92DA
92DA
6D24
92DA
6004
6004
901A
6004
6004
901A
ENDCHAR
STARTCHAR 1EA7
ENCODING 7847
SWIDTH 684 0
DWIDTH 19 0
BBX 15 38 2 0
BITMAP
9000
9000
6C00
1200
1200
0D00
02C0
0000
0000
02C0
0D20
0D20
12D8
0C20
12D8
12D8
0000
12D8
12D8
6D24
92DA
6004
6004
901A
6004
F01E
901A
6004
92DA
92DA
6D24
92DA
6004
6004
901A
6004
6004
901A
ENDCHAR
STARTCHAR 1EA8
ENCODING 7848
SWIDTH 684 0
DWIDTH 19 0
BBX 15 40 2 0
BITMAP
12C0
0D20
1FF8
12D8
0020
02D8
02D8
0120
02C0
0000
0000
02C0
0D20
0D20
12D8
0C20
12D8
12D8
0000
02C0
02C0
0D20
12D8
6C24
6C24
901A
6004
F01E
901A
6004
92DA
92DA
6D24
92DA
6004
6004
901A
6004
6004
901A
ENDCHAR
STARTCHAR 1EA9
ENCODING 7849
SWIDTH 684 0
DWIDTH 19 0
BBX 15 40 2 0
BITMAP
12C0
0D20
1FF8
12D8
0020
02D8
02D8
0120
02C0
0000
0000
02C0
0D20
0D20
12D8
0C20
12D8
12D8
0000
12D8
12D8
6D24
92DA
6004
6004
901A
6004
F01E
901A
6004
92DA
92DA
6D24
92DA
6004
6004
901A
6004
6004
901A
ENDCHAR
STARTCHAR 1EAA
ENCODING 7850
SWIDTH 684 0
DWIDTH 19 0
BBX 15 38 2 0
BITMAP
121A
121A
6D04
92DA
92DA
6124
90D8
0000
0000
02C0
0D20
0D20
12D8
0C20
12D8
12D8
0000
02C0
02C0
0D20
12D8
6C24
6C24
901A
6004
F01E
901A
6004
92DA
92DA
6D24
92DA
6004
6004
901A
6004
6004
901A
ENDCHAR
STARTCHAR 1EAB
ENCODING 7851
SWIDTH 684 0
DWIDTH 19 0
BBX 15 38 2 0
BITMAP
121A
121A
6D04
92DA
92DA
6124
90D8
0000
0000
02C0
0D20
0D20
12D8
0C20
12D8
12D8
0000
12D8
12D8
6D24
92DA
6004
6004
901A
6004
F01E
901A
6004
92DA
92DA
6D24
92DA
6004
6004
901A
6004
6004
901A
ENDCHAR
STARTCHAR 1EAC
ENCODING 7852
SWIDTH 684 0
DWIDTH 19 0
BBX 15 35 2 -6
BITMAP
02C0
0D20
0D20
12D8
0C20
12D8
12D8
0000
02C0
02C0
0D20
12D8
6C24
6C24
901A
6004
F01E
901A
6004
92DA
92DA
6D24
92DA
6004
6004
901A
6004
6004
901A
0000
02C0
02C0
0100
02C0
02C0
ENDCHAR
STARTCHAR 1EAD
ENCODING 7853
SWIDTH 684 0
DWIDTH 19 0
BBX 15 35 2 -6
BITMAP
02C0
0D20
0D20
12D8
0C20
12D8
12D8
0000
12D8
12D8
6D24
92DA
6004
6004
901A
6004
F01E
901A
6004
92DA
92DA
6D24
92DA
6004
6004
901A
6004
6004
901A
0000
02C0
02C0
0100
02C0
02C0
ENDCHAR
STARTCHAR 1EAE
ENCODING 7854
SWIDTH 684 0
DWIDTH 19 0
BBX 15 38 2 0
BITMAP
0024
0024
00D8
0120
0120
02C0
0D00
0000
0000
6C24
1018
1018
6D24
12D8
0D20
0D20
0000
02C0
02C0
0D20
12D8
6C24
6C24
901A
6004
F01E
901A
6004
92DA
92DA
6D24
92DA
6004
6004
901A
6004
6004
901A
ENDCHAR
STARTCHAR 1EAF
ENCODING 7855
SWIDTH 684 0
DWIDTH 19 0
BBX 15 38 2 0
BITMAP
0024
0024
00D8
0120
0120
02C0
0D00
0000
0000
6C24
1018
1018
6D24
12D8
0D20
0D20
0000
12D8
12D8
6D24
92DA
6004
6004
901A
6004
F01E
901A
6004
92DA
92DA
6D24
92DA
6004
6004
901A
6004
6004
901A
ENDCHAR
STARTCHAR 1EB0
ENCODING 7856
SWIDTH 684 0
DWIDTH 19 0
BBX 15 38 2 0
BITMAP
9000
9000
6800
1600
1600
0900
06C0
0000
0000
6C24
1018
1018
6D24
12D8
0D20
0D20
0000
02C0
02C0
0D20
12D8
6C24
6C24
901A
6004
F01E
901A
6004
92DA
92DA
6D24
92DA
6004
6004
901A
6004
6004
901A
ENDCHAR
STARTCHAR 1EB1
ENCODING 7857
SWIDTH 684 0
DWIDTH 19 0
BBX 15 38 2 0
BITMAP
9000
9000
6800
1600
1600
0900
06C0
0000
0000
6C24
1018
1018
6D24
12D8
0D20
0D20
0000
12D8
12D8
6D24
92DA
6004
6004
901A
6004
F01E
901A
6004
92DA
92DA
6D24
92DA
6004
6004
901A
6004
6004
901A
ENDCHAR
STARTCHAR 1EB2
ENCODING 7858
SWIDTH 684 0
DWIDTH 19 0
BBX 15 40 2 0
BITMAP
12C0
0D20
1FF8
12D8
0020
02D8
02D8
0120
02C0
0000
0000
6C24
1018
1018
6D24
12D8
0D20
0D20
0000
02C0
02C0
0D20
12D8
6C24
6C24
901A
6004
F01E
901A
6004
92DA
92DA
6D24
92DA
6004
6004
901A
6004
6004
901A
ENDCHAR
STARTCHAR 1EB3
ENCODING 7859
SWIDTH 684 0
DWIDTH 19 0
BBX 15 40 2 0
BITMAP
12C0
0D20
1FF8
12D8
0020
02D8
02D8
0120
02C0
0000
0000
6C24
1018
1018
6D24
12D8
0D20
0D20
0000
12D8
12D8
6D24
92DA
6004
6004
901A
6004
F01E
901A
6004
92DA
92DA
6D24
92DA
6004
6004
901A
6004
6004
901A
ENDCHAR
STARTCHAR 1EB4
ENCODING 7860
SWIDTH 684 0
DWIDTH 19 0
BBX 15 38 2 0
BITMAP
121A
121A
6D04
92DA
92DA
6124
90D8
0000
0000
6C24
1018
1018
6D24
12D8
0D20
0D20
0000
02C0
02C0
0D20
12D8
6C24
6C24
901A
6004
F01E
901A
6004
92DA
92DA
6D24
92DA
6004
6004
901A
6004
6004
901A
ENDCHAR
STARTCHAR 1EB5
ENCODING 7861
SWIDTH 684 0
DWIDTH 19 0
BBX 15 38 2 0
BITMAP
121A
121A
6D04
92DA
92DA
6124
90D8
0000
0000
6C24
1018
1018
6D24
12D8
0D20
0D20
0000
12D8
12D8
6D24
92DA
6004
6004
901A
6004
F01E
901A
6004
92DA
92DA
6D24
92DA
6004
6004
901A
6004
6004
901A
ENDCHAR
STARTCHAR 1EB6
ENCODING 7862
SWIDTH 684 0
DWIDTH 19 0
BBX 15 35 2 -6
BITMAP
6C24
1018
1018
6D24
12D8
0D20
0D20
0000
02C0
02C0
0D20
12D8
6C24
6C24
901A
6004
F01E
901A
6004
92DA
92DA
6D24
92DA
6004
6004
901A
6004
6004
901A
0000
02C0
02C0
0100
02C0
02C0
ENDCHAR
STARTCHAR 1EB7
ENCODING 7863
SWIDTH 684 0
DWIDTH 19 0
BBX 15 35 2 -6
BITMAP
6C24
1018
1018
6D24
12D8
0D20
0D20
0000
12D8
12D8
6D24
92DA
6004
6004
901A
6004
F01E
901A
6004
92DA
92DA
6D24
92DA
6004
6004
901A
6004
6004
901A
0000
02C0
02C0
0100
02C0
02C0
ENDCHAR
STARTCHAR 1EB8
ENCODING 7864
SWIDTH 684 0
DWIDTH 19 0
BBX 15 27 2 -6
BITMAP
02DA
02DA
0D24
12DA
6C00
6C00
9000
6000
F2D8
92D8
6D20
92D8
92D8
6000
9000
6C00
6C00
12DA
0D24
0D24
02DA
0000
02C0
02C0
0100
02C0
02C0
ENDCHAR
STARTCHAR 1EB9
ENCODING 7865
SWIDTH 684 0
DWIDTH 19 0
BBX 15 27 2 -6
BITMAP
12DA
12DA
6D24
92DA
6000
6000
9000
6000
F2D8
92D8
6D20
92D8
92D8
6000
9000
6000
6000
92DA
6D24
6D24
12DA
0000
02C0
02C0
0100
02C0
02C0
ENDCHAR
STARTCHAR 1EBA
ENCODING 7866
SWIDTH 684 0
DWIDTH 19 0
BBX 15 32 2 0
BITMAP
12C0
0D20
0D20
12D8
0020
0020
02D8
0120
02C0
02C0
0000
02DA
02DA
0D24
12DA
6C00
6C00
9000
6000
F2D8
92D8
6D20
92D8
92D8
6000
9000
6C00
6C00
12DA
0D24
0D24
02DA
ENDCHAR
STARTCHAR 1EBB
ENCODING 7867
SWIDTH 684 0
DWIDTH 19 0
BBX 15 32 2 0
BITMAP
12C0
0D20
0D20
12D8
0020
0020
02D8
0120
02C0
02C0
0000
12DA
12DA
6D24
92DA
6000
6000
9000
6000
F2D8
92D8
6D20
92D8
92D8
6000
9000
6000
6000
92DA
6D24
6D24
12DA
ENDCHAR
STARTCHAR 1EBC
ENCODING 7868
SWIDTH 684 0
DWIDTH 19 0
BBX 15 29 2 0
BITMAP
121A
6D04
6D04
92DA
6124
90D8
90D8
0000
02DA
02DA
0D24
12DA
6C00
6C00
9000
6000
F2D8
92D8
6D20
92D8
92D8
6000
9000
6C00
6C00
12DA
0D24
0D24
02DA
ENDCHAR
STARTCHAR 1EBD
ENCODING 7869
SWIDTH 684 0
DWIDTH 19 0
BBX 15 29 2 0
BITMAP
121A
6D04
6D04
92DA
6124
90D8
90D8
0000
12DA
12DA
6D24
92DA
6000
6000
9000
6000
F2D8
92D8
6D20
92D8
92D8
6000
9000
6000
6000
92DA
6D24
6D24
12DA
ENDCHAR
STARTCHAR 1EBE
ENCODING 7870
SWIDTH 684 0
DWIDTH 19 0
BBX 15 38 2 0
BITMAP
0024
0024
00D8
0120
0120
02C0
0D00
0000
0000
02C0
0D20
0D20
12D8
0C20
12D8
12D8
0000
02DA
02DA
0D24
12DA
6C00
6C00
9000
6000
F2D8
92D8
6D20
92D8
92D8
6000
9000
6C00
6C00
12DA
0D24
0D24
02DA
ENDCHAR
STARTCHAR 1EBF
ENCODING 7871
SWIDTH 684 0
DWIDTH 19 0
BBX 15 38 2 0
BITMAP
0024
0024
00D8
0120
0120
02C0
0D00
0000
0000
02C0
0D20
0D20
12D8
0C20
12D8
12D8
0000
12DA
12DA
6D24
92DA
6000
6000
9000
6000
F2D8
92D8
6D20
92D8
92D8
6000
9000
6000
6000
92DA
6D24
6D24
12DA
ENDCHAR
STARTCHAR 1EC0
ENCODING 7872
SWIDTH 684 0
DWIDTH 19 0
BBX 15 38 2 0
BITMAP
9000
9000
6C00
1200
1200
0D00
02C0
0000
0000
02C0
0D20
0D20
12D8
0C20
12D8
12D8
0000
02DA
02DA
0D24
12DA
6C00
6C00
9000
6000
F2D8
92D8
6D20
92D8
92D8
6000
9000
6C00
6C00
12DA
0D24
0D24
02DA
ENDCHAR
STARTCHAR 1EC1
ENCODING 7873
SWIDTH 684 0
DWIDTH 19 0
BBX 15 38 2 0
BITMAP
9000
9000
6C00
1200
1200
0D00
02C0
0000
0000
02C0
0D20
0D20
12D8
0C20
12D8
12D8
0000
12DA
12DA
6D24
92DA
6000
6000
9000
6000
F2D8
92D8
6D20
92D8
92D8
6000
9000
6000
6000
92DA
6D24
6D24
12DA
ENDCHAR
STARTCHAR 1EC2
ENCODING 7874
SWIDTH 684 0
DWIDTH 19 0
BBX 15 40 2 0
BITMAP
12C0
0D20
1FF8
12D8
0020
02D8
02D8
0120
02C0
0000
0000
02C0
0D20
0D20
12D8
0C20
12D8
12D8
0000
02DA
02DA
0D24
12DA
6C00
6C00
9000
6000
F2D8
92D8
6D20
92D8
92D8
6000
9000
6C00
6C00
12DA
0D24
0D24
02DA
ENDCHAR
STARTCHAR 1EC3
ENCODING 7875
SWIDTH 684 0
DWIDTH 19 0
BBX 15 40 2 0
BITMAP
12C0
0D20
1FF8
12D8
0020
02D8
02D8
0120
02C0
0000
0000
02C0
0D20
0D20
12D8
0C20
12D8
12D8
0000
12DA
12DA
6D24
92DA
6000
6000
9000
6000
F2D8
92D8
6D20
92D8
92D8
6000
9000
6000
6000
92DA
6D24
6D24
12DA
ENDCHAR
STARTCHAR 1EC4
ENCODING 7876
SWIDTH 684 0
DWIDTH 19 0
BBX 15 38 2 0
BITMAP
121A
121A
6D04
92DA
92DA
6124
90D8
0000
0000
02C0
0D20
0D20
12D8
0C20
12D8
12D8
0000
02DA
02DA
0D24
12DA
6C00
6C00
9000
6000
F2D8
92D8
6D20
92D8
92D8
6000
9000
6C00
6C00
12DA
0D24
0D24
02DA
ENDCHAR
STARTCHAR 1EC5
ENCODING 7877
SWIDTH 684 0
DWIDTH 19 0
BBX 15 38 2 0
BITMAP
121A
121A
6D04
92DA
92DA
6124
90D8
0000
0000
02C0
0D20
0D20
12D8
0C20
12D8
12D8
0000
12DA
12DA
6D24
92DA
6000
6000
9000
6000
F2D8
92D8
6D20
92D8
92D8
6000
9000
6000
6000
92DA
6D24
6D24
12DA
ENDCHAR
STARTCHAR 1EC6
ENCODING 7878
SWIDTH 684 0
DWIDTH 19 0
BBX 15 35 2 -6
BITMAP
02C0
0D20
0D20
12D8
0C20
12D8
12D8
0000
02DA
02DA
0D24
12DA
6C00
6C00
9000
6000
F2D8
92D8
6D20
92D8
92D8
6000
9000
6C00
6C00
12DA
0D24
0D24
02DA
0000
02C0
02C0
0100
02C0
02C0
ENDCHAR
STARTCHAR 1EC7
ENCODING 7879
SWIDTH 684 0
DWIDTH 19 0
BBX 15 35 2 -6
BITMAP
02C0
0D20
0D20
12D8
0C20
12D8
12D8
0000
12DA
12DA
6D24
92DA
6000
6000
9000
6000
F2D8
92D8
6D20
92D8
92D8
6000
9000
6000
6000
92DA
6D24
6D24
12DA
0000
02C0
02C0
0100
02C0
02C0
ENDCHAR
STARTCHAR 1EC8
ENCODING 7880
SWIDTH 468 0
DWIDTH 13 0
BBX 10 32 2 0
BITMAP
9200
6D00
6D00
92C0
0100
0100
12C0
0D00
1200
1200
0000
92C0
92C0
6D00
92C0
0C00
0C00
1200
0C00
1E00
1200
0C00
1200
1200
0C00
1200
0C00
0C00
92C0
6D00
6D00
92C0
ENDCHAR
STARTCHAR 1EC9
ENCODING 7881
SWIDTH 288 0
DWIDTH 8 0
BBX 10 32 -1 0
BITMAP
D200
2D80
2D80
D240
0180
0180
1240
0D80
1200
1200
0000
1200
1200
0C00
1200
0C00
0C00
1200
0C00
1E00
1200
0C00
1200
1200
0C00
1200
0C00
0C00
1200
0C00
0C00
1200
ENDCHAR
STARTCHAR 1ECA
ENCODING 7882
SWIDTH 468 0
DWIDTH 13 0
BBX 10 27 2 -6
BITMAP
92C0
92C0
6D00
92C0
0C00
0C00
1200
0C00
1E00
1200
0C00
1200
1200
0C00
1200
0C00
0C00
92C0
6D00
6D00
92C0
0000
1200
1200
0C00
1200
1200
ENDCHAR
STARTCHAR 1ECB
ENCODING 7883
SWIDTH 288 0
DWIDTH 8 0
BBX 4 27 2 -6
BITMAP
90
90
60
90
60
60
90
60
F0
90
60
90
90
60
90
60
60
90
60
60
90
00
90
90
60
90
90
ENDCHAR
STARTCHAR 1ECC
ENCODING 7884
SWIDTH 792 0
DWIDTH 22 0
BBX 18 27 2 -6
BITMAP
02D800
02D800
0D2400
12DA00
6C0580
6C0580
900240
600180
F003C0
900240
600180
900240
900240
600180
900240
6C0580
6C0580
12DA00
0D2400
0D2400
02D800
000000
012000
012000
00C000
012000
012000
ENDCHAR
STARTCHAR 1ECD
ENCODING 7885
SWIDTH 684 0
DWIDTH 19 0
BBX 15 27 2 -6
BITMAP
12D8
12D8
6D24
92DA
6004
6004
901A
6004
F01E
901A
6004
901A
901A
6004
901A
6004
6004
92DA
6D24
6D24
12D8
0000
02C0
02C0
0100
02C0
02C0
ENDCHAR
STARTCHAR 1ECE
ENCODING 7886
SWIDTH 792 0
DWIDTH 22 0
BBX 18 32 2 0
BITMAP
0D2000
02D800
02D800
0D2400
001800
001800
012400
00D800
012000
012000
000000
02D800
02D800
0D2400
12DA00
6C0580
6C0580
900240
600180
F003C0
900240
600180
900240
900240
600180
900240
6C0580
6C0580
12DA00
0D2400
0D2400
02D800
ENDCHAR
STARTCHAR 1ECF
ENCODING 7887
SWIDTH 684 0
DWIDTH 19 0
BBX 15 32 2 0
BITMAP
12C0
0D20
0D20
12D8
0020
0020
02D8
0120
02C0
02C0
0000
12D8
12D8
6D24
92DA
6004
6004
901A
6004
F01E
901A
6004
901A
901A
6004
901A
6004
6004
92DA
6D24
6D24
12D8
ENDCHAR
STARTCHAR 1ED0
ENCODING 7888
SWIDTH 792 0
DWIDTH 22 0
BBX 18 38 2 0
BITMAP
001A00
001A00
002400
00D800
00D800
012000
02C000
000000
000000
012000
02D800
02D800
0D2400
021800
0D2400
0D2400
000000
02D800
02D800
0D2400
12DA00
6C0580
6C0580
900240
600180
F003C0
900240
600180
900240
900240
600180
900240
6C0580
6C0580
12DA00
0D2400
0D2400
02D800
ENDCHAR
STARTCHAR 1ED1
ENCODING 7889
SWIDTH 684 0
DWIDTH 19 0
BBX 15 38 2 0
BITMAP
0024
0024
00D8
0120
0120
02C0
0D00
0000
0000
02C0
0D20
0D20
12D8
0C20
12D8
12D8
0000
12D8
12D8
6D24
92DA
6004
6004
901A
6004
F01E
901A
6004
901A
901A
6004
901A
6004
6004
92DA
6D24
6D24
12D8
ENDCHAR
STARTCHAR 1ED2
ENCODING 7890
SWIDTH 792 0
DWIDTH 22 0
BBX 18 38 2 0
BITMAP
6C0000
6C0000
120000
0D0000
0D0000
02C000
012000
000000
000000
012000
02D800
02D800
0D2400
021800
0D2400
0D2400
000000
02D800
02D800
0D2400
12DA00
6C0580
6C0580
900240
600180
F003C0
900240
600180
900240
900240
600180
900240
6C0580
6C0580
12DA00
0D2400
0D2400
02D800
ENDCHAR
STARTCHAR 1ED3
ENCODING 7891
SWIDTH 684 0
DWIDTH 19 0
BBX 15 38 2 0
BITMAP
9000
9000
6C00
1200
1200
0D00
02C0
0000
0000
02C0
0D20
0D20
12D8
0C20
12D8
12D8
0000
12D8
12D8
6D24
92DA
6004
6004
901A
6004
F01E
901A
6004
901A
901A
6004
901A
6004
6004
92DA
6D24
6D24
12D8
ENDCHAR
STARTCHAR 1ED4
ENCODING 7892
SWIDTH 792 0
DWIDTH 22 0
BBX 18 40 2 0
BITMAP
0D2000
02D800
0FFC00
0D2400
001800
012400
012400
00D800
012000
000000
000000
012000
02D800
02D800
0D2400
021800
0D2400
0D2400
000000
02D800
02D800
0D2400
12DA00
6C0580
6C0580
900240
600180
F003C0
900240
600180
900240
900240
600180
900240
6C0580
6C0580
12DA00
0D2400
0D2400
02D800
ENDCHAR
STARTCHAR 1ED5
ENCODING 7893
SWIDTH 684 0
DWIDTH 19 0
BBX 15 40 2 0
BITMAP
12C0
0D20
1FF8
12D8
0020
02D8
02D8
0120
02C0
0000
0000
02C0
0D20
0D20
12D8
0C20
12D8
12D8
0000
12D8
12D8
6D24
92DA
6004
6004
901A
6004
F01E
901A
6004
901A
901A
6004
901A
6004
6004
92DA
6D24
6D24
12D8
ENDCHAR
STARTCHAR 1ED6
ENCODING 7894
SWIDTH 792 0
DWIDTH 22 0
BBX 18 38 2 0
BITMAP
0D0580
0D0580
12C200
6D2580
6D2580
10DA00
6C2400
000000
000000
012000
02D800
02D800
0D2400
021800
0D2400
0D2400
000000
02D800
02D800
0D2400
12DA00
6C0580
6C0580
900240
600180
F003C0
900240
600180
900240
900240
600180
900240
6C0580
6C0580
12DA00
0D2400
0D2400
02D800
ENDCHAR
STARTCHAR 1ED7
ENCODING 7895
SWIDTH 684 0
DWIDTH 19 0
BBX 15 38 2 0
BITMAP
121A
121A
6D04
92DA
92DA
6124
90D8
0000
0000
02C0
0D20
0D20
12D8
0C20
12D8
12D8
0000
12D8
12D8
6D24
92DA
6004
6004
901A
6004
F01E
901A
6004
901A
901A
6004
901A
6004
6004
92DA
6D24
6D24
12D8
ENDCHAR
STARTCHAR 1ED8
ENCODING 7896
SWIDTH 792 0
DWIDTH 22 0
BBX 18 35 2 -6
BITMAP
012000
02D800
02D800
0D2400
021800
0D2400
0D2400
000000
02D800
02D800
0D2400
12DA00
6C0580
6C0580
900240
600180
F003C0
900240
600180
900240
900240
600180
900240
6C0580
6C0580
12DA00
0D2400
0D2400
02D800
000000
012000
012000
00C000
012000
012000
ENDCHAR
STARTCHAR 1ED9
ENCODING 7897
SWIDTH 684 0
DWIDTH 19 0
BBX 15 35 2 -6
BITMAP
02C0
0D20
0D20
12D8
0C20
12D8
12D8
0000
12D8
12D8
6D24
92DA
6004
6004
901A
6004
F01E
901A
6004
901A
901A
6004
901A
6004
6004
92DA
6D24
6D24
12D8
0000
02C0
02C0
0100
02C0
02C0
ENDCHAR
STARTCHAR 1EDA
ENCODING 7898
SWIDTH 936 0
DWIDTH 26 0
BBX 24 29 2 0
BITMAP
001A00
002400
002400
00D800
012000
02C00B
02C00B
000004
12DA4B
12DA4B
6D25B4
92DA48
600180
600180
900240
600180
F003C0
900240
600180
900240
900240
600180
900240
600180
600180
92DA40
6D2580
6D2580
12DA00
ENDCHAR
STARTCHAR 1EDB
ENCODING 7899
SWIDTH 828 0
DWIDTH 23 0
BBX 21 29 2 0
BITMAP
002400
00D800
00D800
012000
02C000
0D0048
0D0048
000030
12DA48
12DA48
6D25B0
92DA40
600400
600400
901A00
600400
F01E00
901A00
600400
901A00
901A00
600400
901A00
600400
600400
92DA00
6D2400
6D2400
12D800
ENDCHAR
STARTCHAR 1EDC
ENCODING 7900
SWIDTH 936 0
DWIDTH 26 0
BBX 24 29 2 0
BITMAP
6C0000
120000
120000
0D0000
02C000
01200B
01200B
000004
12DA4B
12DA4B
6D25B4
92DA48
600180
600180
900240
600180
F003C0
900240
600180
900240
900240
600180
900240
600180
600180
92DA40
6D2580
6D2580
12DA00
ENDCHAR
STARTCHAR 1EDD
ENCODING 7901
SWIDTH 828 0
DWIDTH 23 0
BBX 21 29 2 0
BITMAP
900000
6C0000
6C0000
120000
0D0000
02C048
02C048
000030
12DA48
12DA48
6D25B0
92DA40
600400
600400
901A00
600400
F01E00
901A00
600400
901A00
901A00
600400
901A00
600400
600400
92DA00
6D2400
6D2400
12D800
ENDCHAR
STARTCHAR 1EDE
ENCODING 7902
SWIDTH 936 0
DWIDTH 26 0
BBX 24 32 2 0
BITMAP
0D2000
02D800
02D800
0D2400
001800
001800
012400
00D800
01200B
01200B
000004
12DA4B
12DA4B
6D25B4
92DA48
600180
600180
900240
600180
F003C0
900240
600180
900240
900240
600180
900240
600180
600180
92DA40
6D2580
6D2580
12DA00
ENDCHAR
STARTCHAR 1EDF
ENCODING 7903
SWIDTH 828 0
DWIDTH 23 0
BBX 21 32 2 0
BITMAP
12C000
0D2000
0D2000
12D800
002000
002000
02D800
012000
02C048
02C048
000030
12DA48
12DA48
6D25B0
92DA40
600400
600400
901A00
600400
F01E00
901A00
600400
901A00
901A00
600400
901A00
600400
600400
92DA00
6D2400
6D2400
12D800
ENDCHAR
STARTCHAR 1EE0
ENCODING 7904
SWIDTH 936 0
DWIDTH 26 0
BBX 24 29 2 0
BITMAP
0D0580
12C200
12C200
6D2580
10DA00
6C240B
6C240B
000004
12DA4B
12DA4B
6D25B4
92DA48
600180
600180
900240
600180
F003C0
900240
600180
900240
900240
600180
900240
600180
600180
92DA40
6D2580
6D2580
12DA00
ENDCHAR
STARTCHAR 1EE1
ENCODING 7905
SWIDTH 828 0
DWIDTH 23 0
BBX 21 29 2 0
BITMAP
121A00
6D0400
6D0400
92DA00
612400
90D848
90D848
000030
12DA48
12DA48
6D25B0
92DA40
600400
600400
901A00
600400
F01E00
901A00
600400
901A00
901A00
600400
901A00
600400
600400
92DA00
6D2400
6D2400
12D800
ENDCHAR
STARTCHAR 1EE2
ENCODING 7906
SWIDTH 936 0
DWIDTH 26 0
BBX 24 30 2 -6
BITMAP
00000B
00000B
000004
12DA4B
12DA4B
6D25B4
92DA48
600180
600180
900240
600180
F003C0
900240
600180
900240
900240
600180
900240
600180
600180
92DA40
6D2580
6D2580
12DA00
000000
012000
012000
00C000
012000
012000
ENDCHAR
STARTCHAR 1EE3
ENCODING 7907
SWIDTH 828 0
DWIDTH 23 0
BBX 21 30 2 -6
BITMAP
000048
000048
000030
12DA48
12DA48
6D25B0
92DA40
600400
600400
901A00
600400
F01E00
901A00
600400
901A00
901A00
600400
901A00
600400
600400
92DA00
6D2400
6D2400
12D800
000000
02C000
02C000
010000
02C000
02C000
ENDCHAR
STARTCHAR 1EE4
ENCODING 7908
SWIDTH 792 0
DWIDTH 22 0
BBX 18 27 2 -6
BITMAP
900240
900240
600180
900240
600180
600180
900240
600180
F003C0
900240
600180
900240
900240
600180
900240
6C0580
6C0580
12DA00
0D2400
0D2400
02D800
000000
012000
012000
00C000
012000
012000
ENDCHAR
STARTCHAR 1EE5
ENCODING 7909
SWIDTH 684 0
DWIDTH 19 0
BBX 15 27 2 -6
BITMAP
901A
901A
6004
901A
6004
6004
901A
6004
F01E
901A
6004
901A
901A
6004
901A
6004
6004
92DA
6D24
6D24
12D8
0000
02C0
02C0
0100
02C0
02C0
ENDCHAR
STARTCHAR 1EE6
ENCODING 7910
SWIDTH 792 0
DWIDTH 22 0
BBX 18 32 2 0
BITMAP
0D2000
02D800
02D800
0D2400
001800
001800
012400
00D800
012000
012000
000000
900240
900240
600180
900240
600180
600180
900240
600180
F003C0
900240
600180
900240
900240
600180
900240
6C0580
6C0580
12DA00
0D2400
0D2400
02D800
ENDCHAR
STARTCHAR 1EE7
ENCODING 7911
SWIDTH 684 0
DWIDTH 19 0
BBX 15 32 2 0
BITMAP
12C0
0D20
0D20
12D8
0020
0020
02D8
0120
02C0
02C0
0000
901A
901A
6004
901A
6004
6004
901A
6004
F01E
901A
6004
901A
901A
6004
901A
6004
6004
92DA
6D24
6D24
12D8
ENDCHAR
STARTCHAR 1EE8
ENCODING 7912
SWIDTH 936 0
DWIDTH 26 0
BBX 24 29 2 0
BITMAP
001A00
002400
002400
00D800
012000
02C00B
02C00B
000004
90024B
90024B
6001B4
900248
600180
600180
900240
600180
F003C0
900240
600180
900240
900240
600180
900240
6C0580
6C0580
12DA00
0D2400
0D2400
02D800
ENDCHAR
STARTCHAR 1EE9
ENCODING 7913
SWIDTH 828 0
DWIDTH 23 0
BBX 21 29 2 0
BITMAP
002400
00D800
00D800
012000
02C000
0D0048
0D0048
000030
901A48
901A48
6005B0
901A40
600400
600400
901A00
600400
F01E00
901A00
600400
901A00
901A00
600400
901A00
600400
600400
92DA00
6D2400
6D2400
12D800
ENDCHAR
STARTCHAR 1EEA
ENCODING 7914
SWIDTH 936 0
DWIDTH 26 0
BBX 24 29 2 0
BITMAP
6C0000
120000
120000
0D0000
02C000
01200B
01200B
000004
90024B
90024B
6001B4
900248
600180
600180
900240
600180
F003C0
900240
600180
900240
900240
600180
900240
6C0580
6C0580
12DA00
0D2400
0D2400
02D800
ENDCHAR
STARTCHAR 1EEB
ENCODING 7915
SWIDTH 828 0
DWIDTH 23 0
BBX 21 29 2 0
BITMAP
900000
6C0000
6C0000
120000
0D0000
02C048
02C048
000030
901A48
901A48
6005B0
901A40
600400
600400
901A00
600400
F01E00
901A00
600400
901A00
901A00
600400
901A00
600400
600400
92DA00
6D2400
6D2400
12D800
ENDCHAR
STARTCHAR 1EEC
ENCODING 7916
SWIDTH 936 0
DWIDTH 26 0
BBX 24 32 2 0
BITMAP
0D2000
02D800
02D800
0D2400
001800
001800
012400
00D800
01200B
01200B
000004
90024B
90024B
6001B4
900248
600180
600180
900240
600180
F003C0
900240
600180
900240
900240
600180
900240
6C0580
6C0580
12DA00
0D2400
0D2400
02D800
ENDCHAR
STARTCHAR 1EED
ENCODING 7917
SWIDTH 828 0
DWIDTH 23 0
BBX 21 32 2 0
BITMAP
12C000
0D2000
0D2000
12D800
002000
002000
02D800
012000
02C048
02C048
000030
901A48
901A48
6005B0
901A40
600400
600400
901A00
600400
F01E00
901A00
600400
901A00
901A00
600400
901A00
600400
600400
92DA00
6D2400
6D2400
12D800
ENDCHAR
STARTCHAR 1EEE
ENCODING 7918
SWIDTH 936 0
DWIDTH 26 0
BBX 24 29 2 0
BITMAP
0D0580
12C200
12C200
6D2580
10DA00
6C240B
6C240B
000004
90024B
90024B
6001B4
900248
600180
600180
900240
600180
F003C0
900240
600180
900240
900240
600180
900240
6C0580
6C0580
12DA00
0D2400
0D2400
02D800
ENDCHAR
STARTCHAR 1EEF
ENCODING 7919
SWIDTH 828 0
DWIDTH 23 0
BBX 21 29 2 0
BITMAP
121A00
6D0400
6D0400
92DA00
612400
90D848
90D848
000030
901A48
901A48
6005B0
901A40
600400
600400
901A00
600400
F01E00
901A00
600400
901A00
901A00
600400
901A00
600400
600400
92DA00
6D2400
6D2400
12D800
ENDCHAR
STARTCHAR 1EF0
ENCODING 7920
SWIDTH 936 0
DWIDTH 26 0
BBX 24 30 2 -6
BITMAP
00000B
00000B
000004
90024B
90024B
6001B4
900248
600180
600180
900240
600180
F003C0
900240
600180
900240
900240
600180
900240
6C0580
6C0580
12DA00
0D2400
0D2400
02D800
000000
012000
012000
00C000
012000
012000
ENDCHAR
STARTCHAR 1EF1
ENCODING 7921
SWIDTH 828 0
DWIDTH 23 0
BBX 21 30 2 -6
BITMAP
000048
000048
000030
901A48
901A48
6005B0
901A40
600400
600400
901A00
600400
F01E00
901A00
600400
901A00
901A00
600400
901A00
600400
600400
92DA00
6D2400
6D2400
12D800
000000
02C000
02C000
010000
02C000
02C000
ENDCHAR
STARTCHAR 1EF2
ENCODING 7922
SWIDTH 684 0
DWIDTH 19 0
BBX 15 29 2 0
BITMAP
9000
6C00
6C00
1200
0D00
02C0
02C0
0000
901A
901A
6004
901A
6004
6004
901A
6004
F01E
901A
6C24
12D8
12D8
0D20
02C0
0100
0100
02C0
0100
0100
02C0
ENDCHAR
STARTCHAR 1EF3
ENCODING 7923
SWIDTH 684 0
DWIDTH 19 0
BBX 15 29 2 0
BITMAP
9000
6C00
6C00
1200
0D00
02C0
02C0
0000
901A
901A
6004
901A
6004
6004
901A
6004
F01E
901A
6004
92DA
92DA
6D24
12D8
0100
0100
02C0
0100
0100
02C0
ENDCHAR
STARTCHAR 1EF4
ENCODING 7924
SWIDTH 684 0
DWIDTH 19 0
BBX 15 27 2 -6
BITMAP
901A
901A
6004
901A
6004
6004
901A
6004
F01E
901A
6C24
12D8
12D8
0D20
02C0
0100
0100
02C0
0100
0100
02C0
0000
02C0
02C0
0100
02C0
02C0
ENDCHAR
STARTCHAR 1EF5
ENCODING 7925
SWIDTH 684 0
DWIDTH 19 0
BBX 15 27 2 -6
BITMAP
901A
901A
6004
901A
6004
6004
901A
6004
F01E
901A
6004
92DA
92DA
6D24
12D8
0100
0100
02C0
0100
0100
02C0
0000
02C0
02C0
0100
02C0
02C0
ENDCHAR
STARTCHAR 1EF6
ENCODING 7926
SWIDTH 684 0
DWIDTH 19 0
BBX 15 32 2 0
BITMAP
12C0
0D20
0D20
12D8
0020
0020
02D8
0120
02C0
02C0
0000
901A
901A
6004
901A
6004
6004
901A
6004
F01E
901A
6C24
12D8
12D8
0D20
02C0
0100
0100
02C0
0100
0100
02C0
ENDCHAR
STARTCHAR 1EF7
ENCODING 7927
SWIDTH 684 0
DWIDTH 19 0
BBX 15 32 2 0
BITMAP
12C0
0D20
0D20
12D8
0020
0020
02D8
0120
02C0
02C0
0000
901A
901A
6004
901A
6004
6004
901A
6004
F01E
901A
6004
92DA
92DA
6D24
12D8
0100
0100
02C0
0100
0100
02C0
ENDCHAR
STARTCHAR 1EF8
ENCODING 7928
SWIDTH 684 0
DWIDTH 19 0
BBX 15 29 2 0
BITMAP
121A
6D04
6D04
92DA
6124
90D8
90D8
0000
901A
901A
6004
901A
6004
6004
901A
6004
F01E
901A
6C24
12D8
12D8
0D20
02C0
0100
0100
02C0
0100
0100
02C0
ENDCHAR
STARTCHAR 1EF9
ENCODING 7929
SWIDTH 684 0
DWIDTH 19 0
BBX 15 29 2 0
BITMAP
121A
6D04
6D04
92DA
6124
90D8
90D8
0000
901A
901A
6004
901A
6004
6004
901A
6004
F01E
901A
6004
92DA
92DA
6D24
12D8
0100
0100
02C0
0100
0100
02C0
ENDCHAR
STARTCHAR 2013
ENCODING 8211
SWIDTH 684 0
DWIDTH 19 0
BBX 18 5 1 8
BITMAP
B692C0
B692C0
496D00
B692C0
B692C0
ENDCHAR
STARTCHAR 2014
ENCODING 8212
SWIDTH 972 0
DWIDTH 27 0
BBX 26 5 1 8
BITMAP
B692DA40
B692DA40
496D2580
B692DA40
B692DA40
ENDCHAR
STARTCHAR 2018
ENCODING 8216
SWIDTH 180 0
DWIDTH 5 0
BBX 4 7 1 17
BITMAP
30
30
40
B0
B0
40
B0
ENDCHAR
STARTCHAR 2019
ENCODING 8217
SWIDTH 180 0
DWIDTH 5 0
BBX 4 7 1 17
BITMAP
B0
B0
40
B0
B0
40
80
ENDCHAR
STARTCHAR 201A
ENCODING 8218
SWIDTH 180 0
DWIDTH 5 0
BBX 4 7 1 -3
BITMAP
B0
40
40
B0
40
80
80
ENDCHAR
STARTCHAR 201C
ENCODING 8220
SWIDTH 432 0
DWIDTH 12 0
BBX 11 7 1 17
BITMAP
3060
3060
4080
B160
B160
4080
B160
ENDCHAR
STARTCHAR 201D
ENCODING 8221
SWIDTH 432 0
DWIDTH 12 0
BBX 11 7 1 17
BITMAP
B160
B160
4080
B160
B160
4080
8100
ENDCHAR
STARTCHAR 201E
ENCODING 8222
SWIDTH 432 0
DWIDTH 12 0
BBX 11 7 1 -3
BITMAP
B160
4080
4080
B160
4080
8100
8100
ENDCHAR
STARTCHAR 2020
ENCODING 8224
SWIDTH 468 0
DWIDTH 13 0
BBX 10 21 2 0
BITMAP
1200
1200
0C00
92C0
6D00
6D00
92C0
0C00
1E00
1200
0C00
1200
1200
0C00
1200
0C00
0C00
1200
0C00
0C00
1200
ENDCHAR
STARTCHAR 2021
ENCODING 8225
SWIDTH 468 0
DWIDTH 13 0
BBX 10 21 2 0
BITMAP
1200
1200
0C00
92C0
6D00
6D00
92C0
0C00
1E00
1200
0C00
92C0
92C0
6D00
92C0
0C00
0C00
1200
0C00
0C00
1200
ENDCHAR
STARTCHAR 2022
ENCODING 8226
SWIDTH 396 0
DWIDTH 11 0
BBX 9 9 1 6
BITMAP
3600
4900
FF80
B680
4900
B680
B680
4900
3600
ENDCHAR
STARTCHAR 2026
ENCODING 8230
SWIDTH 576 0
DWIDTH 16 0
BBX 15 4 1 0
BITMAP
B692
410C
410C
B692
ENDCHAR
STARTCHAR 2030
ENCODING 8240
SWIDTH 1800 0
DWIDTH 50 0
BBX 46 21 2 0
BITMAP
12C048000000
12C048000000
6D2030000000
92D848000000
6021B0000000
6021B0000000
90D840000000
6021B0000000
F2FBF3480D20
92DA43480D20
6D2184B612D8
12C24B496D24
12C24B496D24
000584061018
00020B096C24
000584061018
000584061018
001A0B496D24
000404B612D8
000404B612D8
001A03480D20
ENDCHAR
STARTCHAR 2039
ENCODING 8249
SWIDTH 540 0
DWIDTH 15 0
BBX 11 15 1 3
BITMAP
0160
0680
0680
0900
3600
7E00
4800
B000
4800
4800
3600
0900
0680
0680
0160
ENDCHAR
STARTCHAR 203A
ENCODING 8250
SWIDTH 540 0
DWIDTH 15 0
BBX 12 15 3 3
BITMAP
D800
2400
2400
1A00
0580
07C0
0240
01B0
0240
0240
0580
1A00
2400
2400
D800
ENDCHAR
STARTCHAR 2044
ENCODING 8260
SWIDTH 396 0
DWIDTH 11 0
BBX 9 21 1 0
BITMAP
0680
0680
0100
0680
0900
0900
0600
0900
3F00
3600
0800
3600
3600
4800
3000
4800
4800
B000
4000
4000
B000
ENDCHAR
STARTCHAR 20AC
ENCODING 8364
SWIDTH 792 0
DWIDTH 22 0
BBX 18 29 2 -3
BITMAP
00DA40
012580
02DA40
02DA40
0D0000
120000
120000
0C0000
92DA00
6D2400
6D2400
92DA00
0C0000
1E0000
120000
0C0000
92DA00
92DA00
6D2400
92DA00
0C0000
0C0000
120000
0D0000
0D0000
02DA40
012580
00DA40
00DA40
ENDCHAR
STARTCHAR 2212
ENCODING 8722
SWIDTH 684 0
DWIDTH 19 0
BBX 15 5 2 8
BITMAP
92DA
92DA
6D24
92DA
92DA
ENDCHAR
STARTCHAR E000
ENCODING 57344
SWIDTH 684 0
DWIDTH 19 0
BBX 15 21 2 0
BITMAP
92DA
92DA
6D24
92DA
6004
6004
901A
6004
F01E
901A
6004
92DA
92DA
6D24
92DA
6004
6004
901A
6004
6004
901A
ENDCHAR
STARTCHAR E017
ENCODING 57367
SWIDTH 1080 0
DWIDTH 30 0
BBX 26 21 2 0
BITMAP
92DA4B40
92DA4B40
6D25B480
92DA4B40
60040000
60040000
901A0000
60040000
F01E4B00
901A4B00
6005B400
92DA4B00
92DA4B00
6D240000
92DA0000
60040000
60040000
901A4B40
6005B480
6005B480
901A4B40
ENDCHAR
STARTCHAR E018
ENCODING 57368
SWIDTH 684 0
DWIDTH 19 0
BBX 15 21 2 0
BITMAP
92DA
92DA
6D24
92DA
6004
6004
901A
6024
F2FC
92D8
6D20
92D8
92D8
6024
901A
6004
6004
92DA
6D24
6D24
92DA
ENDCHAR
STARTCHAR E019
ENCODING 57369
SWIDTH 792 0
DWIDTH 22 0
BBX 18 21 2 0
BITMAP
92DA40
92DA40
6D2580
92DA40
600180
600180
900240
600180
F003C0
900240
600000
900000
900000
600000
900240
600180
600180
92DA40
6D2580
6D2580
92DA40
ENDCHAR
STARTCHAR E01E
ENCODING 57374
SWIDTH 792 0
DWIDTH 22 0
BBX 18 21 2 0
BITMAP
92DA00
92DA00
6D2580
92DA40
600180
600180
900240
600180
F003C0
900240
600180
900240
900240
600180
900240
600180
600180
92DA40
6D2580
6D2580
92DA00
ENDCHAR
STARTCHAR E01F
ENCODING 57375
SWIDTH 828 0
DWIDTH 23 0
BBX 21 21 1 0
BITMAP
3692C0
3692C0
096D20
3692D8
080020
080020
3600D8
080020
BE80F8
B680D8
490020
B680D8
B680D8
080020
3600D8
080020
080020
3692D8
096D20
096D20
3692C0
ENDCHAR
STARTCHAR E021
ENCODING 57377
SWIDTH 828 0
DWIDTH 23 0
BBX 21 21 1 0
BITMAP
3692C0
3692C0
096D20
3692D8
080020
080020
3600D8
080020
BE80F8
B680D8
490020
B680D8
B680D8
080020
3600D8
080020
080020
3692D8
096D20
096D20
3692C0
ENDCHAR
STARTCHAR E022
ENCODING 57378
SWIDTH 684 0
DWIDTH 19 0
BBX 15 21 2 0
BITMAP
92DA
92DA
6D24
92DA
6000
6000
9000
6000
F2D8
92D8
6D20
92D8
92D8
6000
9000
6000
6000
92DA
6D24
6D24
92DA
ENDCHAR
STARTCHAR E033
ENCODING 57395
SWIDTH 684 0
DWIDTH 19 0
BBX 15 21 2 0
BITMAP
92DA
92DA
6D24
92DA
6000
6000
9000
6000
F2D8
92D8
6D20
92D8
92D8
6000
9000
6000
6000
9000
6000
6000
9000
ENDCHAR
STARTCHAR E034
ENCODING 57396
SWIDTH 792 0
DWIDTH 22 0
BBX 18 21 2 0
BITMAP
92DA40
92DA40
6D2580
92DA40
600000
600000
900000
600000
F0DA40
90DA40
602580
90DA40
90DA40
600180
900240
600180
600180
92DA40
6D2580
6D2580
92DA40
ENDCHAR
STARTCHAR E038
ENCODING 57400
SWIDTH 576 0
DWIDTH 16 0
BBX 13 21 2 0
BITMAP
92D8
92D8
6D20
92D8
0020
0020
00D8
0020
00F8
00D8
0020
90D8
90D8
6020
90D8
6020
6020
92D8
6D20
6D20
92C0
ENDCHAR
STARTCHAR E039
ENCODING 57401
SWIDTH 684 0
DWIDTH 19 0
BBX 15 21 2 0
BITMAP
901A
901A
6004
901A
6024
6024
90D8
6120
F3FA
92DA
6D24
92DA
92DA
6004
901A
6004
6004
901A
6004
6004
901A
ENDCHAR
STARTCHAR E03B
ENCODING 57403
SWIDTH 684 0
DWIDTH 19 0
BBX 15 21 2 0
BITMAP
9000
9000
6000
9000
6000
6000
9000
6000
F000
9000
6000
9000
9000
6000
9000
6000
6000
92DA
6D24
6D24
92DA
ENDCHAR
STARTCHAR E040
ENCODING 57408
SWIDTH 1080 0
DWIDTH 30 0
BBX 26 21 2 0
BITMAP
92DA4B40
92DA4B40
6D25B480
92DA4B40
60040080
60040080
901A0340
60040080
F01E03C0
901A0340
60040080
901A0340
901A0340
60040080
901A0340
60040080
60040080
901A0340
60040080
60040080
901A0340
ENDCHAR
STARTCHAR E041
ENCODING 57409
SWIDTH 792 0
DWIDTH 22 0
BBX 18 21 2 0
BITMAP
92DA40
92DA40
6D2580
92DA40
600180
600180
900240
600180
F003C0
900240
600180
900240
900240
600180
900240
600180
600180
900240
600180
600180
900240
ENDCHAR
STARTCHAR E045
ENCODING 57413
SWIDTH 792 0
DWIDTH 22 0
BBX 18 27 2 -6
BITMAP
92DA40
92DA40
6D2580
92DA40
600180
600180
900240
600180
F003C0
900240
600180
900240
900240
600180
900240
600180
600180
900240
600180
600180
900240
000180
001A40
001A40
000580
001A00
001A00
ENDCHAR
STARTCHAR E047
ENCODING 57415
SWIDTH 792 0
DWIDTH 22 0
BBX 18 21 2 0
BITMAP
92DA40
92DA40
6D2580
92DA40
600180
600180
900240
600180
F003C0
900240
600180
900240
900240
600180
900240
600180
600180
92DA40
6D2580
6D2580
92DA40
ENDCHAR
STARTCHAR E054
ENCODING 57428
SWIDTH 936 0
DWIDTH 26 0
BBX 24 24 2 0
BITMAP
00000B
00000B
000004
92DA4B
92DA4B
6D25B4
92DA48
600180
600180
900240
600180
F003C0
900240
600180
900240
900240
600180
900240
600180
600180
92DA40
6D2580
6D2580
92DA40
ENDCHAR
STARTCHAR E05E
ENCODING 57438
SWIDTH 1188 0
DWIDTH 33 0
BBX 29 21 2 0
BITMAP
92DA4B48
92DA4B48
6D25B4B0
92DA4B48
60018000
60018000
90024000
60018000
F003CB40
90024B40
6001B480
90024B40
90024B40
60018000
90024000
60018000
60018000
92DA4B48
6D25B4B0
6D25B4B0
92DA4B48
ENDCHAR
STARTCHAR E05F
ENCODING 57439
SWIDTH 684 0
DWIDTH 19 0
BBX 15 21 2 0
BITMAP
92DA
92DA
6D24
92DA
6004
6004
901A
6004
F01E
901A
6004
901A
901A
6004
92DA
6D24
6D24
92DA
6000
6000
9000
ENDCHAR
STARTCHAR E060
ENCODING 57440
SWIDTH 684 0
DWIDTH 19 0
BBX 15 21 2 0
BITMAP
9000
9000
6000
92DA
6D24
6D24
92DA
6004
F01E
901A
6004
901A
901A
6004
92DA
6D24
6D24
92DA
6000
6000
9000
ENDCHAR
STARTCHAR E061
ENCODING 57441
SWIDTH 792 0
DWIDTH 22 0
BBX 18 24 2 -3
BITMAP
92DA40
92DA40
6D2580
92DA40
600180
600180
900240
600180
F003C0
900240
600180
900240
900240
600180
90DA40
602180
602180
92DA40
6D2580
6D2580
92DA40
002000
00D800
00D800
ENDCHAR
STARTCHAR E062
ENCODING 57442
SWIDTH 684 0
DWIDTH 19 0
BBX 15 21 2 0
BITMAP
92DA
92DA
6D24
92DA
6004
6004
901A
6004
F01E
901A
6004
901A
901A
6004
92DA
6D24
6D24
92D8
6024
6024
901A
ENDCHAR
STARTCHAR E066
ENCODING 57446
SWIDTH 684 0
DWIDTH 19 0
BBX 15 21 2 0
BITMAP
92DA
92DA
6D24
92DA
6004
6004
901A
6000
F2D8
92D8
6D24
12DA
12DA
0004
901A
6004
6004
92DA
6D24
6D24
92DA
ENDCHAR
STARTCHAR E06C
ENCODING 57452
SWIDTH 792 0
DWIDTH 22 0
BBX 18 21 2 0
BITMAP
900240
900240
600180
900240
600180
600180
900240
600180
F003C0
900240
600180
900240
900240
600180
900240
600180
600180
92DA40
6D2580
6D2580
92DA40
ENDCHAR
STARTCHAR E078
ENCODING 57464
SWIDTH 936 0
DWIDTH 26 0
BBX 24 24 2 0
BITMAP
00000B
00000B
000004
90024B
90024B
6001B4
900248
600180
600180
900240
600180
F003C0
900240
600180
900240
900240
600180
900240
600180
600180
92DA40
6D2580
6D2580
92DA40
ENDCHAR
STARTCHAR E083
ENCODING 57475
SWIDTH 1080 0
DWIDTH 30 0
BBX 26 21 2 0
BITMAP
901A0340
901A0340
60040080
901A0340
60040080
60040080
901A0340
60040080
F01E03C0
901A0340
60040080
901A0340
901A0340
60040080
901A0340
60040080
60040080
92DA4B40
6D25B480
6D25B480
92DA4B40
ENDCHAR
STARTCHAR E088
ENCODING 57480
SWIDTH 792 0
DWIDTH 22 0
BBX 18 21 2 0
BITMAP
900240
900240
600180
900240
600180
600180
900240
6C0580
7EDF80
12DA00
0D2400
12DA00
12DA00
6C0580
900240
600180
600180
900240
600180
600180
900240
ENDCHAR
STARTCHAR E089
ENCODING 57481
SWIDTH 684 0
DWIDTH 19 0
BBX 15 21 2 0
BITMAP
901A
901A
6004
901A
6004
6004
901A
6004
F01E
901A
6004
92DA
92DA
6D24
92DA
0100
0100
02C0
0100
0100
02C0
ENDCHAR
STARTCHAR E091
ENCODING 57489
SWIDTH 684 0
DWIDTH 19 0
BBX 15 21 2 0
BITMAP
92DA
92DA
6D24
92DA
0004
0004
001A
0004
92DE
92DA
6D24
92DA
92DA
6000
9000
6000
6000
92DA
6D24
6D24
92DA
ENDCHAR
STARTCHAR E095
ENCODING 57493
SWIDTH 792 0
DWIDTH 22 0
BBX 18 21 2 0
BITMAP
12DA00
12DA00
6D2580
92DA40
600180
600180
900240
000180
12DBC0
12DA40
6D2580
92DA40
92DA40
600180
900240
600180
600180
92DA40
6D2580
6D2580
12DA00
ENDCHAR
STARTCHAR E0AC
ENCODING 57516
SWIDTH 1296 0
DWIDTH 36 0
BBX 32 21 2 0
BITMAP
12DA4B48
12DA4B48
6D25B4B6
92DA4B49
60018006
60018006
90024009
00018006
12DBCB4F
12DA4B49
6D25B4B6
92DA4B49
92DA4B49
60018000
90024000
60018000
60018000
92DA4B49
6D25B4B6
6D25B4B6
12DA4B49
ENDCHAR
STARTCHAR E0AD
ENCODING 57517
SWIDTH 684 0
DWIDTH 19 0
BBX 15 21 2 0
BITMAP
02DA
02DA
0D24
12DA
6C00
6C00
9000
6000
F000
9000
6000
9000
9000
6000
9000
6C00
6C00
12DA
0D24
0D24
02DA
ENDCHAR
STARTCHAR E0B2
ENCODING 57522
SWIDTH 792 0
DWIDTH 22 0
BBX 18 21 2 0
BITMAP
02D800
02D800
0D2400
12DA00
6C0580
6C0580
900240
600180
F2DBC0
92DA40
6D2580
92DA40
92DA40
600000
900000
6C0000
6C0000
12DA40
0D2580
0D2580
02DA40
ENDCHAR
STARTCHAR E0C3
ENCODING 57539
SWIDTH 576 0
DWIDTH 16 0
BBX 13 21 2 0
BITMAP
00D8
00D8
0020
00D8
0020
0020
00D8
0020
00F8
00D8
0020
00D8
00D8
0020
00D8
0120
0120
92C0
6D00
6D00
9200
ENDCHAR
STARTCHAR E0C4
ENCODING 57540
SWIDTH 1296 0
DWIDTH 36 0
BBX 32 21 2 0
BITMAP
02D80B40
02D80B40
0D2434B0
12DA4B48
6C05B036
6C05B036
90024009
60018006
F003C00F
90024009
60018006
90024009
90024009
60018006
90024009
60018006
60018006
90024009
60018006
60018006
90024009
ENDCHAR
STARTCHAR E0C5
ENCODING 57541
SWIDTH 792 0
DWIDTH 22 0
BBX 18 21 2 0
BITMAP
02D800
02D800
0D2400
12DA00
6C0580
6C0580
900240
600180
F003C0
900240
600180
900240
900240
600180
900240
600180
600180
900240
600180
600180
900240
ENDCHAR
STARTCHAR E0C9
ENCODING 57545
SWIDTH 792 0
DWIDTH 22 0
BBX 18 27 2 -6
BITMAP
02D800
02D800
0D2400
12DA00
6C0580
6C0580
900240
600180
F003C0
900240
600180
900240
900240
600180
900240
600180
600180
900240
600180
600180
900240
000180
001A40
001A40
000580
001A00
001A00
ENDCHAR
STARTCHAR E0CB
ENCODING 57547
SWIDTH 1296 0
DWIDTH 36 0
BBX 32 21 2 0
BITMAP
02D80B40
02D80B40
0D2434B0
12DA4B48
6C05B036
6C05B036
90024009
60018006
F003CB4F
90024B49
6001B4B6
90024B49
90024B49
60018000
90024000
6C05B000
6C05B000
12DA4B49
0D2434B6
0D2434B6
02D80B49
ENDCHAR
STARTCHAR E0CC
ENCODING 57548
SWIDTH 576 0
DWIDTH 16 0
BBX 13 21 2 0
BITMAP
02D8
02D8
0D20
12D8
6C00
6C00
9000
6000
F000
9000
6000
9000
9000
6000
9000
6000
6000
9000
6000
6000
9000
ENDCHAR
STARTCHAR E0D0
ENCODING 57552
SWIDTH 684 0
DWIDTH 19 0
BBX 15 21 2 0
BITMAP
12DA
12DA
6D24
92DA
6000
6000
9000
6000
F2D8
92D8
6D24
12DA
12DA
0004
001A
0004
0004
92DA
6D24
6D24
92D8
ENDCHAR
STARTCHAR E0D5
ENCODING 57557
SWIDTH 1296 0
DWIDTH 36 0
BBX 32 21 2 0
BITMAP
90024009
90024009
60018006
90024009
60018006
60018006
90024009
60018006
F003C00F
90024009
60018006
90024009
90024009
60018006
90024009
6C05B036
6C05B036
12DA4B48
0D2434B0
0D2434B0
02D80B40
ENDCHAR
STARTCHAR E0DA
ENCODING 57562
SWIDTH 684 0
DWIDTH 19 0
BBX 15 21 2 0
BITMAP
901A
901A
6004
901A
6004
6004
901A
6C04
7EDE
12DA
0D24
02DA
02DA
0004
001A
0004
0004
92DA
6D24
6D24
92D8
ENDCHAR
STARTCHAR E0E2
ENCODING 57570
SWIDTH 684 0
DWIDTH 19 0
BBX 15 21 2 0
BITMAP
00DA
00DA
0124
02DA
0D04
0D04
121A
6C04
FC1E
901A
6004
92DA
92DA
6D24
92DA
6004
6004
901A
6004
6004
901A
ENDCHAR
STARTCHAR E0FA
ENCODING 57594
SWIDTH 684 0
DWIDTH 19 0
BBX 15 21 2 0
BITMAP
92DA
92DA
6D24
92DA
6004
6004
901A
6024
F2FE
92DA
6D24
92DA
92DA
6004
901A
6024
6024
92D8
6D20
6D20
92C0
ENDCHAR
STARTCHAR E0FB
ENCODING 57595
SWIDTH 684 0
DWIDTH 19 0
BBX 15 21 2 0
BITMAP
00DA
00DA
0124
02DA
0D00
0D00
1200
6C00
FC00
9000
6000
9000
9000
6000
9000
6000
6000
92DA
6D24
6D24
92DA
ENDCHAR
STARTCHAR E100
ENCODING 57600
SWIDTH 792 0
DWIDTH 22 0
BBX 18 21 2 0
BITMAP
92C000
92C000
6D2000
92D800
602400
602400
901A00
600580
F007C0
900240
600180
900240
900240
600180
900240
600180
600180
92DA40
6D2580
6D2580
92DA40
ENDCHAR
STARTCHAR E101
ENCODING 57601
SWIDTH 828 0
DWIDTH 23 0
BBX 21 21 1 0
BITMAP
369000
369000
096C00
369200
080D00
080D00
3602C0
080120
BE81F8
B680D8
490020
B680D8
B680D8
080020
3600D8
080020
080020
3692D8
096D20
096D20
3692D8
ENDCHAR
STARTCHAR E103
ENCODING 57603
SWIDTH 828 0
DWIDTH 23 0
BBX 21 21 1 0
BITMAP
369000
369000
096C00
369200
080D00
080D00
3602C0
080120
BE81F8
B680D8
490020
B680D8
B680D8
080020
3600D8
080020
080020
3692D8
096D20
096D20
3692D8
ENDCHAR
STARTCHAR E104
ENCODING 57604
SWIDTH 684 0
DWIDTH 19 0
BBX 15 21 2 0
BITMAP
92DA
92DA
6D24
92DA
6000
6000
9000
6000
F2D8
92D8
6D20
92D8
92D8
6000
9000
6C00
6C00
12DA
0D24
0D24
02DA
ENDCHAR
STARTCHAR E115
ENCODING 57621
SWIDTH 792 0
DWIDTH 22 0
BBX 18 21 2 0
BITMAP
02DA40
02DA40
0D2580
12DA40
6C0000
6C0000
900000
600000
F0DA40
90DA40
602580
90DA40
90DA40
600180
900240
600180
600180
92DA40
6D2580
6D2580
92DA40
ENDCHAR
STARTCHAR E119
ENCODING 57625
SWIDTH 684 0
DWIDTH 19 0
BBX 15 21 2 0
BITMAP
9000
9000
6000
9000
6000
6000
9000
6000
F000
9000
6000
9000
9000
6000
9000
6C00
6C00
12DA
0D24
0D24
02DA
ENDCHAR
STARTCHAR E11E
ENCODING 57630
SWIDTH 1080 0
DWIDTH 30 0
BBX 26 21 2 0
BITMAP
921A4000
921A4000
6D05B000
92DA4800
61243400
61243400
90DA0B00
60240480
F03E07C0
901A0340
60040080
901A0340
901A0340
60040080
901A0340
60040080
60040080
901A0340
60040080
60040080
901A0340
ENDCHAR
STARTCHAR E11F
ENCODING 57631
SWIDTH 684 0
DWIDTH 19 0
BBX 15 21 2 0
BITMAP
9200
9200
6D00
92C0
6120
6120
90D8
6024
F03E
901A
6004
901A
901A
6004
901A
6004
6004
901A
6004
6004
901A
ENDCHAR
STARTCHAR E123
ENCODING 57635
SWIDTH 684 0
DWIDTH 19 0
BBX 15 27 2 -6
BITMAP
9200
9200
6D00
92C0
6120
6120
90D8
6024
F03E
901A
6004
901A
901A
6004
901A
6004
6004
901A
6004
6004
901A
0004
00DA
00DA
0024
00D8
00D8
ENDCHAR
STARTCHAR E125
ENCODING 57637
SWIDTH 792 0
DWIDTH 22 0
BBX 18 21 2 0
BITMAP
92D800
92D800
6D2400
92DA00
600580
600580
900240
600180
F003C0
900240
600180
900240
900240
600180
900240
6C0180
6C0180
12DA40
0D2580
0D2580
02DA40
ENDCHAR
STARTCHAR E136
ENCODING 57654
SWIDTH 684 0
DWIDTH 19 0
BBX 15 21 2 0
BITMAP
92DA
92DA
6D24
92DA
6004
6004
901A
6004
F01E
901A
6004
901A
901A
6024
92D8
6D20
6D20
92C0
6000
6000
9000
ENDCHAR
STARTCHAR E137
ENCODING 57655
SWIDTH 684 0
DWIDTH 19 0
BBX 15 21 2 0
BITMAP
9000
9000
6000
92DA
6D24
6D24
92DA
6004
F01E
901A
6004
901A
901A
6024
92D8
6D20
6D20
92C0
6000
6000
9000
ENDCHAR
STARTCHAR E138
ENCODING 57656
SWIDTH 792 0
DWIDTH 22 0
BBX 18 24 2 -3
BITMAP
92D800
92D800
6D2400
92DA00
600580
600580
900240
600180
F003C0
900240
600180
900240
900240
600180
90DA40
6C2180
6C2180
12DA40
0D2580
0D2580
02DA40
002000
00D800
00D800
ENDCHAR
STARTCHAR E139
ENCODING 57657
SWIDTH 684 0
DWIDTH 19 0
BBX 15 21 2 0
BITMAP
92DA
92DA
6D24
92DA
6004
6004
901A
6004
F01E
901A
6004
901A
901A
6024
92D8
6D20
6D20
92D8
6024
6024
901A
ENDCHAR
STARTCHAR E13D
ENCODING 57661
SWIDTH 684 0
DWIDTH 19 0
BBX 15 21 2 0
BITMAP
02DA
02DA
0D24
12DA
6C00
6C00
9000
6000
F2DA
92DA
6D24
92DA
92DA
0004
001A
0024
0024
92D8
6D20
6D20
92C0
ENDCHAR
STARTCHAR E141
ENCODING 57665
SWIDTH 684 0
DWIDTH 19 0
BBX 15 21 2 0
BITMAP
901A
901A
6004
901A
6004
6004
901A
6004
F01E
901A
6004
901A
901A
6024
90D8
6120
6120
92C0
6D00
6D00
9200
ENDCHAR
STARTCHAR E142
ENCODING 57666
SWIDTH 1080 0
DWIDTH 30 0
BBX 26 21 2 0
BITMAP
901A0340
901A0340
60040080
901A0340
60040080
60040080
901A0340
60040080
F01E03C0
901A0340
60040080
901A0340
901A0340
60240480
90DA0B00
61243400
61243400
92DA4800
6D05B000
6D05B000
921A4000
ENDCHAR
STARTCHAR E147
ENCODING 57671
SWIDTH 288 0
DWIDTH 8 0
BBX 4 26 2 0
BITMAP
90
60
90
90
00
90
90
60
90
60
60
90
60
F0
90
60
90
90
60
90
60
60
90
60
60
90
ENDCHAR
STARTCHAR E148
ENCODING 57672
SWIDTH 684 0
DWIDTH 19 0
BBX 15 21 2 0
BITMAP
92DA
92DA
6D24
92DA
0004
0004
001A
0004
92DE
92DA
6D24
92DA
92DA
6004
901A
6004
6004
92DA
6D24
6D24
92DA
ENDCHAR
STARTCHAR E15F
ENCODING 57695
SWIDTH 1080 0
DWIDTH 30 0
BBX 26 21 2 0
BITMAP
92DA4B40
92DA4B40
6D25B480
92DA4B40
00040080
00040080
001A0340
00040080
92DE4BC0
92DA4B40
6D25B480
92DA4B40
92DA4B40
60040000
901A0000
60040000
60040000
92DA4B40
6D25B480
6D25B480
92DA4B40
ENDCHAR
STARTCHAR E160
ENCODING 57696
SWIDTH 684 0
DWIDTH 19 0
BBX 15 21 2 0
BITMAP
92DA
92DA
6D24
92DA
6004
6004
901A
6024
F2FC
92D8
6D20
92D8
92D8
6024
901A
6004
6004
92DA
6D24
6D24
92DA
ENDCHAR
STARTCHAR E161
ENCODING 57697
SWIDTH 684 0
DWIDTH 19 0
BBX 15 21 2 0
BITMAP
92DA
92DA
6D24
92DA
6004
6004
901A
6004
F01E
901A
6000
9000
9000
6000
901A
6004
6004
92DA
6D24
6D24
92DA
ENDCHAR
STARTCHAR E166
ENCODING 57702
SWIDTH 684 0
DWIDTH 19 0
BBX 15 21 2 0
BITMAP
92DA
92DA
6D24
92DA
6004
6004
901A
6004
F2DE
92DA
6D24
92DA
92DA
6000
9000
6000
6000
92DA
6D24
6D24
92DA
ENDCHAR
STARTCHAR E177
ENCODING 57719
SWIDTH 684 0
DWIDTH 19 0
BBX 15 21 2 0
BITMAP
92DA
92DA
6D24
92DA
6000
6000
9000
6000
F2D8
92D8
6D20
92D8
92D8
6000
9000
6000
6000
9000
6000
6000
9000
ENDCHAR
STARTCHAR E178
ENCODING 57720
SWIDTH 684 0
DWIDTH 19 0
BBX 15 21 2 0
BITMAP
92DA
92DA
6D24
92DA
6000
6000
9000
6000
F0DA
90DA
6024
90DA
90DA
6004
901A
6004
6004
92DA
6D24
6D24
92DA
ENDCHAR
STARTCHAR E17C
ENCODING 57724
SWIDTH 468 0
DWIDTH 13 0
BBX 10 21 2 0
BITMAP
02C0
02C0
0100
02C0
0100
0100
02C0
0100
03C0
02C0
0100
02C0
02C0
0100
02C0
0100
0100
92C0
6D00
6D00
92C0
ENDCHAR
STARTCHAR E17D
ENCODING 57725
SWIDTH 684 0
DWIDTH 19 0
BBX 15 21 2 0
BITMAP
901A
901A
6004
901A
6024
6024
90D8
6120
F3FA
92DA
6D24
92DA
92DA
6004
901A
6004
6004
901A
6004
6004
901A
ENDCHAR
STARTCHAR E17F
ENCODING 57727
SWIDTH 576 0
DWIDTH 16 0
BBX 13 21 2 0
BITMAP
9000
9000
6000
9000
6000
6000
9000
6000
F000
9000
6000
9000
9000
6000
9000
6000
6000
92D8
6D20
6D20
92D8
ENDCHAR
STARTCHAR E184
ENCODING 57732
SWIDTH 900 0
DWIDTH 25 0
BBX 21 21 2 0
BITMAP
92DA48
92DA48
6D25B0
92DA48
602030
602030
90D848
602030
F0F878
90D848
602030
90D848
90D848
602030
90D848
602030
602030
90D848
602030
602030
90D848
ENDCHAR
STARTCHAR E185
ENCODING 57733
SWIDTH 684 0
DWIDTH 19 0
BBX 15 21 2 0
BITMAP
92DA
92DA
6D24
92DA
6004
6004
901A
6004
F01E
901A
6004
901A
901A
6004
901A
6004
6004
901A
6004
6004
901A
ENDCHAR
STARTCHAR E189
ENCODING 57737
SWIDTH 684 0
DWIDTH 19 0
BBX 15 27 2 -6
BITMAP
92DA
92DA
6D24
92DA
6004
6004
901A
6004
F01E
901A
6004
901A
901A
6004
901A
6004
6004
901A
6004
6004
901A
0004
00DA
00DA
0024
00D8
00D8
ENDCHAR
STARTCHAR E18B
ENCODING 57739
SWIDTH 684 0
DWIDTH 19 0
BBX 15 21 2 0
BITMAP
92DA
92DA
6D24
92DA
6004
6004
901A
6004
F01E
901A
6004
901A
901A
6004
901A
6004
6004
92DA
6D24
6D24
92DA
ENDCHAR
STARTCHAR E198
ENCODING 57752
SWIDTH 828 0
DWIDTH 23 0
BBX 21 24 2 0
BITMAP
000048
000048
000030
92DA48
92DA48
6D25B0
92DA40
600400
600400
901A00
600400
F01E00
901A00
600400
901A00
901A00
600400
901A00
600400
600400
92DA00
6D2400
6D2400
92DA00
ENDCHAR
STARTCHAR E1A2
ENCODING 57762
SWIDTH 1080 0
DWIDTH 30 0
BBX 26 21 2 0
BITMAP
92DA4B40
92DA4B40
6D25B480
92DA4B40
60040080
60040080
901A0340
60040080
F01E4BC0
901A4B40
6005B480
901A4B40
901A4B40
60040000
901A0000
60040000
60040000
92DA4B40
6D25B480
6D25B480
92DA4B40
ENDCHAR
STARTCHAR E1A3
ENCODING 57763
SWIDTH 684 0
DWIDTH 19 0
BBX 15 21 2 0
BITMAP
92DA
92DA
6D24
92DA
6004
6004
901A
6004
F01E
901A
6004
92DA
92DA
6D24
92DA
6000
6000
9000
6000
6000
9000
ENDCHAR
STARTCHAR E1A4
ENCODING 57764
SWIDTH 684 0
DWIDTH 19 0
BBX 15 21 2 0
BITMAP
9000
9000
6000
92DA
6D24
6D24
92DA
6004
F01E
901A
6004
901A
901A
6004
92DA
6D24
6D24
92DA
6000
6000
9000
ENDCHAR
STARTCHAR E1A5
ENCODING 57765
SWIDTH 684 0
DWIDTH 19 0
BBX 15 24 2 -3
BITMAP
92DA
92DA
6D24
92DA
6004
6004
901A
6004
F01E
901A
6004
901A
901A
6004
92DA
6104
6104
92DA
6D24
6D24
92DA
0100
02C0
02C0
ENDCHAR
STARTCHAR E1A6
ENCODING 57766
SWIDTH 684 0
DWIDTH 19 0
BBX 15 21 2 0
BITMAP
92DA
92DA
6D24
92DA
6004
6004
901A
6004
F01E
901A
6004
92DA
92DA
6D24
92D8
6024
6024
901A
6004
6004
901A
ENDCHAR
STARTCHAR E1AA
ENCODING 57770
SWIDTH 684 0
DWIDTH 19 0
BBX 15 21 2 0
BITMAP
92DA
92DA
6D24
92DA
6000
6000
9000
6000
F2DA
92DA
6D24
92DA
92DA
0004
001A
0004
0004
92DA
6D24
6D24
92DA
ENDCHAR
STARTCHAR E1B0
ENCODING 57776
SWIDTH 684 0
DWIDTH 19 0
BBX 15 21 2 0
BITMAP
901A
901A
6004
901A
6004
6004
901A
6004
F01E
901A
6004
901A
901A
6004
901A
6004
6004
92DA
6D24
6D24
92DA
ENDCHAR
STARTCHAR E1BC
ENCODING 57788
SWIDTH 828 0
DWIDTH 23 0
BBX 21 24 2 0
BITMAP
000048
000048
000030
901A48
901A48
6005B0
901A40
600400
600400
901A00
600400
F01E00
901A00
600400
901A00
901A00
600400
901A00
600400
600400
92DA00
6D2400
6D2400
92DA00
ENDCHAR
STARTCHAR E1C7
ENCODING 57799
SWIDTH 900 0
DWIDTH 25 0
BBX 21 21 2 0
BITMAP
90D848
90D848
602030
90D848
602030
602030
90D848
602030
F0F878
90D848
602030
90D848
90D848
602030
90D848
602030
602030
92DA48
6D25B0
6D25B0
92DA48
ENDCHAR
STARTCHAR E1CC
ENCODING 57804
SWIDTH 684 0
DWIDTH 19 0
BBX 15 21 2 0
BITMAP
901A
901A
6004
901A
6004
6004
901A
6004
F2DE
92DA
6D24
92DA
92DA
0004
001A
0004
0004
92DA
6D24
6D24
92DA
ENDCHAR
STARTCHAR E1D4
ENCODING 57812
SWIDTH 684 0
DWIDTH 19 0
BBX 15 21 2 0
BITMAP
92DA
92DA
6D24
92DA
0004
0004
001A
0004
92DE
92DA
6D24
92DA
92DA
6000
9000
6000
6000
92DA
6D24
6D24
92DA
ENDCHAR
STARTCHAR E1D8
ENCODING 57816
SWIDTH 684 0
DWIDTH 19 0
BBX 15 21 2 0
BITMAP
92D8
92D8
6D24
92DA
0004
0004
001A
0004
12DE
12DA
6D24
92DA
92DA
6004
901A
6004
6004
92DA
6D24
6D24
12D8
ENDCHAR
STARTCHAR E1EF
ENCODING 57839
SWIDTH 1080 0
DWIDTH 30 0
BBX 26 21 2 0
BITMAP
92DA4B00
92DA4B00
6D25B480
92DA4B40
00040080
00040080
001A0340
00040080
12DE4BC0
12DA4B40
6D25B480
92DA4B40
92DA4B40
60040000
901A0000
60040000
60040000
92DA4B40
6D25B480
6D25B480
12DA4B40
ENDCHAR
STARTCHAR E1F0
ENCODING 57840
SWIDTH 684 0
DWIDTH 19 0
BBX 15 21 2 0
BITMAP
12DA
12DA
6D24
92DA
6000
6000
9000
6000
F000
9000
6000
9000
9000
6000
9000
6000
6000
92DA
6D24
6D24
12DA
ENDCHAR
STARTCHAR E1F5
ENCODING 57845
SWIDTH 684 0
DWIDTH 19 0
BBX 15 21 2 0
BITMAP
12D8
12D8
6D24
92DA
6004
6004
901A
6004
F2DE
92DA
6D24
92DA
92DA
6000
9000
6000
6000
92DA
6D24
6D24
12DA
ENDCHAR
STARTCHAR E206
ENCODING 57862
SWIDTH 684 0
DWIDTH 19 0
BBX 15 21 2 0
BITMAP
12D8
12D8
6D24
92DA
6004
6004
901A
6000
F2C0
92C0
6D00
92C0
92C0
6000
9000
6000
6000
9000
6000
6000
9000
ENDCHAR
STARTCHAR E207
ENCODING 57863
SWIDTH 684 0
DWIDTH 19 0
BBX 15 21 2 0
BITMAP
12DA
12DA
6D24
92DA
6004
6004
901A
6004
F2DE
92DA
6D24
12DA
12DA
0004
001A
0004
0004
92DA
6D24
6D24
92D8
ENDCHAR
STARTCHAR E20B
ENCODING 57867
SWIDTH 576 0
DWIDTH 16 0
BBX 13 21 2 0
BITMAP
00D8
00D8
0020
00D8
0020
0020
00D8
0020
00F8
00D8
0020
00D8
00D8
0020
90D8
6020
6020
92D8
6D20
6D20
12C0
ENDCHAR
STARTCHAR E20C
ENCODING 57868
SWIDTH 1080 0
DWIDTH 30 0
BBX 26 21 2 0
BITMAP
12DA4B00
12DA4B00
6D25B480
92DA4B40
60040080
60040080
901A0340
60040080
F01E03C0
901A0340
60040080
901A0340
901A0340
60040080
901A0340
60040080
60040080
901A0340
60040080
60040080
901A0340
ENDCHAR
STARTCHAR E20D
ENCODING 57869
SWIDTH 684 0
DWIDTH 19 0
BBX 15 21 2 0
BITMAP
12D8
12D8
6D24
92DA
6004
6004
901A
6004
F01E
901A
6004
901A
901A
6004
901A
6004
6004
901A
6004
6004
901A
ENDCHAR
STARTCHAR E211
ENCODING 57873
SWIDTH 684 0
DWIDTH 19 0
BBX 15 27 2 -6
BITMAP
12D8
12D8
6D24
92DA
6004
6004
901A
6004
F01E
901A
6004
901A
901A
6004
901A
6004
6004
901A
6004
6004
901A
0004
00DA
00DA
0024
00D8
00D8
ENDCHAR
STARTCHAR E213
ENCODING 57875
SWIDTH 1080 0
DWIDTH 30 0
BBX 26 21 2 0
BITMAP
12DA4B00
12DA4B00
6D25B480
92DA4B40
60040080
60040080
901A0340
60040080
F01E4BC0
901A4B40
6005B480
901A4B40
901A4B40
60040000
901A0000
60040000
60040000
92DA4B40
6D25B480
6D25B480
12DA4B40
ENDCHAR
STARTCHAR E214
ENCODING 57876
SWIDTH 576 0
DWIDTH 16 0
BBX 13 21 2 0
BITMAP
12D8
12D8
6D20
92D8
6000
6000
9000
6000
F000
9000
6000
9000
9000
6000
9000
6000
6000
9000
6000
6000
9000
ENDCHAR
STARTCHAR E218
ENCODING 57880
SWIDTH 684 0
DWIDTH 19 0
BBX 15 21 2 0
BITMAP
12DA
12DA
6D24
92DA
6000
6000
9000
6000
F2D8
92D8
6D24
12DA
12DA
0004
001A
0004
0004
92DA
6D24
6D24
92D8
ENDCHAR
STARTCHAR E21D
ENCODING 57885
SWIDTH 1080 0
DWIDTH 30 0
BBX 26 21 2 0
BITMAP
901A0340
901A0340
60040080
901A0340
60040080
60040080
901A0340
60040080
F01E03C0
901A0340
60040080
901A0340
901A0340
60040080
901A0340
60040080
60040080
92DA4B40
6D25B480
6D25B480
12DA4B00
ENDCHAR
STARTCHAR E222
ENCODING 57890
SWIDTH 684 0
DWIDTH 19 0
BBX 15 21 2 0
BITMAP
901A
901A
6004
901A
6004
6004
901A
6004
F2DE
92DA
6D24
12DA
12DA
0004
001A
0004
0004
92DA
6D24
6D24
92D8
ENDCHAR
STARTCHAR E22A
ENCODING 57898
SWIDTH 684 0
DWIDTH 19 0
BBX 15 21 2 0
BITMAP
9200
9200
6D00
92C0
6120
6120
90D8
6024
F03E
901A
6004
92DA
92DA
6D24
92DA
6004
6004
901A
6004
6004
901A
ENDCHAR
STARTCHAR E242
ENCODING 57922
SWIDTH 684 0
DWIDTH 19 0
BBX 15 21 2 0
BITMAP
92DA
92DA
6D24
92DA
6004
6004
901A
6024
F2FE
92DA
6D24
92DA
92DA
6004
901A
6024
6024
92D8
6D20
6D20
92C0
ENDCHAR
STARTCHAR E243
ENCODING 57923
SWIDTH 684 0
DWIDTH 19 0
BBX 15 21 2 0
BITMAP
92DA
92DA
6D24
92DA
6000
6000
9000
6000
F000
9000
6000
9000
9000
6C00
1200
0D00
0D00
02DA
0124
0124
00DA
ENDCHAR
STARTCHAR E248
ENCODING 57928
SWIDTH 792 0
DWIDTH 22 0
BBX 18 21 2 0
BITMAP
92DA40
92DA40
6D2580
92DA40
600180
600180
900240
600180
F003C0
900240
600180
900240
900240
600580
901A00
602400
602400
92D800
6D2000
6D2000
92C000
ENDCHAR
STARTCHAR E249
ENCODING 57929
SWIDTH 828 0
DWIDTH 23 0
BBX 21 21 1 0
BITMAP
3692D8
3692D8
096D20
3692D8
080020
080020
3600D8
080020
BE80F8
B680D8
490020
B680D8
B680D8
080120
3602C0
080D00
080D00
369200
096C00
096C00
369000
ENDCHAR
STARTCHAR E24B
ENCODING 57931
SWIDTH 828 0
DWIDTH 23 0
BBX 21 21 1 0
BITMAP
3692D8
3692D8
096D20
3692D8
080020
080020
3600D8
080020
BE80F8
B680D8
490020
B680D8
B680D8
080120
3602C0
080D00
080D00
369200
096C00
096C00
369000
ENDCHAR
STARTCHAR E24C
ENCODING 57932
SWIDTH 684 0
DWIDTH 19 0
BBX 15 21 2 0
BITMAP
02DA
02DA
0D24
12DA
6C00
6C00
9000
6000
F2D8
92D8
6D20
92D8
92D8
6000
9000
6000
6000
92DA
6D24
6D24
92DA
ENDCHAR
STARTCHAR E25D
ENCODING 57949
SWIDTH 792 0
DWIDTH 22 0
BBX 18 21 2 0
BITMAP
92DA40
92DA40
6D2580
92DA40
600000
600000
900000
600000
F0DA40
90DA40
602580
90DA40
90DA40
600180
900240
6C0180
6C0180
12DA40
0D2580
0D2580
02DA40
ENDCHAR
STARTCHAR E261
ENCODING 57953
SWIDTH 576 0
DWIDTH 16 0
BBX 13 21 2 0
BITMAP
92D8
92D8
6D20
92D8
0020
0020
00D8
0020
00F8
00D8
0020
00D8
00D8
0020
90D8
6120
6120
92C0
6D00
6D00
9200
ENDCHAR
STARTCHAR E262
ENCODING 57954
SWIDTH 576 0
DWIDTH 16 0
BBX 13 21 2 0
BITMAP
9000
9000
6000
9000
6000
6000
9000
6000
F000
9000
6000
9000
9000
6000
9000
6C00
6C00
12D8
0D20
0D20
02D8
ENDCHAR
STARTCHAR E267
ENCODING 57959
SWIDTH 1080 0
DWIDTH 30 0
BBX 26 21 2 0
BITMAP
00DA0B40
00DA0B40
01243480
02DA4B40
0D05B080
0D05B080
121A4340
6C058080
FC1F83C0
901A0340
60040080
901A0340
901A0340
60040080
901A0340
60040080
60040080
901A0340
60040080
60040080
901A0340
ENDCHAR
STARTCHAR E268
ENCODING 57960
SWIDTH 684 0
DWIDTH 19 0
BBX 15 21 2 0
BITMAP
00DA
00DA
0124
02DA
0D04
0D04
121A
6C04
FC1E
901A
6004
901A
901A
6004
901A
6004
6004
901A
6004
6004
901A
ENDCHAR
STARTCHAR E26C
ENCODING 57964
SWIDTH 684 0
DWIDTH 19 0
BBX 15 27 2 -6
BITMAP
00DA
00DA
0124
02DA
0D04
0D04
121A
6C04
FC1E
901A
6004
901A
901A
6004
901A
6004
6004
901A
6004
6004
901A
0004
00DA
00DA
0024
00D8
00D8
ENDCHAR
STARTCHAR E26E
ENCODING 57966
SWIDTH 792 0
DWIDTH 22 0
BBX 18 21 2 0
BITMAP
02DA40
02DA40
0D2580
12DA40
6C0180
6C0180
900240
600180
F003C0
900240
600180
900240
900240
600180
900240
600580
600580
92DA00
6D2400
6D2400
92D800
ENDCHAR
STARTCHAR E27F
ENCODING 57983
SWIDTH 684 0
DWIDTH 19 0
BBX 15 21 2 0
BITMAP
92DA
92DA
6D24
92DA
6004
6004
901A
6004
F01E
901A
6024
92D8
92D8
6D20
92C0
6000
6000
9000
6000
6000
9000
ENDCHAR
STARTCHAR E280
ENCODING 57984
SWIDTH 684 0
DWIDTH 19 0
BBX 15 21 2 0
BITMAP
9000
9000
6000
92DA
6D24
6D24
92DA
6004
F01E
901A
6004
901A
901A
6024
92D8
6D20
6D20
92C0
6000
6000
9000
ENDCHAR
STARTCHAR E281
ENCODING 57985
SWIDTH 792 0
DWIDTH 22 0
BBX 18 24 2 -3
BITMAP
02DA40
02DA40
0D2580
12DA40
6C0180
6C0180
900240
600180
F003C0
900240
600180
900240
900240
600180
92C240
610580
610580
92DA00
6D2400
6D2400
92D800
010000
02C000
02C000
ENDCHAR
STARTCHAR E282
ENCODING 57986
SWIDTH 684 0
DWIDTH 19 0
BBX 15 21 2 0
BITMAP
92DA
92DA
6D24
92DA
6004
6004
901A
6004
F01E
901A
6024
92D8
92D8
6D20
92D8
6024
6024
901A
6004
6004
901A
ENDCHAR
STARTCHAR E286
ENCODING 57990
SWIDTH 684 0
DWIDTH 19 0
BBX 15 21 2 0
BITMAP
02DA
02DA
0D24
12DA
6C00
6C00
9000
6000
F2DA
92DA
6D24
92DA
92DA
0004
001A
0024
0024
92D8
6D20
6D20
92C0
ENDCHAR
STARTCHAR E28A
ENCODING 57994
SWIDTH 684 0
DWIDTH 19 0
BBX 15 21 2 0
BITMAP
901A
901A
6004
901A
6004
6004
901A
6004
F01E
901A
6004
901A
901A
6C04
121A
0D04
0D04
02DA
0124
0124
00DA
ENDCHAR
STARTCHAR E28B
ENCODING 57995
SWIDTH 1080 0
DWIDTH 30 0
BBX 26 21 2 0
BITMAP
901A0340
901A0340
60040080
901A0340
60040080
60040080
901A0340
60040080
F01E03C0
901A0340
60040080
901A0340
901A0340
6C058080
121A4340
0D05B080
0D05B080
02DA4B40
01243480
01243480
00DA0B40
ENDCHAR
STARTCHAR E290
ENCODING 58000
SWIDTH 684 0
DWIDTH 19 0
BBX 15 21 2 0
BITMAP
901A
901A
6004
901A
6004
6004
901A
6004
F01E
901A
6C04
12DA
12DA
0D24
02DA
0004
0004
001A
0004
0004
001A
ENDCHAR
STARTCHAR E298
ENCODING 58008
SWIDTH 684 0
DWIDTH 19 0
BBX 15 21 2 0
BITMAP
92DA
92DA
6D24
92DA
0024
0024
00D8
0120
03E0
02C0
0D00
1200
1200
6C00
9000
6000
6000
92DA
6D24
6D24
92DA
ENDCHAR
STARTCHAR E29C
ENCODING 58012
SWIDTH 792 0
DWIDTH 22 0
BBX 18 21 2 0
BITMAP
92D800
92D800
6D2400
92DA00
600580
600580
900000
600000
F0DA40
90DA40
602580
90DA40
90DA40
600180
900240
600580
600580
92DA00
6D2400
6D2400
92D800
ENDCHAR
STARTCHAR E29D
ENCODING 58013
SWIDTH 684 0
DWIDTH 19 0
BBX 15 21 2 0
BITMAP
92DA
92DA
6D24
92DA
6004
6004
901A
6004
F01E
901A
6004
92DA
92DA
6D24
92DA
6004
6004
901A
6004
6004
901A
ENDCHAR
STARTCHAR E29E
ENCODING 58014
SWIDTH 684 0
DWIDTH 19 0
BBX 15 21 2 0
BITMAP
92DA
92DA
6D24
92DA
6000
6000
9000
6000
F2D8
92D8
6D24
92DA
92DA
6004
901A
6004
6004
92DA
6D24
6D24
92D8
ENDCHAR
STARTCHAR E29F
ENCODING 58015
SWIDTH 684 0
DWIDTH 19 0
BBX 15 21 2 0
BITMAP
92DA
92DA
6D24
92DA
6004
6004
901A
6024
F2FC
92D8
6D20
92D8
92D8
6024
901A
6004
6004
92DA
6D24
6D24
92DA
ENDCHAR
STARTCHAR E2A0
ENCODING 58016
SWIDTH 684 0
DWIDTH 19 0
BBX 15 21 2 0
BITMAP
92DA
92DA
6D24
92DA
6000
6000
9000
6000
F000
9000
6000
9000
9000
6000
9000
6000
6000
9000
6000
6000
9000
ENDCHAR
STARTCHAR E2A2
ENCODING 58018
SWIDTH 684 0
DWIDTH 19 0
BBX 15 21 2 0
BITMAP
92DA
92DA
6D24
92DA
6000
6000
9000
6000
F2D8
92D8
6D20
92D8
92D8
6000
9000
6000
6000
92DA
6D24
6D24
92DA
ENDCHAR
STARTCHAR E2A4
ENCODING 58020
SWIDTH 1080 0
DWIDTH 30 0
BBX 26 21 2 0
BITMAP
901A0340
901A0340
60040080
901A0340
6C040480
6C040480
121A0B00
0D043400
9FDE7F40
92DA4B40
6D25B480
92DA4B40
92DA4B40
60040080
901A0340
60040080
60040080
901A0340
60040080
60040080
901A0340
ENDCHAR
STARTCHAR E2A5
ENCODING 58021
SWIDTH 792 0
DWIDTH 22 0
BBX 18 21 2 0
BITMAP
92DA40
92DA40
6D2580
92DA40
600180
600180
900240
000580
02DF80
02DA00
012400
02DA00
02DA00
000580
900240
600180
600180
92DA40
6D2580
6D2580
92DA40
ENDCHAR
STARTCHAR E2A6
ENCODING 58022
SWIDTH 684 0
DWIDTH 19 0
BBX 15 21 2 0
BITMAP
901A
901A
6004
901A
6024
6024
90D8
6120
F3FA
92DA
6D24
92DA
92DA
6004
901A
6004
6004
901A
6004
6004
901A
ENDCHAR
STARTCHAR E2A8
ENCODING 58024
SWIDTH 1080 0
DWIDTH 30 0
BBX 26 21 2 0
BITMAP
92DA4B40
92DA4B40
6D25B480
92DA4B40
60040080
60040080
901A0340
60040080
F01E03C0
901A0340
60040080
901A0340
901A0340
60040080
901A0340
60040080
60040080
901A0340
60040080
60040080
901A0340
ENDCHAR
STARTCHAR E2A9
ENCODING 58025
SWIDTH 792 0
DWIDTH 22 0
BBX 18 21 2 0
BITMAP
92DA40
92DA40
6D2580
92DA40
600180
600180
900240
600180
F003C0
900240
600180
900240
900240
600180
900240
600180
600180
92DA40
6D2580
6D2580
92DA40
ENDCHAR
STARTCHAR E2AA
ENCODING 58026
SWIDTH 792 0
DWIDTH 22 0
BBX 18 21 2 0
BITMAP
92DA40
92DA40
6D2580
92DA40
600180
600180
900240
600180
F003C0
900240
600180
900240
900240
600180
900240
600180
600180
900240
600180
600180
900240
ENDCHAR
STARTCHAR E2AB
ENCODING 58027
SWIDTH 684 0
DWIDTH 19 0
BBX 15 21 2 0
BITMAP
92DA
92DA
6D24
92DA
6004
6004
901A
6004
F01E
901A
6004
901A
901A
6004
92DA
6D24
6D24
92DA
6000
6000
9000
ENDCHAR
STARTCHAR E2AC
ENCODING 58028
SWIDTH 792 0
DWIDTH 22 0
BBX 18 21 2 0
BITMAP
92DA40
92DA40
6D2580
92DA40
600180
600180
900240
600180
F003C0
900240
600000
900000
900000
600000
900240
600180
600180
92DA40
6D2580
6D2580
92DA40
ENDCHAR
STARTCHAR E2AD
ENCODING 58029
SWIDTH 684 0
DWIDTH 19 0
BBX 15 21 2 0
BITMAP
901A
901A
6004
901A
6004
6004
901A
6004
F2DE
92DA
6D24
92DA
92DA
0004
001A
0004
0004
92DA
6D24
6D24
92DA
ENDCHAR
STARTCHAR E2AE
ENCODING 58030
SWIDTH 900 0
DWIDTH 25 0
BBX 21 27 2 -3
BITMAP
00D800
00D800
002000
92DA48
92DA48
6D25B0
92DA48
602030
602030
90D848
602030
F0F878
90D848
602030
90D848
90D848
602030
90D848
602030
602030
92DA48
6D25B0
6D25B0
92DA48
002000
00D800
00D800
ENDCHAR
STARTCHAR E2AF
ENCODING 58031
SWIDTH 792 0
DWIDTH 22 0
BBX 18 21 2 0
BITMAP
900240
900240
600180
900240
600180
600180
900240
6C0580
7EDF80
12DA00
0D2400
12DA00
12DA00
6C0580
900240
600180
600180
900240
600180
600180
900240
ENDCHAR
STARTCHAR E2B0
ENCODING 58032
SWIDTH 684 0
DWIDTH 19 0
BBX 15 21 2 0
BITMAP
901A
901A
6004
901A
6004
6004
901A
6004
F2DE
92DA
6D24
92DA
92DA
0004
001A
0004
0004
001A
0004
0004
001A
ENDCHAR
STARTCHAR E2B1
ENCODING 58033
SWIDTH 828 0
DWIDTH 23 0
BBX 21 24 2 -3
BITMAP
900240
900240
600180
900240
600180
600180
900240
600180
F003C0
900240
600180
900240
900240
600180
900240
600180
600180
92DA40
6D25B0
6D25B0
92DA48
000030
000048
000048
ENDCHAR
STARTCHAR E2B2
ENCODING 58034
SWIDTH 1080 0
DWIDTH 30 0
BBX 26 21 2 0
BITMAP
901A0340
901A0340
60040080
901A0340
60040080
60040080
901A0340
60040080
F01E03C0
901A0340
60040080
901A0340
901A0340
60040080
901A0340
60040080
60040080
92DA4B40
6D25B480
6D25B480
92DA4B40
ENDCHAR
STARTCHAR E2B3
ENCODING 58035
SWIDTH 1116 0
DWIDTH 31 0
BBX 29 24 2 -3
BITMAP
901A0340
901A0340
60040080
901A0340
60040080
60040080
901A0340
60040080
F01E03C0
901A0340
60040080
901A0340
901A0340
60040080
901A0340
60040080
60040080
92DA4B40
6D25B4B0
6D25B4B0
92DA4B48
00000030
00000048
00000048
ENDCHAR
STARTCHAR E2B4
ENCODING 58036
SWIDTH 684 0
DWIDTH 19 0
BBX 15 21 2 0
BITMAP
9000
9000
6000
9000
6000
6000
9000
6000
F2DA
92DA
6D24
92DA
92DA
6004
901A
6004
6004
92DA
6D24
6D24
92DA
ENDCHAR
STARTCHAR E2B5
ENCODING 58037
SWIDTH 792 0
DWIDTH 22 0
BBX 18 21 2 0
BITMAP
920000
920000
6C0000
920000
0C0000
0C0000
120000
0C0000
1EDA40
12DA40
0D2580
12DA40
12DA40
0C0180
120240
0C0180
0C0180
12DA40
0D2580
0D2580
12DA40
ENDCHAR
STARTCHAR E2B6
ENCODING 58038
SWIDTH 936 0
DWIDTH 26 0
BBX 22 21 2 0
BITMAP
900034
900034
600008
900034
600008
600008
900034
600008
F2DA3C
92DA34
6D2408
92DA34
92DA34
600408
901A34
600408
600408
92DA34
6D2408
6D2408
92DA34
ENDCHAR
STARTCHAR E2B7
ENCODING 58039
SWIDTH 792 0
DWIDTH 22 0
BBX 18 21 2 0
BITMAP
92DA40
92DA40
6D2580
92DA40
600180
600180
900240
000180
02DBC0
02DA40
012580
02DA40
02DA40
000180
900240
600180
600180
92DA40
6D2580
6D2580
92DA40
ENDCHAR
STARTCHAR E2B8
ENCODING 58040
SWIDTH 1080 0
DWIDTH 30 0
BBX 26 21 2 0
BITMAP
90DA4B40
90DA4B40
6025B480
90DA4B40
60200080
60200080
90D80340
60200080
F2F803C0
92D80340
6D200080
92D80340
92D80340
60200080
90D80340
60200080
60200080
90DA4B40
6025B480
6025B480
90DA4B40
ENDCHAR
STARTCHAR E2B9
ENCODING 58041
SWIDTH 684 0
DWIDTH 19 0
BBX 15 21 2 0
BITMAP
92DA
92DA
6D24
92DA
6004
6004
901A
6004
F01E
901A
6004
901A
901A
6004
92DA
6D24
6D24
12DA
6C04
6C04
901A
ENDCHAR
STARTCHAR E2BE
ENCODING 58046
SWIDTH 684 0
DWIDTH 19 0
BBX 15 21 2 0
BITMAP
00DA
00DA
0124
02DA
0D04
0D04
121A
6C04
FC1E
901A
6004
92DA
92DA
6D24
92DA
6004
6004
901A
6004
6004
901A
ENDCHAR
STARTCHAR E2BF
ENCODING 58047
SWIDTH 684 0
DWIDTH 19 0
BBX 15 21 2 0
BITMAP
92DA
92DA
6D24
92DA
6000
6000
9000
6000
F2DA
92DA
6D24
92DA
92DA
6004
901A
6024
6024
92D8
6D20
6D20
92C0
ENDCHAR
STARTCHAR E2C0
ENCODING 58048
SWIDTH 684 0
DWIDTH 19 0
BBX 15 21 2 0
BITMAP
92DA
92DA
6D24
92DA
6004
6004
901A
6024
F2FE
92DA
6D24
92DA
92DA
6004
901A
6024
6024
92D8
6D20
6D20
92C0
ENDCHAR
STARTCHAR E2C1
ENCODING 58049
SWIDTH 684 0
DWIDTH 19 0
BBX 15 21 2 0
BITMAP
02DA
02DA
0D24
12DA
6C00
6C00
9000
6000
F000
9000
6000
9000
9000
6000
9000
6000
6000
9000
6000
6000
9000
ENDCHAR
STARTCHAR E2C2
ENCODING 58050
SWIDTH 684 0
DWIDTH 19 0
BBX 15 21 2 0
BITMAP
92DA
92DA
6D24
92DA
6000
6000
9000
6000
F2D8
92D8
6D20
92D8
92D8
6000
9000
6C00
6C00
12DA
0D24
0D24
02DA
ENDCHAR
STARTCHAR E2C5
ENCODING 58053
SWIDTH 792 0
DWIDTH 22 0
BBX 18 21 2 0
BITMAP
12DA40
12DA40
0D2580
12DA40
0C0180
0C0180
120240
0C0180
1E03C0
120240
0C0180
120240
120240
0C0180
120240
0C0180
0C0180
920240
6C0180
6C0180
900240
ENDCHAR
STARTCHAR E2C6
ENCODING 58054
SWIDTH 1080 0
DWIDTH 30 0
BBX 26 21 2 0
BITMAP
921A4000
921A4000
6D05B000
92DA4800
61243400
61243400
90DA0B00
60240480
F03E07C0
901A0340
60040080
901A0340
901A0340
60040080
901A0340
60040080
60040080
901A0340
60040080
60040080
901A0340
ENDCHAR
STARTCHAR E2C7
ENCODING 58055
SWIDTH 792 0
DWIDTH 22 0
BBX 18 21 2 0
BITMAP
92D800
92D800
6D2400
92DA00
600580
600580
900240
600180
F003C0
900240
600180
900240
900240
600180
900240
6C0180
6C0180
12DA40
0D2580
0D2580
02DA40
ENDCHAR
STARTCHAR E2C8
ENCODING 58056
SWIDTH 684 0
DWIDTH 19 0
BBX 15 21 2 0
BITMAP
92DA
92DA
6D24
92DA
6004
6004
901A
6004
F01E
901A
6004
901A
901A
6024
92D8
6D20
6D20
92C0
6000
6000
9000
ENDCHAR
STARTCHAR E2C9
ENCODING 58057
SWIDTH 684 0
DWIDTH 19 0
BBX 15 21 2 0
BITMAP
00DA
00DA
0124
02DA
0D00
0D00
1200
6C00
FC00
9000
6000
9000
9000
6000
9000
6000
6000
92DA
6D24
6D24
92DA
ENDCHAR
STARTCHAR E2CA
ENCODING 58058
SWIDTH 900 0
DWIDTH 25 0
BBX 21 27 2 -3
BITMAP
00D800
00D800
002000
92DA00
92DA00
6D2580
92DA40
6021B0
6021B0
90D848
602030
F0F878
90D848
602030
90D848
90D848
602030
90D848
6C2030
6C2030
12DA48
0D25B0
0D25B0
02DA48
002000
00D800
00D800
ENDCHAR
STARTCHAR E2CB
ENCODING 58059
SWIDTH 684 0
DWIDTH 19 0
BBX 15 21 2 0
BITMAP
9000
9000
6000
9000
6000
6000
9000
6000
F2DA
92DA
6D24
92DA
92DA
6004
901A
6024
6024
92D8
6D20
6D20
92C0
ENDCHAR
STARTCHAR E2CC
ENCODING 58060
SWIDTH 792 0
DWIDTH 22 0
BBX 18 21 2 0
BITMAP
920000
920000
6C0000
920000
0C0000
0C0000
120000
0C0000
1EDA40
12DA40
0D2580
12DA40
12DA40
0C0180
120240
0C0580
0C0580
12DA00
0D2400
0D2400
12D800
ENDCHAR
STARTCHAR E2CD
ENCODING 58061
SWIDTH 936 0
DWIDTH 26 0
BBX 22 21 2 0
BITMAP
900034
900034
600008
900034
600008
600008
900034
600008
F2DA3C
92DA34
6D2408
92DA34
92DA34
600408
901A34
602408
602408
92D834
6D2008
6D2008
92C034
ENDCHAR
STARTCHAR E2CF
ENCODING 58063
SWIDTH 1080 0
DWIDTH 30 0
BBX 26 21 2 0
BITMAP
90DA4800
90DA4800
6025B400
90DA4B00
60200480
60200480
90D80340
60200080
F2F803C0
92D80340
6D200080
92D80340
92D80340
60200080
90D80340
60240080
60240080
901A4B40
6005B480
6005B480
90024B40
ENDCHAR
STARTCHAR E2D0
ENCODING 58064
SWIDTH 684 0
DWIDTH 19 0
BBX 15 21 2 0
BITMAP
92DA
92DA
6D24
92DA
6004
6004
901A
6004
F01E
901A
6004
901A
901A
6C04
12DA
0D24
0D24
12DA
6C04
6C04
901A
ENDCHAR
STARTCHAR E2D1
ENCODING 58065
SWIDTH 684 0
DWIDTH 19 0
BBX 15 21 2 0
BITMAP
92DA
92DA
6D24
92DA
0004
0004
001A
0004
92DE
92DA
6D24
92DA
92DA
6004
901A
6004
6004
92DA
6D24
6D24
92DA
ENDCHAR
STARTCHAR E2D2
ENCODING 58066
SWIDTH 684 0
DWIDTH 19 0
BBX 15 21 2 0
BITMAP
92DA
92DA
6D24
92DA
6000
6000
9000
6000
F2D8
92D8
6D24
92DA
92DA
6004
901A
6004
6004
92DA
6D24
6D24
92D8
ENDCHAR
STARTCHAR E2D3
ENCODING 58067
SWIDTH 684 0
DWIDTH 19 0
BBX 15 21 2 0
BITMAP
92DA
92DA
6D24
92DA
6004
6004
901A
6024
F2FC
92D8
6D20
92D8
92D8
6024
901A
6004
6004
92DA
6D24
6D24
92DA
ENDCHAR
STARTCHAR E2D4
ENCODING 58068
SWIDTH 576 0
DWIDTH 16 0
BBX 13 21 2 0
BITMAP
92D8
92D8
6D20
92D8
6000
6000
9000
6000
F000
9000
6000
9000
9000
6000
9000
6000
6000
9000
6000
6000
9000
ENDCHAR
STARTCHAR E2D6
ENCODING 58070
SWIDTH 684 0
DWIDTH 19 0
BBX 15 21 2 0
BITMAP
92DA
92DA
6D24
92DA
6004
6004
901A
6004
F2DE
92DA
6D24
92DA
92DA
6000
9000
6000
6000
92DA
6D24
6D24
92DA
ENDCHAR
STARTCHAR E2D8
ENCODING 58072
SWIDTH 1080 0
DWIDTH 30 0
BBX 26 21 2 0
BITMAP
901A0340
901A0340
60040080
901A0340
6C040480
6C040480
121A0B00
0D043400
9FDE7F40
92DA4B40
6D25B480
92DA4B40
92DA4B40
60040080
901A0340
60040080
60040080
901A0340
60040080
60040080
901A0340
ENDCHAR
STARTCHAR E2D9
ENCODING 58073
SWIDTH 684 0
DWIDTH 19 0
BBX 15 21 2 0
BITMAP
92DA
92DA
6D24
92DA
6004
6004
901A
0024
02FC
02D8
0120
02D8
02D8
0024
901A
6004
6004
92DA
6D24
6D24
92DA
ENDCHAR
STARTCHAR E2DA
ENCODING 58074
SWIDTH 684 0
DWIDTH 19 0
BBX 15 21 2 0
BITMAP
901A
901A
6004
901A
6024
6024
90D8
6120
F3FA
92DA
6D24
92DA
92DA
6004
901A
6004
6004
901A
6004
6004
901A
ENDCHAR
STARTCHAR E2DC
ENCODING 58076
SWIDTH 900 0
DWIDTH 25 0
BBX 21 21 2 0
BITMAP
92DA48
92DA48
6D25B0
92DA48
602030
602030
90D848
602030
F0F878
90D848
602030
90D848
90D848
602030
90D848
602030
602030
90D848
602030
602030
90D848
ENDCHAR
STARTCHAR E2DD
ENCODING 58077
SWIDTH 684 0
DWIDTH 19 0
BBX 15 21 2 0
BITMAP
92DA
92DA
6D24
92DA
6004
6004
901A
6004
F01E
901A
6004
901A
901A
6004
901A
6004
6004
92DA
6D24
6D24
92DA
ENDCHAR
STARTCHAR E2DE
ENCODING 58078
SWIDTH 684 0
DWIDTH 19 0
BBX 15 21 2 0
BITMAP
92DA
92DA
6D24
92DA
6004
6004
901A
6004
F01E
901A
6004
901A
901A
6004
901A
6004
6004
901A
6004
6004
901A
ENDCHAR
STARTCHAR E2DF
ENCODING 58079
SWIDTH 684 0
DWIDTH 19 0
BBX 15 21 2 0
BITMAP
92DA
92DA
6D24
92DA
6004
6004
901A
6004
F01E
901A
6004
92DA
92DA
6D24
92DA
6000
6000
9000
6000
6000
9000
ENDCHAR
STARTCHAR E2E0
ENCODING 58080
SWIDTH 684 0
DWIDTH 19 0
BBX 15 21 2 0
BITMAP
92DA
92DA
6D24
92DA
6004
6004
901A
6004
F01E
901A
6000
9000
9000
6000
901A
6004
6004
92DA
6D24
6D24
92DA
ENDCHAR
STARTCHAR E2E1
ENCODING 58081
SWIDTH 684 0
DWIDTH 19 0
BBX 15 21 2 0
BITMAP
901A
901A
6004
901A
6004
6004
901A
6004
F2DE
92DA
6D24
92DA
92DA
0004
001A
0004
0004
92DA
6D24
6D24
92DA
ENDCHAR
STARTCHAR E2E2
ENCODING 58082
SWIDTH 900 0
DWIDTH 25 0
BBX 21 27 2 -3
BITMAP
00D800
00D800
002000
92DA48
92DA48
6D25B0
92DA48
602030
602030
90D848
602030
F0F878
90D848
602030
90D848
90D848
602030
90D848
602030
602030
92DA48
6D25B0
6D25B0
92DA48
002000
00D800
00D800
ENDCHAR
STARTCHAR E2E3
ENCODING 58083
SWIDTH 684 0
DWIDTH 19 0
BBX 15 21 2 0
BITMAP
901A
901A
6004
901A
6004
6004
901A
6004
F2DE
92DA
6D24
92DA
92DA
0004
001A
0004
0004
001A
0004
0004
001A
ENDCHAR
STARTCHAR E2E4
ENCODING 58084
SWIDTH 720 0
DWIDTH 20 0
BBX 18 24 2 -3
BITMAP
901A00
901A00
600400
901A00
600400
600400
901A00
600400
F01E00
901A00
600400
901A00
901A00
600400
901A00
600400
600400
92DA00
6D2580
6D2580
92DA40
000180
000240
000240
ENDCHAR
STARTCHAR E2E5
ENCODING 58085
SWIDTH 900 0
DWIDTH 25 0
BBX 21 21 2 0
BITMAP
90D848
90D848
602030
90D848
602030
602030
90D848
602030
F0F878
90D848
602030
90D848
90D848
602030
90D848
602030
602030
92DA48
6D25B0
6D25B0
92DA48
ENDCHAR
STARTCHAR E2E6
ENCODING 58086
SWIDTH 936 0
DWIDTH 26 0
BBX 24 24 2 -3
BITMAP
90D848
90D848
602030
90D848
602030
602030
90D848
602030
F0F878
90D848
602030
90D848
90D848
602030
90D848
602030
602030
92DA48
6D25B4
6D25B4
92DA4B
000004
00000B
00000B
ENDCHAR
STARTCHAR E2E7
ENCODING 58087
SWIDTH 684 0
DWIDTH 19 0
BBX 15 21 2 0
BITMAP
9000
9000
6000
9000
6000
6000
9000
6000
F2DA
92DA
6D24
92DA
92DA
6004
901A
6004
6004
92DA
6D24
6D24
92DA
ENDCHAR
STARTCHAR E2E8
ENCODING 58088
SWIDTH 792 0
DWIDTH 22 0
BBX 18 21 2 0
BITMAP
920000
920000
6C0000
920000
0C0000
0C0000
120000
0C0000
1EDA40
12DA40
0D2580
12DA40
12DA40
0C0180
120240
0C0180
0C0180
12DA40
0D2580
0D2580
12DA40
ENDCHAR
STARTCHAR E2E9
ENCODING 58089
SWIDTH 936 0
DWIDTH 26 0
BBX 22 21 2 0
BITMAP
900034
900034
600008
900034
600008
600008
900034
600008
F2DA3C
92DA34
6D2408
92DA34
92DA34
600408
901A34
600408
600408
92DA34
6D2408
6D2408
92DA34
ENDCHAR
STARTCHAR E2EA
ENCODING 58090
SWIDTH 792 0
DWIDTH 22 0
BBX 18 21 2 0
BITMAP
92DA40
92DA40
6D2580
92DA40
600180
600180
900240
000180
02DBC0
02DA40
012580
02DA40
02DA40
000180
900240
600180
600180
92DA40
6D2580
6D2580
92DA40
ENDCHAR
STARTCHAR E2EB
ENCODING 58091
SWIDTH 972 0
DWIDTH 27 0
BBX 24 21 2 0
BITMAP
90DA4B
90DA4B
6025B4
90DA4B
602004
602004
90D80B
602004
F2F80F
92D80B
6D2004
92D80B
92D80B
602004
90D80B
602004
602004
90DA4B
6025B4
6025B4
90DA4B
ENDCHAR
STARTCHAR E2EC
ENCODING 58092
SWIDTH 684 0
DWIDTH 19 0
BBX 15 21 2 0
BITMAP
92DA
92DA
6D24
92DA
6004
6004
901A
6004
F01E
901A
6004
92DA
92DA
6D24
12DA
6C04
6C04
901A
6004
6004
901A
ENDCHAR
STARTCHAR E2F1
ENCODING 58097
SWIDTH 684 0
DWIDTH 19 0
BBX 15 21 2 0
BITMAP
9200
9200
6D00
92C0
6120
6120
90D8
6024
F03E
901A
6004
92DA
92DA
6D24
92DA
6004
6004
901A
6004
6004
901A
ENDCHAR
STARTCHAR E2F2
ENCODING 58098
SWIDTH 684 0
DWIDTH 19 0
BBX 15 21 2 0
BITMAP
92DA
92DA
6D24
92DA
6000
6000
9000
6000
F2C0
92C0
6D20
92D8
92D8
6024
901A
6004
6004
92DA
6D24
6D24
92DA
ENDCHAR
STARTCHAR E2F3
ENCODING 58099
SWIDTH 684 0
DWIDTH 19 0
BBX 15 21 2 0
BITMAP
92DA
92DA
6D24
92DA
6004
6004
901A
6024
F2FE
92DA
6D24
92DA
92DA
6004
901A
6024
6024
92D8
6D20
6D20
92C0
ENDCHAR
STARTCHAR E2F4
ENCODING 58100
SWIDTH 576 0
DWIDTH 16 0
BBX 13 21 2 0
BITMAP
02D8
02D8
0D20
12D8
6C00
6C00
9000
6000
F000
9000
6000
9000
9000
6000
9000
6000
6000
9000
6000
6000
9000
ENDCHAR
STARTCHAR E2F5
ENCODING 58101
SWIDTH 684 0
DWIDTH 19 0
BBX 15 21 2 0
BITMAP
02DA
02DA
0D24
12DA
6C00
6C00
9000
6000
F2D8
92D8
6D20
92D8
92D8
6000
9000
6000
6000
92DA
6D24
6D24
92DA
ENDCHAR
STARTCHAR E2F8
ENCODING 58104
SWIDTH 792 0
DWIDTH 22 0
BBX 18 21 2 0
BITMAP
12DA40
12DA40
0D2580
12DA40
0C0180
0C0180
120240
0C0180
1E03C0
120240
0C0180
120240
120240
0C0180
120240
0C0180
0C0180
920240
6C0180
6C0180
900240
ENDCHAR
STARTCHAR E2F9
ENCODING 58105
SWIDTH 1080 0
DWIDTH 30 0
BBX 26 21 2 0
BITMAP
00DA0B40
00DA0B40
01243480
02DA4B40
0D05B080
0D05B080
121A4340
6C058080
FC1F83C0
901A0340
60040080
901A0340
901A0340
60040080
901A0340
60040080
60040080
901A0340
60040080
60040080
901A0340
ENDCHAR
STARTCHAR E2FA
ENCODING 58106
SWIDTH 792 0
DWIDTH 22 0
BBX 18 21 2 0
BITMAP
02DA40
02DA40
0D2580
12DA40
6C0180
6C0180
900240
600180
F003C0
900240
600180
900240
900240
600180
900240
600580
600580
92DA00
6D2400
6D2400
92D800
ENDCHAR
STARTCHAR E2FB
ENCODING 58107
SWIDTH 684 0
DWIDTH 19 0
BBX 15 21 2 0
BITMAP
92DA
92DA
6D24
92DA
6004
6004
901A
6004
F01E
901A
6024
92D8
92D8
6D20
92C0
6000
6000
9000
6000
6000
9000
ENDCHAR
STARTCHAR E2FC
ENCODING 58108
SWIDTH 684 0
DWIDTH 19 0
BBX 15 21 2 0
BITMAP
92DA
92DA
6D24
92DA
6000
6000
9000
6000
F000
9000
6000
9000
9000
6C00
1200
0D00
0D00
02DA
0124
0124
00DA
ENDCHAR
STARTCHAR E2FD
ENCODING 58109
SWIDTH 900 0
DWIDTH 25 0
BBX 21 27 2 -3
BITMAP
00D800
00D800
002000
02DA48
02DA48
0D25B0
12DA48
6C2030
6C2030
90D848
602030
F0F878
90D848
602030
90D848
90D848
602030
90D848
6021B0
6021B0
92DA40
6D2580
6D2580
92DA00
002000
00D800
00D800
ENDCHAR
STARTCHAR E2FE
ENCODING 58110
SWIDTH 684 0
DWIDTH 19 0
BBX 15 21 2 0
BITMAP
9000
9000
6000
9000
6000
6000
9000
6000
F2C0
92C0
6D20
92D8
92D8
6024
901A
6004
6004
92DA
6D24
6D24
92DA
ENDCHAR
STARTCHAR E2FF
ENCODING 58111
SWIDTH 792 0
DWIDTH 22 0
BBX 18 21 2 0
BITMAP
920000
920000
6C0000
920000
0C0000
0C0000
120000
0C0000
1ED800
12D800
0D2400
12DA00
12DA00
0C0580
120240
0C0180
0C0180
12DA40
0D2580
0D2580
12DA40
ENDCHAR
STARTCHAR E300
ENCODING 58112
SWIDTH 936 0
DWIDTH 26 0
BBX 22 21 2 0
BITMAP
900034
900034
600008
900034
600008
600008
900034
600008
F2C03C
92C034
6D2008
92D834
92D834
602408
901A34
600408
600408
92DA34
6D2408
6D2408
92DA34
ENDCHAR
STARTCHAR E302
ENCODING 58114
SWIDTH 1080 0
DWIDTH 30 0
BBX 26 21 2 0
BITMAP
90024B40
90024B40
6005B480
901A4B40
60240080
60240080
90D80340
60200080
F2F803C0
92D80340
6D200080
92D80340
92D80340
60200080
90D80340
60200480
60200480
90DA4B00
6025B400
6025B400
90DA4800
ENDCHAR
STARTCHAR E303
ENCODING 58115
SWIDTH 684 0
DWIDTH 19 0
BBX 15 21 2 0
BITMAP
92DA
92DA
6D24
92DA
6004
6004
901A
6004
F01E
901A
6C04
12DA
12DA
0D24
12DA
6C04
6C04
901A
6004
6004
901A
ENDCHAR
STARTCHAR E304
ENCODING 58116
SWIDTH 684 0
DWIDTH 19 0
BBX 15 21 2 0
BITMAP
12DA
12DA
6D24
92DA
6004
6004
901A
6004
F01E
901A
6004
901A
901A
6004
901A
6004
6004
92DA
6D24
6D24
92D8
ENDCHAR
STARTCHAR E305
ENCODING 58117
SWIDTH 684 0
DWIDTH 19 0
BBX 15 21 2 0
BITMAP
92DA
92DA
6D24
92DA
6004
6004
901A
0004
12DE
12DA
6D24
92D8
92D8
6000
9000
6000
6000
92DA
6D24
6D24
92DA
ENDCHAR
STARTCHAR E306
ENCODING 58118
SWIDTH 684 0
DWIDTH 19 0
BBX 15 21 2 0
BITMAP
92DA
92DA
6D24
92DA
6004
6004
901A
0004
02DE
02DA
0124
02DA
02DA
0004
901A
6004
6004
92DA
6D24
6D24
92DA
ENDCHAR
STARTCHAR E307
ENCODING 58119
SWIDTH 684 0
DWIDTH 19 0
BBX 15 21 2 0
BITMAP
901A
901A
6004
901A
6004
6004
901A
6004
F01E
901A
6004
92DA
92DA
6D24
92DA
0004
0004
001A
0004
0004
001A
ENDCHAR
STARTCHAR E308
ENCODING 58120
SWIDTH 684 0
DWIDTH 19 0
BBX 15 21 2 0
BITMAP
92DA
92DA
6D24
92DA
6000
6000
9000
6000
F2DA
92DA
6D24
92DA
92DA
6004
901A
6004
6004
92DA
6D24
6D24
92DA
ENDCHAR
STARTCHAR E309
ENCODING 58121
SWIDTH 684 0
DWIDTH 19 0
BBX 15 21 2 0
BITMAP
92DA
92DA
6D24
92DA
0004
0004
001A
0004
12DE
12DA
0D24
12DA
12DA
0004
001A
0004
0004
001A
0004
0004
001A
ENDCHAR
STARTCHAR E30A
ENCODING 58122
SWIDTH 684 0
DWIDTH 19 0
BBX 15 21 2 0
BITMAP
92DA
92DA
6D24
92DA
6004
6004
901A
6004
F2DE
92DA
6D24
92DA
92DA
6004
901A
6004
6004
92DA
6D24
6D24
92DA
ENDCHAR
STARTCHAR E30B
ENCODING 58123
SWIDTH 684 0
DWIDTH 19 0
BBX 15 21 2 0
BITMAP
92DA
92DA
6D24
92DA
6004
6004
901A
6004
F2DE
92DA
6D24
92DA
92DA
0004
001A
0004
0004
92DA
6D24
6D24
92DA
ENDCHAR
STARTCHAR E30C
ENCODING 58124
SWIDTH 684 0
DWIDTH 19 0
BBX 15 21 2 0
BITMAP
12D8
12D8
6D24
92DA
6004
6004
901A
0004
12DE
12DA
6D24
92D8
92D8
6000
9000
6000
6000
92DA
6D24
6D24
92DA
ENDCHAR
STARTCHAR E30D
ENCODING 58125
SWIDTH 684 0
DWIDTH 19 0
BBX 15 21 2 0
BITMAP
12D8
12D8
6D24
92DA
6004
6004
901A
0004
02DE
02DA
0124
02DA
02DA
0004
901A
6004
6004
92DA
6D24
6D24
12D8
ENDCHAR
STARTCHAR E30E
ENCODING 58126
SWIDTH 684 0
DWIDTH 19 0
BBX 15 21 2 0
BITMAP
02D8
02D8
0D20
12D8
6C20
6C20
90D8
6020
F0F8
90D8
6020
92DA
92DA
6D24
92DA
0020
0020
00D8
0020
0020
00D8
ENDCHAR
STARTCHAR E30F
ENCODING 58127
SWIDTH 684 0
DWIDTH 19 0
BBX 15 21 2 0
BITMAP
9000
9000
6000
9000
6000
6000
92D8
6D24
FFFE
92DA
6004
901A
901A
6004
901A
6004
6004
92DA
6D24
6D24
12D8
ENDCHAR
STARTCHAR E310
ENCODING 58128
SWIDTH 684 0
DWIDTH 19 0
BBX 15 21 2 0
BITMAP
92DA
92DA
6D24
92DA
0004
0004
001A
0004
02DE
02DA
0D24
12D8
12D8
0C00
1200
0C00
0C00
1200
0C00
0C00
1200
ENDCHAR
STARTCHAR E311
ENCODING 58129
SWIDTH 684 0
DWIDTH 19 0
BBX 15 21 2 0
BITMAP
12D8
12D8
6D24
92DA
6004
6004
901A
6004
F2DE
92DA
6D24
92DA
92DA
6004
901A
6004
6004
92DA
6D24
6D24
12D8
ENDCHAR
STARTCHAR E312
ENCODING 58130
SWIDTH 684 0
DWIDTH 19 0
BBX 15 21 2 0
BITMAP
12D8
12D8
6D24
92DA
6004
6004
901A
6004
F01E
901A
6004
92DA
92DA
6D24
12DA
0004
0004
001A
0004
0004
001A
ENDCHAR
STARTCHAR E313
ENCODING 58131
SWIDTH 684 0
DWIDTH 19 0
BBX 15 21 2 0
BITMAP
92D8
92D8
6D24
92DA
6004
6004
901A
6004
F01E
901A
6004
901A
901A
6004
901A
6004
6004
92DA
6D24
6D24
12DA
ENDCHAR
STARTCHAR E314
ENCODING 58132
SWIDTH 684 0
DWIDTH 19 0
BBX 15 21 2 0
BITMAP
92DA
92DA
6D24
92DA
6004
6004
901A
0024
00FC
00D8
0120
02C0
02C0
0D00
1200
6C00
6C00
92DA
6D24
6D24
92DA
ENDCHAR
STARTCHAR E315
ENCODING 58133
SWIDTH 684 0
DWIDTH 19 0
BBX 15 21 2 0
BITMAP
92DA
92DA
6D24
92DA
6004
6004
901A
0024
02FC
02D8
0124
02DA
02DA
0004
901A
6004
6004
92DA
6D24
6D24
92DA
ENDCHAR
STARTCHAR E316
ENCODING 58134
SWIDTH 684 0
DWIDTH 19 0
BBX 15 21 2 0
BITMAP
02DA
02DA
0D24
12DA
6C00
6C00
9000
6000
F2DA
92DA
6D24
92DA
92DA
6004
901A
6004
6004
92DA
6D24
6D24
92DA
ENDCHAR
STARTCHAR E317
ENCODING 58135
SWIDTH 684 0
DWIDTH 19 0
BBX 15 21 2 0
BITMAP
92DA
92DA
6D24
92DA
6004
6004
901A
6C24
7EFC
12D8
0D20
12D8
12D8
6C24
901A
6004
6004
92DA
6D24
6D24
92DA
ENDCHAR
STARTCHAR E318
ENCODING 58136
SWIDTH 684 0
DWIDTH 19 0
BBX 15 21 2 0
BITMAP
92DA
92DA
6D24
92DA
6004
6004
901A
6004
F2DE
92DA
6D24
92DA
92DA
0004
001A
0024
0024
92D8
6D20
6D20
92C0
ENDCHAR
STARTCHAR E338
ENCODING 58168
SWIDTH 684 0
DWIDTH 19 0
BBX 15 21 2 0
BITMAP
92DA
92DA
6D24
92DA
6004
6004
901A
0004
02DE
02DA
0124
02DA
02DA
0100
02C0
0000
0000
02C0
0100
0100
02C0
ENDCHAR
STARTCHAR E339
ENCODING 58169
SWIDTH 684 0
DWIDTH 19 0
BBX 15 21 2 0
BITMAP
02C0
02C0
0100
02C0
0000
0000
02C0
0100
93C0
92C0
6D00
92C0
92C0
6000
901A
6004
6004
92DA
6D24
6D24
92DA
ENDCHAR
STARTCHAR E33C
ENCODING 58172
SWIDTH 0 0
DWIDTH 0 0
BBX 12 7 -13 22
BITMAP
90D0
6020
6020
96D0
6920
16C0
16C0
ENDCHAR
STARTCHAR E33D
ENCODING 58173
SWIDTH 0 0
DWIDTH 0 0
BBX 12 16 -13 22
BITMAP
00D0
00D0
0120
06C0
06C0
0900
1600
0000
0000
90D0
6020
6020
96D0
6920
16C0
16C0
ENDCHAR
STARTCHAR E33E
ENCODING 58174
SWIDTH 0 0
DWIDTH 0 0
BBX 14 16 -15 22
BITMAP
D000
D000
2C00
1200
1200
0D00
02C0
0000
0000
2434
1808
1808
25B4
1A48
05B0
05B0
ENDCHAR
STARTCHAR E33F
ENCODING 58175
SWIDTH 0 0
DWIDTH 0 0
BBX 12 18 -13 22
BITMAP
6900
16C0
7FE0
6920
00C0
0920
0920
06C0
0900
0000
0000
90D0
6020
6020
96D0
6920
16C0
16C0
ENDCHAR
STARTCHAR E340
ENCODING 58176
SWIDTH 0 0
DWIDTH 0 0
BBX 16 16 -15 22
BITMAP
1A0B
1A0B
2584
DA4B
DA4B
21B4
D848
0000
0000
2434
1808
1808
25B4
1A48
05B0
05B0
ENDCHAR
STARTCHAR E341
ENCODING 58177
SWIDTH 0 0
DWIDTH 0 0
BBX 11 16 -10 22
BITMAP
0160
0160
0680
0900
0900
3600
4800
0000
0000
3600
4900
4900
B680
4100
B680
B680
ENDCHAR
STARTCHAR E342
ENCODING 58178
SWIDTH 0 0
DWIDTH 0 0
BBX 12 16 -13 22
BITMAP
9000
9000
6800
1600
1600
0900
06C0
0000
0000
06C0
0920
0920
16D0
0820
16D0
16D0
ENDCHAR
STARTCHAR E343
ENCODING 58179
SWIDTH 0 0
DWIDTH 0 0
BBX 9 18 -10 22
BITMAP
B600
4900
FF80
B680
0100
3680
3680
0900
3600
0000
0000
3600
4900
4900
B680
4100
B680
B680
ENDCHAR
STARTCHAR E344
ENCODING 58180
SWIDTH 0 0
DWIDTH 0 0
BBX 15 16 -13 22
BITMAP
1612
1612
690C
96D2
96D2
612C
90D0
0000
0000
06C0
0920
0920
16D0
0820
16D0
16D0
ENDCHAR
ENDFONT
